<svg width="20" height="21" viewBox="0 0 20 21" fill="none" xmlns="http://www.w3.org/2000/svg">
<path d="M10 0.605469C4.47718 0.605469 0 5.08261 0 10.6055C0 16.1283 4.47718 20.6055 10 20.6055C15.5228 20.6055 20 16.1283 20 10.6055C20 5.08265 15.5229 0.605469 10 0.605469ZM15.2463 5.35918C17.8853 7.99821 18.0689 12.0318 16.08 14.8607L5.74476 4.52547C8.57556 2.53531 12.6087 2.72164 15.2463 5.35918ZM4.75371 15.8518C2.11468 13.2127 1.93113 9.17914 3.91996 6.35027L14.2552 16.6855C11.4245 18.6756 7.39129 18.4893 4.75371 15.8518Z" fill="black"/>
</svg>
