<svg width="20" height="21" viewBox="0 0 20 21" fill="none" xmlns="http://www.w3.org/2000/svg">
<path d="M3.75 12.4805C3.75 12.8242 4.03125 13.1055 4.375 13.1055H8.96484L5.21484 9.35547H4.375C4.03125 9.35547 3.75 9.63672 3.75 9.98047V12.4805ZM10 0.605469C4.47656 0.605469 0 5.08203 0 10.6055C0 16.1289 4.47656 20.6055 10 20.6055C15.5234 20.6055 20 16.1289 20 10.6055C20 5.08203 15.5234 0.605469 10 0.605469ZM10 18.1055C5.86328 18.1055 2.5 14.7422 2.5 10.6055C2.5 8.98828 3.01953 7.49219 3.89453 6.26562L14.3398 16.7109C13.1133 17.5859 11.6172 18.1055 10 18.1055ZM11.7656 10.6055H15V11.8555H13.0156L11.7656 10.6055ZM16.1055 14.9453L14.2656 13.1055H15.625C15.9688 13.1055 16.25 12.8242 16.25 12.4805V9.98047C16.25 9.63672 15.9688 9.35547 15.625 9.35547H10.5156L5.66016 4.5C6.88672 3.625 8.38281 3.10547 10 3.10547C14.1367 3.10547 17.5 6.46875 17.5 10.6055C17.5 12.2227 16.9805 13.7188 16.1055 14.9453ZM12.5234 5.60547C11.9141 5.60547 11.4062 5.16797 11.2969 4.59375C11.2695 4.45312 11.1406 4.35547 10.9961 4.35547H10.3633C10.168 4.35547 10.0234 4.53125 10.0508 4.72266C10.2305 5.92969 11.2695 6.85547 12.5234 6.85547C13.1328 6.85547 13.6406 7.29297 13.75 7.86719C13.7773 8.00781 13.9062 8.10547 14.0508 8.10547H14.6836C14.8789 8.10547 15.0234 7.92969 14.9961 7.73828C14.8164 6.53125 13.7773 5.60547 12.5234 5.60547Z" fill="black"/>
</svg>
