<?xml version="1.0" encoding="utf-8" ?>
<svg xmlns="http://www.w3.org/2000/svg" xmlns:xlink="http://www.w3.org/1999/xlink" width="512" height="512">
	<path d="M259.034 48.1207Q272.508 47.7942 285.885 49.4432Q288.113 49.7174 290.334 50.0461Q292.555 50.3747 294.767 50.7577Q296.979 51.1406 299.181 51.5776Q301.383 52.0145 303.574 52.5053Q305.765 52.996 307.943 53.5402Q310.121 54.0844 312.285 54.6818Q314.449 55.2792 316.598 55.9294Q318.747 56.5795 320.879 57.2821Q323.011 57.9847 325.126 58.7393Q327.24 59.4938 329.335 60.2999Q331.431 61.106 333.505 61.9631Q335.58 62.8203 337.634 63.728Q339.687 64.6356 341.718 65.5933Q343.748 66.551 345.755 67.5581Q347.761 68.5651 349.742 69.621Q351.723 70.677 353.678 71.781Q355.633 72.8851 357.56 74.0367Q359.487 75.1883 361.386 76.3868Q363.284 77.5852 365.152 78.8297Q367.021 80.0743 368.858 81.3642Q370.696 82.6541 372.501 83.9886Q374.307 85.3231 376.079 86.7014Q377.851 88.0797 379.589 89.501Q381.327 90.9222 383.029 92.3856Q384.732 93.849 386.398 95.3536Q388.064 96.8582 389.693 98.4032Q391.322 99.9481 392.912 101.532Q394.503 103.117 396.054 104.74Q397.605 106.362 399.117 108.023Q400.628 109.683 402.098 111.38Q403.568 113.077 404.996 114.809Q406.424 116.541 407.809 118.308Q409.203 120.088 410.553 121.901Q411.903 123.715 413.208 125.561Q414.513 127.407 415.772 129.285Q417.03 131.163 418.243 133.071Q419.455 134.98 420.62 136.917Q421.784 138.855 422.901 140.821Q424.018 142.787 425.085 144.779Q426.153 146.772 427.171 148.79Q428.19 150.809 429.158 152.852Q430.126 154.895 431.044 156.961Q431.961 159.027 432.828 161.116Q433.694 163.204 434.508 165.313Q435.323 167.422 436.085 169.55Q436.848 171.678 437.557 173.825Q438.267 175.972 438.923 178.135Q439.579 180.298 440.182 182.477Q440.785 184.656 441.334 186.849Q441.883 189.043 442.378 191.249Q442.872 193.455 443.312 195.672Q443.753 197.89 444.138 200.117Q444.523 202.345 444.853 204.582Q445.184 206.818 445.459 209.062Q445.734 211.306 445.953 213.556Q446.173 215.806 446.337 218.061Q446.501 220.316 446.609 222.574Q446.717 224.832 446.77 227.093Q446.823 229.353 446.82 231.613Q446.816 233.874 446.758 236.134Q446.699 238.394 446.584 240.652Q446.469 242.91 446.299 245.164Q446.129 247.419 445.903 249.668Q445.677 251.918 445.396 254.161C444.274 263.299 437.643 297.611 430.959 302.554C429.247 303.82 427.104 304.265 425.017 303.886C422.839 303.491 420.666 302 419.511 300.107C418.739 298.844 418.311 296.767 418.498 295.299C418.951 291.745 420.937 287.869 422.112 284.454C423.455 280.551 424.605 276.519 425.609 272.515Q426.119 270.508 426.579 268.489Q427.04 266.47 427.45 264.441Q427.86 262.411 428.22 260.372Q428.579 258.333 428.888 256.285Q429.198 254.238 429.456 252.183Q429.714 250.129 429.921 248.069Q430.129 246.008 430.285 243.944Q430.441 241.879 430.546 239.811Q430.651 237.743 430.705 235.673Q430.759 233.603 430.761 231.532Q430.763 229.462 430.715 227.392Q430.666 225.322 430.566 223.253Q430.466 221.185 430.314 219.12Q430.163 217.055 429.96 214.994Q429.758 212.933 429.505 210.878Q429.251 208.823 428.947 206.775Q428.643 204.727 428.288 202.687Q427.933 200.647 427.528 198.616Q427.122 196.586 426.667 194.566Q426.211 192.546 425.706 190.538Q425.2 188.53 424.645 186.535Q424.09 184.54 423.486 182.559Q422.882 180.579 422.229 178.614Q421.576 176.649 420.874 174.701Q420.173 172.753 419.423 170.822Q418.673 168.892 417.876 166.981Q417.079 165.07 416.235 163.179Q415.39 161.289 414.499 159.42Q413.609 157.55 412.672 155.704Q411.735 153.857 410.752 152.034Q409.77 150.212 408.743 148.414Q407.715 146.616 406.644 144.844Q405.59 143.098 404.493 141.379Q403.396 139.659 402.258 137.967Q401.119 136.275 399.94 134.611Q398.761 132.947 397.541 131.312Q396.321 129.678 395.062 128.074Q393.803 126.469 392.505 124.896Q391.207 123.323 389.871 121.782Q388.535 120.241 387.162 118.733Q385.788 117.225 384.379 115.752Q382.969 114.278 381.524 112.839Q380.078 111.4 378.598 109.997Q377.118 108.593 375.605 107.227Q374.091 105.86 372.544 104.531Q370.997 103.201 369.419 101.91Q367.84 100.619 366.23 99.3668Q364.62 98.1146 362.98 96.9021Q361.341 95.6895 359.672 94.5174Q358.003 93.3453 356.305 92.2143Q354.608 91.0833 352.884 89.9941Q351.16 88.9049 349.409 87.8581Q347.659 86.8113 345.884 85.8076Q344.108 84.8039 342.309 83.8438Q340.51 82.8837 338.687 81.9679Q336.865 81.052 335.021 80.181Q333.177 79.3099 331.312 78.4842Q329.447 77.6584 327.563 76.8784Q325.678 76.0984 323.775 75.3647Q321.872 74.631 319.952 73.944Q318.032 73.2569 316.095 72.617Q314.159 71.9771 312.207 71.3846Q310.256 70.7922 308.291 70.2476Q306.325 69.7029 304.347 69.2065Q302.337 68.7047 300.315 68.2525Q298.294 67.8003 296.261 67.3982Q294.229 66.996 292.188 66.644Q290.146 66.292 288.097 65.9905Q286.047 65.689 283.991 65.438Q281.934 65.1871 279.872 64.9869Q277.81 64.7868 275.744 64.6375Q273.678 64.4882 271.608 64.3899Q269.539 64.2916 267.468 64.2444Q265.397 64.1971 263.325 64.2009Q261.254 64.2047 259.183 64.2596Q257.112 64.3144 255.043 64.4203Q252.974 64.5262 250.908 64.6831Q248.843 64.84 246.781 65.0477Q244.72 65.2554 242.665 65.5139Q240.609 65.7724 238.561 66.0814Q236.512 66.3905 234.472 66.75Q232.432 67.1094 230.401 67.5191Q228.37 67.9287 226.35 68.3883Q224.33 68.8479 222.322 69.3571Q220.314 69.8663 218.319 70.4249Q216.324 70.9835 214.344 71.591Q212.363 72.1986 210.398 72.8548Q208.433 73.511 206.485 74.2155Q204.537 74.9199 202.607 75.6722Q200.676 76.4244 198.765 77.224Q196.854 78.0236 194.963 78.8701Q193.073 79.7166 191.203 80.6094Q189.334 81.5022 187.487 82.4408Q185.64 83.3795 183.817 84.3633Q181.994 85.3472 180.196 86.3757Q178.397 87.4042 176.625 88.4767C156.168 100.388 138.127 118.191 124.925 137.744Q123.163 140.362 121.501 143.045Q119.839 145.727 118.279 148.47Q116.719 151.213 115.262 154.012Q113.806 156.812 112.455 159.664Q111.105 162.516 109.863 165.417Q108.62 168.318 107.488 171.263Q106.355 174.209 105.334 177.194Q104.312 180.18 103.403 183.202Q102.495 186.224 101.7 189.278Q100.905 192.332 100.225 195.414Q99.5459 198.495 98.9823 201.6Q98.4187 204.705 97.972 207.829Q97.5253 210.953 97.1961 214.091Q96.8669 217.23 96.6556 220.378Q96.4444 223.527 96.3514 226.681Q96.2583 229.835 96.2837 232.991C96.4877 245.093 98.1421 256.663 100.427 268.51C105.425 261.927 110.098 255.057 114.893 248.324C117.045 245.301 119.131 241.924 121.614 239.173C122.478 238.215 123.451 237.261 124.684 236.812Q125.088 236.663 125.504 236.556Q125.921 236.449 126.347 236.384Q126.772 236.32 127.202 236.299Q127.632 236.278 128.061 236.301Q128.491 236.324 128.916 236.39Q129.341 236.457 129.757 236.566Q130.174 236.675 130.577 236.826Q130.979 236.977 131.365 237.168Q131.72 237.343 132.056 237.553Q132.391 237.763 132.704 238.005Q133.017 238.248 133.303 238.521Q133.59 238.794 133.847 239.095Q134.104 239.396 134.33 239.721Q134.556 240.046 134.747 240.393Q134.939 240.739 135.094 241.103Q135.25 241.467 135.368 241.845C136.054 244.075 135.669 246.193 134.588 248.209C133.062 251.055 130.83 253.738 128.948 256.367L118.158 271.436L108.239 285.309C106.244 288.131 104.373 291.198 102.097 293.794C100.917 295.139 99.4914 296.332 97.7349 296.813C95.2701 297.488 92.9174 296.627 90.8211 295.337C87.9506 293.571 85.2246 291.375 82.4795 289.409L66.4877 277.986L52.9245 268.325C50.2581 266.423 47.3617 264.594 44.9741 262.352C43.8769 261.322 43.1847 260.24 42.8686 258.754C42.397 256.537 42.7934 254.044 44.1002 252.171C45.2515 250.52 46.9203 249.353 48.9185 249.016C50.7723 248.703 52.5382 249.085 54.2298 249.855C58.361 251.736 62.3639 255.34 66.0453 257.999L84.6434 271.202Q82.8545 263.108 81.7889 254.888Q80.7233 246.668 80.3893 238.386Q80.3053 236.157 80.2754 233.927Q80.2455 231.696 80.2698 229.466Q80.294 227.235 80.3724 225.006Q80.4508 222.777 80.5833 220.55Q80.7158 218.323 80.9024 216.1Q81.0889 213.878 81.3293 211.66Q81.5697 209.442 81.8639 207.231Q82.1581 205.02 82.5058 202.817Q82.8536 200.613 83.2548 198.419Q83.6559 196.225 84.1102 194.041Q84.5645 191.857 85.0717 189.685Q85.5789 187.513 86.1387 185.354Q86.6985 183.194 87.3105 181.049Q87.9225 178.904 88.5864 176.775Q89.2503 174.645 89.9657 172.533Q90.6812 170.42 91.4477 168.325Q92.2141 166.23 93.0313 164.155Q93.8484 162.079 94.7156 160.024Q95.5829 157.969 96.4998 155.935Q97.4167 153.902 98.3827 151.891Q99.3487 149.881 100.363 147.894Q101.378 145.908 102.44 143.946Q103.503 141.985 104.612 140.05Q105.722 138.115 106.878 136.207Q108.035 134.3 109.237 132.421Q110.44 130.542 111.687 128.693Q112.935 126.844 114.227 125.026Q115.519 123.208 116.855 121.421Q118.191 119.635 119.57 117.881Q120.948 116.128 122.37 114.409Q123.791 112.689 125.253 111.005Q126.715 109.32 128.218 107.672C163.014 70.1809 208.008 50.0255 259.034 48.1207Z"/>
	<path d="M259.441 96.106Q260.615 96.0523 261.789 96.0272Q262.964 96.0021 264.138 96.0056Q265.313 96.0092 266.487 96.0414Q267.662 96.0736 268.835 96.1345Q270.008 96.1953 271.179 96.2848Q272.351 96.3743 273.52 96.4923Q274.688 96.6103 275.854 96.7568Q277.02 96.9032 278.181 97.0781Q279.343 97.253 280.5 97.4562Q281.657 97.6593 282.809 97.8907Q283.96 98.122 285.106 98.3814Q286.252 98.6408 287.391 98.928Q288.53 99.2152 289.662 99.5302Q290.794 99.8451 291.917 100.188Q293.041 100.53 294.156 100.9Q295.271 101.27 296.377 101.666Q297.483 102.063 298.578 102.487Q299.674 102.911 300.759 103.361Q301.844 103.811 302.918 104.288Q303.991 104.765 305.053 105.267Q306.115 105.77 307.164 106.299Q308.213 106.827 309.249 107.381Q310.285 107.935 311.307 108.514Q312.329 109.093 313.337 109.697Q314.345 110.301 315.338 110.929Q316.33 111.557 317.307 112.209Q318.284 112.861 319.245 113.537Q320.206 114.213 321.15 114.912Q322.094 115.611 323.021 116.333Q323.948 117.055 324.857 117.799Q325.766 118.544 326.656 119.31Q327.547 120.076 328.418 120.864Q329.291 121.655 330.144 122.467Q330.997 123.28 331.83 124.113Q332.663 124.946 333.476 125.799Q334.288 126.652 335.079 127.525Q335.87 128.398 336.64 129.289Q337.409 130.181 338.157 131.092Q338.904 132.003 339.629 132.931Q340.354 133.86 341.056 134.806Q341.758 135.752 342.436 136.715Q343.115 137.678 343.769 138.657Q344.424 139.637 345.054 140.632Q345.685 141.627 346.291 142.637Q346.896 143.648 347.477 144.672Q348.058 145.697 348.614 146.736Q349.169 147.775 349.699 148.827Q350.229 149.879 350.733 150.944Q351.237 152.009 351.715 153.085Q352.193 154.162 352.644 155.25Q353.095 156.339 353.519 157.438Q353.944 158.537 354.341 159.646Q354.738 160.755 355.108 161.873Q355.478 162.991 355.82 164.119Q356.163 165.246 356.477 166.381Q356.792 167.516 357.079 168.659Q357.365 169.801 357.624 170.951Q357.883 172.1 358.113 173.255Q358.343 174.411 358.545 175.571Q358.747 176.732 358.921 177.897Q359.094 179.062 359.239 180.231Q359.384 181.4 359.5 182.573Q359.616 183.745 359.703 184.92Q359.791 186.094 359.849 187.271Q359.906 188.45 359.935 189.63Q359.963 190.81 359.963 191.991Q359.962 193.171 359.932 194.351Q359.903 195.531 359.844 196.71Q359.786 197.889 359.698 199.067Q359.61 200.244 359.494 201.419Q359.377 202.593 359.232 203.765Q359.087 204.936 358.912 206.104Q358.738 207.271 358.535 208.434Q358.333 209.597 358.101 210.755Q357.87 211.912 357.61 213.064Q357.35 214.215 357.062 215.36Q356.774 216.505 356.458 217.642Q356.142 218.78 355.798 219.909Q355.454 221.038 355.083 222.159Q354.711 223.279 354.312 224.39Q353.913 225.501 353.487 226.602Q353.061 227.703 352.608 228.793Q352.154 229.883 351.674 230.961Q351.195 232.04 350.688 233.106Q350.182 234.173 349.65 235.226Q349.118 236.28 348.56 237.32Q348.002 238.36 347.418 239.387Q346.835 240.413 346.226 241.424Q345.618 242.436 344.984 243.432Q344.351 244.428 343.694 245.409Q343.036 246.389 342.355 247.353Q341.673 248.317 340.968 249.264Q340.263 250.211 339.535 251.14Q338.807 252.069 338.057 252.98Q337.306 253.891 336.533 254.784Q335.761 255.676 334.966 256.549Q334.174 257.422 333.36 258.275Q332.547 259.128 331.713 259.961Q330.879 260.794 330.025 261.606Q329.17 262.418 328.296 263.209Q327.422 264 326.529 264.77Q325.636 265.539 324.725 266.286Q323.813 267.033 322.883 267.758Q321.954 268.483 321.006 269.184Q320.059 269.886 319.095 270.564Q318.131 271.242 317.15 271.896Q316.17 272.551 315.174 273.181Q314.177 273.811 313.166 274.416Q312.155 275.022 311.129 275.602Q310.103 276.183 309.063 276.738Q308.023 277.293 306.97 277.822Q305.917 278.352 304.851 278.855Q303.785 279.358 302.707 279.836Q301.629 280.313 300.54 280.763Q299.451 281.214 298.351 281.637Q297.251 282.061 296.141 282.458Q295.031 282.854 293.911 283.224Q292.792 283.593 291.664 283.935Q290.536 284.276 289.4 284.59Q288.263 284.904 287.12 285.19Q285.976 285.476 284.826 285.734Q283.676 285.992 282.52 286.221Q281.364 286.451 280.202 286.652Q279.041 286.853 277.875 287.025Q276.709 287.198 275.539 287.342Q274.369 287.486 273.196 287.601Q272.022 287.716 270.847 287.802Q269.671 287.889 268.494 287.946C243.7 288.798 219.596 280.726 200.879 264.3Q199.991 263.527 199.122 262.732Q198.254 261.937 197.405 261.121Q196.556 260.304 195.727 259.468Q194.899 258.631 194.091 257.774Q193.284 256.917 192.497 256.041Q191.711 255.164 190.946 254.269Q190.182 253.373 189.439 252.459Q188.697 251.545 187.978 250.613Q187.258 249.681 186.561 248.731Q185.865 247.782 185.192 246.815Q184.519 245.849 183.87 244.867Q183.222 243.884 182.597 242.886Q181.972 241.887 181.373 240.874Q180.773 239.861 180.198 238.833Q179.624 237.805 179.074 236.764Q178.525 235.722 178.002 234.667Q177.478 233.612 176.981 232.545Q176.484 231.478 176.013 230.398Q175.542 229.319 175.098 228.229Q174.653 227.138 174.236 226.037Q173.819 224.936 173.429 223.825Q173.039 222.714 172.676 221.593Q172.314 220.473 171.979 219.344Q171.644 218.215 171.337 217.078Q171.03 215.942 170.751 214.798Q170.472 213.654 170.221 212.503Q169.97 211.353 169.748 210.196Q169.525 209.04 169.332 207.878Q169.138 206.717 168.972 205.551Q168.807 204.385 168.671 203.216Q168.534 202.046 168.427 200.873Q168.319 199.701 168.24 198.526C166.615 171.916 175.424 147.068 193.087 127.169C209.982 108.136 234.299 97.6503 259.441 96.106ZM263.998 112.12C241.959 112.548 221.565 120.702 206.172 136.731Q204.816 138.153 203.532 139.639Q202.247 141.126 201.037 142.674Q199.827 144.222 198.694 145.827Q197.561 147.432 196.508 149.091Q195.455 150.749 194.485 152.458Q193.514 154.166 192.629 155.92Q191.743 157.674 190.945 159.469Q190.147 161.264 189.437 163.096Q188.728 164.928 188.109 166.793Q187.49 168.658 186.963 170.551Q186.436 172.443 186.003 174.36Q185.569 176.276 185.23 178.211Q184.891 180.146 184.648 182.096Q184.404 184.045 184.256 186.005Q184.108 187.964 184.056 189.928Q184.004 191.892 184.049 193.856Q184.096 195.816 184.239 197.771Q184.382 199.726 184.62 201.672Q184.858 203.618 185.191 205.55Q185.525 207.481 185.952 209.395Q186.379 211.308 186.9 213.198Q187.42 215.088 188.032 216.95Q188.644 218.812 189.347 220.643Q190.05 222.473 190.841 224.266Q191.632 226.06 192.51 227.812Q193.388 229.565 194.351 231.273Q195.314 232.98 196.359 234.639Q197.404 236.297 198.53 237.903Q199.655 239.508 200.857 241.056Q202.059 242.605 203.336 244.093Q204.612 245.58 205.96 247.004Q207.308 248.427 208.724 249.783Q210.117 251.115 211.573 252.378Q213.029 253.641 214.544 254.832Q216.06 256.023 217.63 257.14Q219.201 258.257 220.824 259.297Q222.447 260.337 224.118 261.298Q225.789 262.258 227.504 263.137Q229.219 264.016 230.975 264.811Q232.731 265.606 234.523 266.316Q236.315 267.026 238.139 267.648Q239.963 268.271 241.815 268.804Q243.667 269.338 245.543 269.782Q247.418 270.226 249.313 270.579Q251.208 270.932 253.117 271.194Q255.027 271.455 256.947 271.624Q258.867 271.793 260.793 271.869Q262.719 271.946 264.646 271.929C287.587 271.09 307.292 262.78 323.006 245.848Q324.312 244.42 325.548 242.93Q326.784 241.441 327.946 239.893Q329.108 238.346 330.194 236.744Q331.28 235.142 332.287 233.489Q333.295 231.836 334.221 230.137Q335.147 228.438 335.99 226.695Q336.832 224.953 337.59 223.172Q338.347 221.391 339.018 219.576Q339.688 217.76 340.27 215.914Q340.852 214.068 341.344 212.196Q341.836 210.325 342.237 208.431Q342.637 206.538 342.946 204.627Q343.255 202.716 343.471 200.793Q343.687 198.87 343.809 196.938Q343.932 195.007 343.961 193.072Q343.99 191.136 343.925 189.202Q343.89 188.209 343.83 187.217Q343.77 186.225 343.686 185.235Q343.601 184.245 343.492 183.257Q343.383 182.269 343.249 181.284Q343.116 180.299 342.958 179.318Q342.8 178.337 342.617 177.36Q342.435 176.383 342.228 175.411Q342.022 174.439 341.791 173.473Q341.56 172.506 341.306 171.546Q341.051 170.585 340.773 169.631Q340.494 168.677 340.192 167.73Q339.89 166.783 339.564 165.845Q339.239 164.906 338.89 163.975Q338.541 163.044 338.17 162.123Q337.798 161.201 337.403 160.289Q337.009 159.377 336.592 158.475Q336.174 157.573 335.735 156.682Q335.296 155.79 334.834 154.91Q334.373 154.03 333.889 153.162Q333.406 152.293 332.902 151.437Q332.397 150.581 331.871 149.738Q331.345 148.895 330.799 148.065Q330.252 147.235 329.685 146.418Q329.118 145.602 328.531 144.801Q327.944 143.999 327.337 143.212Q326.73 142.425 326.104 141.653Q325.478 140.882 324.833 140.126Q324.187 139.37 323.524 138.63Q322.86 137.891 322.178 137.168Q321.496 136.445 320.796 135.74Q320.096 135.034 319.379 134.346Q318.662 133.658 317.928 132.988Q316.564 131.738 315.144 130.552Q313.724 129.367 312.25 128.249Q310.776 127.131 309.251 126.083Q307.727 125.035 306.155 124.06Q304.583 123.084 302.968 122.182Q301.352 121.281 299.697 120.455Q298.041 119.63 296.349 118.883Q294.656 118.135 292.931 117.468Q291.206 116.8 289.451 116.214Q287.697 115.627 285.917 115.123Q284.137 114.619 282.335 114.198Q280.534 113.778 278.714 113.442Q276.895 113.105 275.062 112.854Q273.23 112.603 271.387 112.438Q269.544 112.272 267.696 112.193Q265.848 112.113 263.998 112.12Z"/>
	<path d="M263.562 127.085C265.844 127.226 267.971 127.708 269.639 129.4C273.111 132.924 272.056 140.413 272.02 145.073C276.63 146.141 281.429 147.758 285.542 150.101C287.944 151.469 290.279 153.355 290.969 156.164C291.495 158.303 290.85 160.52 289.684 162.335C284.896 169.783 277.75 163.36 271.935 161.694C268.026 160.574 263.433 160.514 259.471 161.413C256.436 162.101 253.246 163.638 251.596 166.391C250.551 168.134 249.925 170.766 250.437 172.768C251.979 178.798 266.046 182.802 271.388 184.943Q276.248 186.839 280.762 189.455C286.647 192.932 291.545 197.837 293.27 204.623C294.985 211.369 293.742 219.312 290.159 225.265C286.181 231.876 279.559 236.365 272.124 238.215C271.825 241.731 272.266 245.305 271.944 248.818C271.716 251.321 270.796 253.854 268.755 255.439C266.697 257.037 264.247 257.093 261.786 256.752C260.571 256.262 259.335 255.642 258.387 254.719C254.881 251.305 255.96 244.171 256.008 239.601C250.399 239.195 244.134 237.09 239.336 234.182C236.892 232.701 234.446 230.775 233.806 227.834C233.348 225.731 233.978 223.581 235.131 221.808C240 214.317 247.588 221.025 253.6 222.669Q255.228 223.108 256.898 223.342Q258.568 223.576 260.254 223.603Q261.94 223.63 263.617 223.449Q265.294 223.268 266.935 222.881C270.71 222.008 274.069 220.529 276.151 217.057C277.529 214.759 278.364 211.923 277.67 209.262C275.893 202.455 262.427 198.788 256.57 196.496Q251.838 194.685 247.422 192.2C241.683 188.91 236.597 184.11 234.866 177.534C233.109 170.861 234.474 163.546 237.951 157.661C241.912 150.955 248.565 147.612 255.853 145.71C256.383 140.988 254.714 134.03 257.746 130.024C259.261 128.023 261.215 127.459 263.562 127.085Z"/>
	<path d="M186.754 298.36C199.131 298.065 210.879 299.563 222.654 303.472C226.938 304.895 231.053 306.797 235.285 308.363C242.066 310.873 249.069 312.322 256.259 312.977C275.818 314.761 294.583 305.804 314.673 308.391C323.64 309.546 331.84 313.424 337.401 320.705C343.578 328.794 345.704 338.168 344.353 348.144C367.096 339.612 396.146 323.903 419.875 321.547C426.117 320.927 432.545 321.293 438.486 323.412C446.554 326.289 453.908 332.828 457.506 340.634C460.383 346.876 460.969 354.448 458.503 360.918C455.874 367.813 450.412 373.451 444.638 377.852C438.215 382.747 431.037 386.377 423.936 390.163L403.004 401.277Q377.804 414.514 352.293 427.141Q335.645 435.459 318.731 443.223C309.124 447.874 298.052 453.187 287.711 455.672C259.853 462.365 212.789 455.019 184.908 448.398C170.39 444.951 155.564 439.929 140.484 440.139C137.136 440.185 133.525 440.506 130.347 441.625C124.775 443.588 119.113 448.275 114.442 451.856C112.926 453.018 111.417 454.354 109.778 455.329C108.597 456.032 107.265 456.643 105.881 456.767C100.012 457.291 88.7277 449.274 84.4107 445.56C61.9243 426.212 46.8971 391.75 44.7414 362.482C44.3312 356.913 43.8277 342.589 47.7405 338.328C50.3455 335.491 60.0679 333.878 64.0557 332.634Q84.1949 326.162 103.835 318.304C108.941 316.287 113.955 314.036 119.071 312.048Q130.817 307.491 143.035 304.42Q153.767 301.716 164.729 300.197Q175.691 298.677 186.754 298.36ZM188.136 314.358C172.161 315.164 157.302 316.918 141.83 321.206C127.744 325.109 114.546 331.214 100.981 336.557Q81.2121 344.264 60.8636 350.277C59.4615 369.255 64.7174 387.452 73.2493 404.209C77.1927 411.954 81.8016 419.389 87.4859 425.986C90.7672 429.794 98.9444 438.271 103.961 439.028C106.054 438.551 108.294 436.466 110.022 435.212C117.043 430.118 123.707 425.833 132.473 424.477C137.033 423.771 141.643 423.962 146.226 424.3Q158.413 425.256 170.288 428.162C177.309 429.886 184.193 432.024 191.26 433.597C216.621 439.239 255.446 445.272 280.885 440.817C289.899 439.238 298.792 434.787 307.086 431.004Q316.844 426.623 326.48 421.98Q364.543 403.584 401.882 383.759L416.292 376.079C424.735 371.58 440.468 364.35 443.568 354.806C444.449 352.093 443.931 349.418 442.602 346.955C440.395 342.864 436.886 339.71 432.392 338.393C425.935 336.501 418.174 337.939 411.77 339.5C398.019 342.852 384.94 348.661 371.913 354.086L314.844 378.356C305.578 382.233 296.528 386.66 286.611 388.646C273.938 391.184 261.434 389.983 248.766 388.167C243.705 387.442 235.081 387.428 232.418 382.361Q232.227 381.997 232.074 381.615Q231.92 381.233 231.806 380.838Q231.692 380.442 231.619 380.037Q231.545 379.633 231.513 379.222Q231.481 378.812 231.49 378.401Q231.5 377.99 231.551 377.581Q231.601 377.173 231.693 376.772Q231.785 376.371 231.917 375.981C232.611 373.934 234.096 372.161 236.061 371.229C237.243 370.669 238.476 370.48 239.776 370.503C243.027 370.559 246.399 371.38 249.609 371.881C254.835 372.697 260.073 373.423 265.355 373.757Q272.769 374.246 280.134 373.264C289.996 371.984 299.226 367.51 308.28 363.625C315.629 360.471 324.702 355.696 327.756 347.752C329.43 343.398 328.946 338.587 327.023 334.402C325.056 330.12 321.893 327.013 317.433 325.415C306.15 321.373 288.47 326.254 276.697 328.042C271.289 328.864 265.609 329.447 260.137 329.276Q256.879 329.189 253.634 328.879Q250.39 328.568 247.174 328.036Q243.959 327.503 240.787 326.75Q237.616 325.997 234.504 325.028C229.362 323.424 224.488 321.184 219.448 319.311Q215.703 317.932 211.84 316.925Q207.978 315.919 204.035 315.296Q200.093 314.672 196.109 314.437Q192.124 314.202 188.136 314.358Z"/>
</svg>
