<svg width="15" height="16" viewBox="0 0 15 16" fill="none" xmlns="http://www.w3.org/2000/svg">
<path d="M6.05458 7.5C5.3711 7.5 4.38143 7.35384 3.59131 6.77099C2.27961 5.80332 1.93791 3.94671 2.00881 3.75039C2.0397 3.66519 2.10575 3.60652 2.20536 3.57574C2.56572 3.46453 4.2151 3.34855 5.40869 4.22899C6.72039 5.19666 7.06209 7.05327 6.99119 7.2496C6.9603 7.33479 6.89425 7.39346 6.79464 7.42424C6.67285 7.46182 6.40356 7.49999 6.05458 7.49999V7.5ZM2.53785 4.0444C2.63897 4.52786 3.00158 5.69032 3.89349 6.34825C4.80239 7.01867 5.99699 7.00805 6.46215 6.95558C6.36103 6.47222 5.99824 5.30975 5.10651 4.65174C4.19769 3.9814 3.00326 3.99194 2.53785 4.0444Z" fill="#14202B"/>
<path d="M9.38022 7.5C8.17873 7.5 7.13607 7.03876 7.0455 6.91806C6.99446 6.85049 6.98624 6.77016 7.02145 6.6799C7.14879 6.35327 8.0558 5.06693 9.50738 4.64897C11.1014 4.18972 12.8362 4.92441 12.9544 5.08161C13.0056 5.14965 13.0137 5.22998 12.9785 5.32023C12.8509 5.64695 11.9433 6.9332 10.4927 7.35094C10.1221 7.45771 9.74371 7.5 9.38022 7.5V7.5ZM7.60926 6.68214C8.06827 6.86441 9.24483 7.21365 10.3288 6.90169C11.433 6.58367 12.1508 5.69123 12.3907 5.31778C11.9317 5.13559 10.7548 4.7862 9.67123 5.09823C8.56698 5.41625 7.84923 6.30868 7.60926 6.68214Z" fill="#14202B"/>
<path d="M6.68161 12.5C6.61171 12.5 6.54447 12.4505 6.51144 12.3652C5.30899 9.26285 6.59659 6.71542 6.65197 6.60849C6.7097 6.49724 6.82733 6.46647 6.91483 6.53996C7.00214 6.61345 7.02628 6.76318 6.96873 6.87459C6.95644 6.89851 5.74819 9.30447 6.85154 12.1512C6.89797 12.2709 6.85944 12.4158 6.76546 12.4749C6.73848 12.4919 6.70983 12.5 6.68161 12.5V12.5Z" fill="#14202B"/>
</svg>
