<svg width="15" height="16" viewBox="0 0 15 16" fill="none" xmlns="http://www.w3.org/2000/svg">
<path d="M6.0874 7.5H3.88518C3.39708 7.5 3 7.12021 3 6.6534V4.34659C3 3.87979 3.39708 3.5 3.88518 3.5H8.11486C8.60292 3.5 9 3.87979 9 4.34659V4.68486H8.455V4.34659C8.455 4.1672 8.30243 4.02127 8.11486 4.02127H3.88518C3.69761 4.02127 3.545 4.16719 3.545 4.34659V6.6534C3.545 6.8328 3.69761 6.97873 3.88518 6.97873H6.0874V7.49999V7.5Z" fill="#14202B"/>
<path d="M5.5884 12.5C5.16861 12.5 4.75348 12.498 4.34754 12.4928C4.20597 12.491 4.06617 12.4725 3.93207 12.4377C3.54398 12.3368 2.8248 12.0561 2.36853 11.3094C1.86523 10.4858 1.87841 9.43458 2.40216 8.63128C3.1163 7.53588 4.36333 7.5 4.52203 7.5H11.3034C11.6474 7.5 11.978 7.59819 12.2344 7.77648C12.6927 8.09522 12.9785 8.61742 12.9988 9.17336C13.0215 9.78916 12.7239 10.3597 12.238 10.699C12.532 10.8907 12.6908 11.1691 12.6908 11.5025C12.6908 11.7185 12.5942 11.9261 12.4113 12.1027C12.1756 12.3302 11.8236 12.4721 11.5102 12.4727C10.3972 12.4628 9.2196 12.4739 8.08064 12.4844C7.25646 12.4921 6.41356 12.5 5.58841 12.5H5.5884ZM4.52341 8.00272C4.46136 8.00272 3.41429 8.01626 2.8376 8.90089C2.41727 9.54558 2.40711 10.39 2.81178 11.0522C3.17461 11.6459 3.75267 11.8707 4.06495 11.9519C4.15786 11.976 4.25522 11.9889 4.35426 11.9902C5.55218 12.0053 6.8351 11.9933 8.07568 11.9817C9.217 11.9711 10.3972 11.9601 11.5149 11.97C11.6918 11.9752 11.9096 11.8793 12.0481 11.7456C12.106 11.6897 12.1749 11.6022 12.1749 11.5025C12.1749 11.298 12.0495 11.1422 11.8023 11.0394C11.7183 11.0044 11.6247 10.9867 11.5244 10.9867L4.9304 10.9867C4.70503 10.9867 4.49654 10.9157 4.34338 10.7867C4.02469 10.5183 3.95672 10.2152 3.95579 10.0083C3.95453 9.72002 4.08376 9.42963 4.29296 9.25035C4.55599 9.02497 4.89236 8.90085 5.24007 8.90085H11.214V9.40357H5.24007C5.0178 9.40357 4.80243 9.48322 4.63362 9.62789C4.55515 9.69514 4.47097 9.84218 4.47169 10.0061C4.47236 10.1554 4.54268 10.2901 4.68073 10.4063C4.73934 10.4557 4.83032 10.484 4.9304 10.484L11.5244 10.484C11.5495 10.484 11.5744 10.4847 11.5991 10.486L11.5906 10.4598C12.1375 10.2911 12.5045 9.76952 12.4832 9.19132C12.4685 8.79026 12.2635 8.41433 11.9347 8.18567C11.7651 8.06768 11.5409 8.00272 11.3034 8.00272H4.52341V8.00272Z" fill="#14202B"/>
<path d="M12.3979 8.5C12.2522 8.20358 12.1847 7.87288 12.1194 7.55306C11.9784 6.86281 11.8452 6.21085 11 5.85951L11.3348 5.5C12.4328 5.9565 12.5999 6.7743 12.7473 7.49583C12.8116 7.81072 12.8723 8.10814 13 8.36797L12.3979 8.5Z" fill="#14202B"/>
<path d="M2.01111 9.5C1.92693 8.73144 2.33623 7.04072 2.73038 6.1957C2.88424 5.86562 3.26712 5.60862 3.75456 5.50826C3.76667 5.50577 3.77859 5.50306 3.79011 5.5L4 5.91067C3.97443 5.91744 3.94827 5.92349 3.92157 5.92901C3.62666 5.98972 3.39665 6.1415 3.30649 6.33498C2.93795 7.12516 2.53939 8.75754 2.61693 9.4656L2.01111 9.5Z" fill="#14202B"/>
<path d="M11.1148 7.5H6.88514C6.39708 7.5 6 7.12021 6 6.65341V4.34663C6 3.87979 6.39708 3.5 6.88514 3.5H11.1148C11.6029 3.5 12 3.87979 12 4.34663V6.65341C12 7.12021 11.6029 7.5 11.1148 7.5ZM6.88514 4.02126C6.69757 4.02126 6.545 4.16723 6.545 4.34663V6.65341C6.545 6.83281 6.69757 6.97874 6.88514 6.97874H11.1148C11.3024 6.97874 11.455 6.83281 11.455 6.65341V4.34663C11.455 4.16723 11.3024 4.02126 11.1148 4.02126H6.88514Z" fill="#14202B"/>
</svg>
