<?xml version="1.0" encoding="utf-8" ?>
<svg xmlns="http://www.w3.org/2000/svg" xmlns:xlink="http://www.w3.org/1999/xlink" width="587" height="587">
	<path transform="matrix(0.703837 0 0 0.703837 0.000244141 0)" d="M0 0L399.662 0L434.297 0L834 0L834 401.3L834 432.838L834 834L435.256 834L399.135 834L0 834L0 435.19L0 398.887L0 0ZM411.995 55.1625C394.844 55.7895 377.897 56.8337 360.908 59.4928Q357.186 60.0701 353.476 60.725Q349.766 61.38 346.071 62.1123Q342.376 62.8447 338.697 63.654Q335.018 64.4634 331.357 65.3495Q327.696 66.2356 324.054 67.198Q320.412 68.1605 316.791 69.1988Q313.17 70.2371 309.571 71.3509Q305.973 72.4646 302.398 73.6534Q298.824 74.8421 295.275 76.1053Q291.726 77.3684 288.205 78.7055Q284.683 80.0425 281.19 81.4529Q277.697 82.8633 274.234 84.3463Q270.772 85.8294 267.341 87.3845Q263.91 88.9396 260.512 90.566Q257.114 92.1925 253.751 93.8896Q250.388 95.5867 247.061 97.3537Q243.735 99.1207 240.445 100.957Q237.156 102.793 233.906 104.698Q230.656 106.602 227.447 108.574Q224.237 110.546 221.07 112.585Q217.902 114.623 214.778 116.728Q211.653 118.832 208.574 121.001Q205.494 123.171 202.46 125.404Q199.427 127.637 196.44 129.933Q193.454 132.229 190.516 134.587Q187.579 136.945 184.691 139.363Q181.803 141.782 178.966 144.261Q176.13 146.74 173.346 149.277Q170.562 151.814 167.831 154.409Q165.1 157.004 162.425 159.656Q159.749 162.307 157.129 165.014Q154.51 167.721 151.947 170.482Q148.895 173.759 145.925 177.111Q142.955 180.463 140.069 183.887Q137.183 187.312 134.383 190.807Q131.583 194.301 128.87 197.865Q126.157 201.428 123.534 205.057Q120.91 208.686 118.377 212.38Q115.844 216.073 113.404 219.828Q110.963 223.583 108.616 227.397Q106.27 231.211 104.018 235.082Q101.767 238.953 99.6117 242.879Q97.4568 246.805 95.3998 250.783Q93.3428 254.761 91.3851 258.788Q89.4273 262.816 87.5699 266.891Q85.7126 270.966 83.9568 275.086Q82.201 279.206 80.5478 283.368Q78.8946 287.53 77.3451 291.731Q75.7955 295.933 74.3506 300.172Q72.9056 304.41 71.5662 308.684Q70.2267 312.957 68.9936 317.262Q67.7604 321.567 66.6343 325.902Q65.5082 330.236 64.4899 334.597Q63.4716 338.958 62.5616 343.343Q61.6517 347.728 60.8506 352.134Q60.0496 356.54 59.358 360.965Q58.6665 365.389 58.0847 369.83Q57.503 374.27 57.0315 378.724Q56.5599 383.177 56.1989 387.641Q55.8379 392.104 55.5876 396.576Q55.3373 401.047 55.1979 405.523Q55.0585 409.999 55.03 414.478Q55.0016 418.956 55.0841 423.433Q55.1666 427.911 55.3601 432.385Q55.5453 436.818 55.8393 441.245Q56.1333 445.672 56.536 450.091Q56.9386 454.509 57.4497 458.917Q57.9608 463.324 58.58 467.718Q59.1992 472.111 59.9262 476.488Q60.6531 480.865 61.4874 485.223Q62.3216 489.58 63.2626 493.916Q64.2037 498.252 65.2509 502.564Q66.2982 506.875 67.4511 511.16Q68.6039 515.444 69.8617 519.699Q71.1194 523.954 72.4813 528.177Q73.8432 532.399 75.3085 536.587Q76.7737 540.775 78.3413 544.926Q79.909 549.077 81.5781 553.188Q83.2473 557.299 85.0169 561.367Q86.7865 565.436 88.6556 569.46Q90.5246 573.484 92.4919 577.461Q94.4593 581.438 96.5237 585.365Q98.5881 589.293 100.748 593.168Q102.909 597.044 105.163 600.865Q107.418 604.686 109.766 608.451Q112.114 612.215 114.554 615.921Q116.994 619.627 119.524 623.272Q122.054 626.917 124.673 630.498Q127.292 634.08 129.998 637.596Q132.704 641.112 135.495 644.561Q138.287 648.009 141.162 651.388Q144.038 654.767 146.995 658.075Q149.953 661.382 152.991 664.616Q156.029 667.849 159.145 671.008Q162.262 674.166 165.455 677.246Q168.648 680.327 171.916 683.328Q174.477 685.693 177.084 688.008Q179.691 690.323 182.342 692.588Q184.993 694.852 187.687 697.064Q190.382 699.277 193.119 701.436Q195.855 703.596 198.633 705.703Q201.411 707.809 204.23 709.861Q207.048 711.914 209.906 713.911Q212.763 715.908 215.659 717.85Q218.555 719.791 221.488 721.676Q224.42 723.562 227.389 725.389Q230.358 727.217 233.361 728.987Q236.365 730.758 239.402 732.469Q242.44 734.181 245.509 735.833Q248.579 737.486 251.681 739.078Q254.782 740.671 257.914 742.203Q261.045 743.736 264.206 745.207Q267.366 746.678 270.555 748.088Q273.744 749.498 276.959 750.846Q280.174 752.194 283.415 753.479Q286.656 754.765 289.921 755.987Q293.186 757.209 296.474 758.368Q299.762 759.527 303.072 760.622Q306.382 761.717 309.712 762.748Q313.043 763.779 316.393 764.745Q319.743 765.711 323.111 766.611Q326.479 767.512 329.863 768.348Q333.248 769.183 336.649 769.953Q340.049 770.723 343.463 771.427Q346.878 772.131 350.306 772.768Q353.733 773.406 357.173 773.977Q360.612 774.548 364.061 775.052Q367.511 775.557 370.97 775.994C387.519 778.114 404.947 779.504 421.649 778.872Q422.189 778.851 422.728 778.821C445.35 778.244 467.642 776.085 489.843 771.597Q493.178 770.909 496.499 770.158Q499.82 769.408 503.127 768.595Q506.433 767.782 509.724 766.907Q513.014 766.032 516.288 765.096Q519.562 764.159 522.817 763.161Q526.073 762.163 529.309 761.104Q532.545 760.045 535.76 758.926Q538.976 757.806 542.17 756.627Q545.364 755.447 548.536 754.207Q551.707 752.968 554.854 751.669Q558.002 750.37 561.124 749.013Q564.247 747.655 567.343 746.239Q570.44 744.822 573.509 743.348Q576.578 741.874 579.619 740.342Q582.661 738.811 585.672 737.222Q588.684 735.634 591.665 733.989Q594.647 732.345 597.597 730.644Q600.547 728.944 603.464 727.188Q606.382 725.433 609.266 723.623Q612.15 721.812 614.999 719.949Q617.849 718.085 620.663 716.168Q623.476 714.25 626.254 712.281Q629.031 710.311 631.771 708.29Q634.511 706.268 637.213 704.195Q639.914 702.123 642.576 700Q645.238 697.877 647.86 695.704Q650.482 693.532 653.062 691.31Q655.643 689.089 658.181 686.819Q660.719 684.549 663.214 682.232Q665.709 679.915 668.161 677.552Q670.612 675.189 673.018 672.78Q675.424 670.371 677.785 667.917Q680.872 664.716 683.88 661.439Q686.888 658.163 689.814 654.814Q692.74 651.464 695.582 648.044Q698.425 644.623 701.182 641.134Q703.94 637.644 706.611 634.088Q709.281 630.532 711.864 626.911Q714.446 623.29 716.938 619.606Q719.431 615.922 721.831 612.179Q724.232 608.435 726.54 604.633Q728.848 600.831 731.061 596.974Q733.275 593.116 735.393 589.205Q737.51 585.294 739.531 581.332Q741.552 577.37 743.475 573.36Q745.397 569.349 747.221 565.293Q749.044 561.236 750.766 557.136Q752.489 553.036 754.11 548.894Q755.732 544.753 757.25 540.573Q758.769 536.392 760.184 532.176Q761.599 527.96 762.91 523.71Q764.221 519.46 765.427 515.179Q766.633 510.898 767.733 506.589Q768.833 502.28 769.827 497.944Q770.82 493.609 771.707 489.251Q772.593 484.893 773.372 480.514Q774.151 476.135 774.822 471.739Q775.492 467.342 776.055 462.93Q776.617 458.518 777.07 454.094Q777.524 449.67 777.868 445.236Q778.212 440.801 778.447 436.36Q778.682 431.919 778.807 427.473Q778.933 423.027 778.949 418.58Q778.965 414.133 778.871 409.686Q778.783 405.206 778.584 400.73Q778.385 396.254 778.075 391.784Q777.765 387.314 777.344 382.853Q776.923 378.392 776.392 373.943Q775.861 369.494 775.219 365.06Q774.578 360.625 773.827 356.208Q773.076 351.791 772.215 347.394Q771.355 342.997 770.386 338.622Q769.417 334.247 768.339 329.898Q767.262 325.549 766.077 321.228Q764.892 316.907 763.601 312.616Q762.309 308.326 760.912 304.069Q759.514 299.812 758.012 295.591Q756.509 291.369 754.902 287.187Q753.295 283.004 751.585 278.863Q749.875 274.721 748.063 270.624Q746.251 266.526 744.338 262.474Q742.425 258.422 740.412 254.42Q738.398 250.417 736.287 246.465Q734.175 242.513 731.966 238.615Q729.757 234.717 727.452 230.874Q725.147 227.032 722.748 223.248Q720.348 219.464 717.855 215.741Q715.363 212.018 712.779 208.357Q710.194 204.697 707.52 201.102Q704.846 197.507 702.084 193.979Q699.322 190.451 696.473 186.993Q693.623 183.535 690.69 180.148Q687.756 176.762 684.739 173.449Q681.722 170.136 678.624 166.899Q675.526 163.663 672.348 160.503Q669.171 157.344 665.916 154.265Q663.158 151.645 660.346 149.085Q657.533 146.524 654.667 144.023Q651.801 141.522 648.883 139.083Q645.965 136.643 642.996 134.265Q640.027 131.888 637.008 129.573Q633.99 127.259 630.923 125.009Q627.856 122.759 624.743 120.574Q621.629 118.389 618.47 116.27Q615.311 114.152 612.108 112.1Q608.905 110.049 605.66 108.065Q602.414 106.082 599.127 104.168Q595.84 102.253 592.514 100.409Q589.187 98.5641 585.823 96.7902Q582.458 95.0162 579.057 93.3137Q575.655 91.6112 572.219 89.9809Q568.782 88.3506 565.312 86.7933Q561.842 85.2359 558.339 83.7521Q554.837 82.2684 551.304 80.8589Q547.771 79.4494 544.21 78.1149Q540.648 76.7803 537.058 75.5212Q533.469 74.2621 529.854 73.0791Q526.239 71.8961 522.6 70.7897Q518.961 69.6833 515.299 68.654Q511.637 67.6246 507.955 66.6729Q504.272 65.7211 500.57 64.8473Q496.868 63.9734 493.149 63.178Q489.429 62.3825 485.694 61.6658Q481.958 60.949 478.208 60.3113Q474.458 59.6736 470.696 59.1152Q466.933 58.5568 463.16 58.078Q459.387 57.5991 455.604 57.2001Q451.821 56.801 448.031 56.4819C436.314 55.5182 424.305 54.8067 412.551 55.1422L411.995 55.1625ZM434.297 0L434.751 0.069059C442.5 1.19631 450.429 1.22414 458.222 1.99131Q480.346 4.31307 502.142 8.75968Q506.754 9.72473 511.344 10.7936Q515.933 11.8625 520.497 13.0347Q525.061 14.2069 529.597 15.4818Q534.134 16.7567 538.64 18.1337Q543.146 19.5107 547.621 20.989Q552.095 22.4673 556.535 24.0462Q560.974 25.6252 565.377 27.3039Q569.78 28.9826 574.144 30.7603Q578.508 32.538 582.831 34.4137Q587.154 36.2894 591.433 38.2622Q595.712 40.235 599.946 42.3038Q604.18 44.3727 608.366 46.5366Q612.551 48.7005 616.687 50.9583Q620.823 53.2161 624.907 55.5667Q628.991 57.9173 633.021 60.3594Q637.051 62.8016 641.025 65.3341Q644.999 67.8666 648.914 70.4881Q652.83 73.1096 656.685 75.8188Q660.541 78.5281 664.334 81.3236Q668.127 84.1192 671.856 86.9996Q675.586 89.8801 679.249 92.844Q682.912 95.8079 686.508 98.8537Q690.103 101.9 693.629 105.026Q697.155 108.152 700.609 111.357Q704.063 114.562 707.444 117.844Q710.826 121.126 714.132 124.484Q717.438 127.841 720.667 131.272Q723.897 134.704 727.048 138.207Q730.2 141.711 733.271 145.284Q736.342 148.858 739.332 152.5Q742.322 156.142 745.229 159.85Q748.136 163.559 750.959 167.332Q754.68 172.3 758.252 177.378Q761.823 182.455 765.241 187.637Q768.659 192.819 771.921 198.101Q775.183 203.382 778.285 208.759Q781.388 214.136 784.328 219.603Q787.269 225.07 790.044 230.622Q792.82 236.175 795.428 241.808Q798.037 247.441 800.476 253.149Q802.915 258.858 805.183 264.636Q807.45 270.415 809.544 276.259Q811.637 282.103 813.556 288.007Q815.474 293.911 817.215 299.869Q818.956 305.828 820.518 311.836Q822.08 317.844 823.462 323.896Q824.843 329.947 826.044 336.038Q827.244 342.128 828.262 348.252C829.966 358.133 831.38 368.255 832.145 378.25C832.615 384.399 832.731 395.801 834 401.3L834 0L434.297 0ZM834 432.838L833.935 433.236C832.684 441.369 832.719 449.855 831.97 458.062C830.642 472.605 828.374 487.373 825.345 501.656Q824.378 506.301 823.305 510.922Q822.233 515.544 821.056 520.14Q819.879 524.736 818.598 529.304Q817.316 533.872 815.932 538.41Q814.547 542.948 813.06 547.453Q811.573 551.958 809.983 556.429Q808.394 560.899 806.703 565.332Q805.013 569.765 803.222 574.159Q801.432 578.552 799.542 582.904Q797.651 587.255 795.663 591.563Q793.675 595.871 791.589 600.132Q789.503 604.393 787.321 608.606Q785.139 612.819 782.862 616.981Q780.585 621.144 778.214 625.253Q775.843 629.362 773.379 633.417Q770.915 637.471 768.36 641.469Q765.805 645.466 763.159 649.405Q760.514 653.343 757.78 657.221Q755.045 661.098 752.224 664.912Q749.402 668.726 746.495 672.475Q743.587 676.224 740.595 679.907Q737.603 683.589 734.529 687.202Q731.454 690.815 728.298 694.357Q725.142 697.9 721.906 701.37Q718.67 704.839 715.357 708.235Q712.043 711.63 708.653 714.95Q705.263 718.269 701.799 721.51Q698.334 724.752 694.797 727.914Q691.26 731.075 687.652 734.156Q684.043 737.237 680.366 740.235Q676.689 743.233 672.945 746.146Q669.2 749.06 665.391 751.888Q660.39 755.603 655.281 759.167Q650.172 762.731 644.958 766.141Q639.745 769.551 634.432 772.804Q629.118 776.056 623.711 779.148Q618.303 782.241 612.805 785.17Q607.307 788.099 601.724 790.863Q596.141 793.627 590.478 796.223Q584.815 798.819 579.077 801.244Q573.339 803.669 567.531 805.922Q561.723 808.175 555.85 810.253Q549.977 812.332 544.045 814.234Q538.113 816.135 532.127 817.859Q526.14 819.583 520.105 821.127Q514.07 822.671 507.991 824.034Q501.913 825.398 495.796 826.578Q489.679 827.759 483.53 828.757C475.091 830.211 466.325 831.451 457.79 832.115C450.363 832.692 442.571 832.598 435.256 834L834 834L834 432.838ZM0 435.19L0 834L399.135 834C392.012 832.571 384.232 832.671 376.979 832.127C367.86 831.443 358.493 830.113 349.484 828.539C282.967 816.916 223.907 792.434 169.391 752.543Q165.589 749.736 161.852 746.844Q158.114 743.952 154.443 740.976Q150.772 738 147.169 734.942Q143.567 731.883 140.034 728.744Q136.502 725.605 133.041 722.387Q129.581 719.168 126.194 715.872Q122.807 712.577 119.496 709.205Q116.185 705.833 112.951 702.387Q109.717 698.941 106.562 695.423Q103.406 691.905 100.332 688.316Q97.2571 684.727 94.2645 681.07Q91.2719 677.412 88.363 673.688Q85.454 669.963 82.6301 666.174Q79.8062 662.385 77.0688 658.533Q74.3315 654.68 71.6821 650.767Q69.0327 646.854 66.4726 642.882Q63.9125 638.909 61.443 634.88Q58.9735 630.851 56.5959 626.767Q54.2183 622.683 51.9338 618.546Q49.6493 614.409 47.4591 610.221Q45.2689 606.034 43.174 601.798Q41.0792 597.562 39.0809 593.279Q37.0825 588.997 35.1817 584.67Q33.2808 580.343 31.4785 575.975Q29.6761 571.606 27.9731 567.198Q26.2701 562.79 24.6674 558.344Q23.0647 553.898 21.5631 549.417Q20.0615 544.937 18.6617 540.423Q17.262 535.909 15.9648 531.365Q14.6676 526.82 13.4737 522.248Q12.2798 517.676 11.1897 513.077Q10.0997 508.479 9.11404 503.857Q4.55151 481.946 2.15681 459.694C1.35812 451.534 1.26662 443.302 0 435.19ZM0 0L0 398.887C1.26718 392.148 1.26622 385.051 1.81594 378.221C2.55681 369.016 3.75951 359.589 5.33085 350.488C16.8782 283.604 42.0886 222.011 82.8241 167.539Q85.6443 163.758 88.5494 160.042Q91.4545 156.326 94.4429 152.677Q97.4314 149.027 100.502 145.446Q103.572 141.866 106.723 138.355Q109.873 134.845 113.102 131.407Q116.332 127.968 119.638 124.604Q122.944 121.24 126.325 117.952Q129.707 114.663 133.162 111.452Q136.617 108.241 140.144 105.109Q143.671 101.977 147.268 98.9254Q150.865 95.874 154.53 92.9048Q158.195 89.9356 161.926 87.0501Q165.658 84.1646 169.453 81.3643Q173.249 78.564 177.107 75.8503Q180.965 73.1367 184.884 70.5111Q188.802 67.8854 192.779 65.3492Q196.756 62.8129 200.789 60.3674Q204.823 57.9218 208.91 55.5681Q212.998 53.2145 217.138 50.954Q221.278 48.6934 225.468 46.5272Q229.658 44.361 233.896 42.2902Q238.134 40.2193 242.418 38.245Q246.702 36.2706 251.029 34.3937Q255.356 32.5168 259.725 30.7384Q264.094 28.9599 268.502 27.2808Q272.91 25.6017 277.354 24.0228Q281.799 22.4439 286.278 20.966Q290.758 19.4882 295.269 18.1121Q299.781 16.736 304.323 15.4623Q308.864 14.1887 313.434 13.0182Q318.003 11.8477 322.598 10.781Q327.192 9.71422 331.81 8.75174Q353.259 4.37468 375.03 2.07795C383.057 1.2867 391.273 1.24758 399.245 0.0649612L399.662 0L0 0Z"/>
	<path transform="matrix(0.703837 0 0 0.703837 0.000244141 0)" d="M441.119 172.905C446.621 172.54 452.129 171.998 456.956 175.239C458.621 176.357 460.03 177.651 461.776 178.693L462.206 178.945C468.542 170.006 478.722 179.115 488.885 172.893C490.349 172.832 492.295 172.589 493.673 173.175C494.56 173.552 494.614 173.538 494.99 174.459C494.902 174.581 494.825 174.713 494.725 174.826C493.398 176.316 490.578 175.948 488.755 175.964C496.188 178.748 501.475 175.577 508.716 176.713C515.086 177.714 520.207 181.826 523.957 186.867C524.201 193.888 525.027 200.969 524.958 207.987C526.401 220.611 526.914 246.993 525.156 259.475L526.031 259.961C526.866 259.194 527.229 257.042 528.007 256.756C528.472 257.598 528.484 257.744 528.225 258.724C527.228 262.496 524.334 265.524 523.773 269.415C523.7 269.925 523.621 270.424 523.561 270.937L524.153 271.047C532.695 272.606 541.708 273.057 550.357 273.936C567.053 275.633 584.169 277.685 600.964 277.307C619.862 276.882 639.398 273.687 658.224 276.377C664.953 277.338 673.308 279.428 677.46 285.275C682.051 291.742 682.596 301.513 682.995 309.178C683.949 327.486 682.32 345.852 682.305 364.169L682.293 500.863C682.297 514.249 682.388 527.562 682.971 540.939C683.77 559.24 686.112 579.192 682.586 597.299C681.991 600.354 680.987 604.425 678.865 606.763C676.806 610.773 672.058 613.514 667.976 615.083C661.38 617.618 654.204 618.295 647.2 618.643C636.672 619.165 626.187 618.045 615.668 617.819C599.918 617.48 584.106 617.721 568.351 617.844L300.063 617.879Q253.747 618.038 207.441 619.093C195.212 619.348 182.78 620.747 170.56 620.377C168.449 620.313 166.367 620.043 164.442 619.132C157.17 615.69 151.686 606.967 148.941 599.705C147.412 596.206 146.227 592.942 145.725 589.139C144.66 581.081 145.402 572.146 145.404 564.001C145.407 552.049 144.959 539.885 145.557 527.951C146.045 518.222 149.22 515.022 145.887 504.572C145.166 502.31 144.874 489.119 145.883 487.187C146.636 487.524 147.221 487.803 148.052 487.849C148.373 487.31 148.473 486.952 148.488 486.319C148.604 481.295 146.588 476.816 145.747 471.959C145.328 469.545 145.412 467.117 145.409 464.678C145.394 452.417 144.975 439.959 145.516 427.724C145.727 422.959 147.399 418.428 147.399 413.613C147.4 409.251 146.189 405.09 145.635 400.798C145.252 397.825 145.398 394.719 145.4 391.726C145.402 388.596 145.148 385.189 145.578 382.1C146.113 378.258 147.35 374.484 147.372 370.582C147.396 366.468 145.912 362.654 145.604 358.594C145.022 350.911 145.415 342.934 145.41 335.223C145.405 326.995 145.014 318.54 145.507 310.335C145.734 306.551 147.586 289.444 149.84 287.057C152.498 284.242 162.946 275.444 166.38 274.379C171.755 272.712 178.25 272.577 183.843 272.158C212.112 270.04 240.515 271.34 268.823 271.763C281.036 271.946 293.193 271.61 305.398 271.202C307.048 248.621 299.915 217.508 306.858 196.888C309.633 188.645 314.023 183.871 321.811 180.058C320.172 181.836 318.263 183.218 317.152 185.418C319.602 184.956 324.04 180.603 326.842 179.237C332.827 176.317 342.529 174.055 349.168 173.132C351.836 172.761 357.931 171.822 360.057 173.445C359.853 174.021 359.71 174.544 359.615 175.147C362.584 175.754 366.953 174.104 370.222 174.092C378.123 174.062 386.129 175.567 393.993 175.113C396.72 174.956 399.073 172.859 403.993 172.714C409.412 172.554 423.083 172.177 427.994 173.039C430.417 173.465 432.404 175.201 434.844 175.46C437.527 175.744 439.1 174.455 441.119 172.905ZM381.834 200.98C371.583 201.453 361.299 201.94 351.09 202.994C345.131 203.61 339.139 204.779 333.193 205.263C332.743 230.298 333.694 255.391 333.01 280.415C326.33 290.564 322.307 297.351 309.605 300.023C299.102 302.232 287.719 302.152 277.028 301.993C258.003 301.709 238.972 300.276 219.963 299.431C204.991 298.765 189.763 297.833 174.946 300.653C174.019 309.385 174.542 318.598 174.419 327.394Q173.988 354.895 173.881 382.4Q173.469 439.661 174.222 496.918L176.168 591.142C198.63 592.782 221.104 591.314 243.596 591.257C253.976 591.231 265.217 590.633 275.384 592.89C273.681 593.344 272.336 593.686 270.912 594.778L270.863 595.175L270.67 595.301L271.663 595.339L271.671 594.868L271.868 594.801L272.278 595.474C272.532 595.37 272.78 595.251 273.04 595.162C278.236 593.377 293.646 591.815 299.815 591.453C316.453 590.477 333.4 591.331 350.094 591.014Q365.258 590.691 380.417 590.187C385.789 590.025 391.332 589.613 396.697 589.872C398.899 589.979 401.5 590.591 403.439 591.665C404.661 592.341 405.832 595.081 406.191 594.999C409.448 594.256 412.385 592.506 415.614 591.709C421.983 590.136 434.338 590.911 441.027 591.522C438.523 592.35 435.917 593.089 433.499 594.139C437.589 594.057 441.499 593.639 445.489 592.72C447.543 592.046 448.537 591.226 449.783 589.496C455.392 589.124 460.548 589.457 465.922 591.215C470.564 592.733 475.515 595.416 480.457 595.463C486.753 595.523 493.18 594.353 499.476 593.958C510.632 593.26 521.931 593.321 533.107 593.487C575.731 594.119 618.068 597.466 660.741 595.896Q666.468 474.391 662.923 352.803C662.436 334.864 661.446 316.939 660.871 299.004C634.234 297.812 607.521 296.142 580.853 296.004C572.233 295.959 563.557 295.786 554.943 296.061C544.692 296.388 534.451 297.615 524.23 295.982C518.145 295.01 512.592 292.614 508.39 287.971C500.06 278.768 500.807 262.929 501.598 251.422C502.74 234.824 504.755 218.644 501.059 202.185C491.489 201.686 481.877 201.845 472.297 201.542Q443.324 200.531 414.334 200.736C403.516 200.732 392.643 200.567 381.834 200.98ZM148.941 599.705C151.686 606.967 157.17 615.69 164.442 619.132C166.367 620.043 168.449 620.313 170.56 620.377C182.78 620.747 195.212 619.348 207.441 619.093Q253.746 618.038 300.063 617.879L568.351 617.844C584.106 617.721 599.918 617.48 615.668 617.819C626.187 618.045 636.672 619.165 647.2 618.643C654.204 618.295 661.38 617.618 667.976 615.083C672.058 613.514 676.806 610.773 678.865 606.763L678.044 606.875C671.817 613.75 662.426 615.828 653.592 616.715C649.595 617.116 645.406 616.891 641.387 616.944C635.536 617.023 629.648 617.297 623.799 617.134C618.191 616.978 612.599 616.381 606.994 616.155C599.471 615.852 591.836 616.132 584.305 616.3C574.63 616.517 564.947 617.058 555.27 617.148C524.268 617.437 493.243 616.735 462.24 616.772C456.25 616.779 450.276 617.107 444.289 617.146C417.911 617.321 391.454 617.41 365.079 617.144C345.356 616.945 325.667 616.671 305.936 616.743C297.292 616.775 288.664 617.164 280.012 617.169C264.117 617.177 247.968 616.28 232.109 617.214L237.408 617.401C223.315 618.071 209.277 617.768 195.195 618.252C186.928 618.536 177.656 620.21 169.485 619.305C167.364 619.07 165.412 618.064 163.638 616.933C155.577 611.798 153.627 603.103 149.402 600.018C149.252 599.908 149.095 599.809 148.941 599.705ZM524.958 207.987C524.311 216.213 523.262 253.235 525.156 259.475C526.914 246.993 526.401 220.611 524.958 207.987Z"/>
	<path transform="matrix(0.703837 0 0 0.703837 0.000244141 0)" d="M524.958 207.987C526.401 220.611 526.914 246.993 525.156 259.475C523.262 253.235 524.311 216.213 524.958 207.987Z"/>
	<path transform="matrix(0.703837 0 0 0.703837 0.000244141 0)" d="M148.941 599.705C149.095 599.809 149.252 599.908 149.402 600.018C153.627 603.103 155.577 611.798 163.638 616.933C165.412 618.064 167.364 619.07 169.485 619.305C177.656 620.21 186.928 618.536 195.195 618.252C209.277 617.768 223.315 618.071 237.408 617.401L232.109 617.214C247.968 616.28 264.117 617.177 280.012 617.169C288.664 617.164 297.292 616.775 305.936 616.743C325.667 616.671 345.356 616.945 365.079 617.144C391.454 617.41 417.911 617.321 444.289 617.146C450.276 617.107 456.25 616.779 462.24 616.772C493.243 616.735 524.268 617.437 555.27 617.148C564.947 617.058 574.63 616.517 584.305 616.3C591.836 616.132 599.471 615.852 606.994 616.155C612.599 616.381 618.191 616.978 623.799 617.134C629.648 617.297 635.536 617.023 641.387 616.944C645.406 616.891 649.595 617.116 653.592 616.715C662.426 615.828 671.817 613.75 678.044 606.875L678.865 606.763C676.806 610.773 672.058 613.514 667.976 615.083C661.38 617.618 654.204 618.295 647.2 618.643C636.672 619.165 626.187 618.045 615.668 617.819C599.918 617.48 584.106 617.721 568.351 617.844L300.063 617.879Q253.747 618.038 207.441 619.093C195.212 619.348 182.78 620.747 170.56 620.377C168.449 620.313 166.367 620.043 164.442 619.132C157.17 615.69 151.686 606.967 148.941 599.705Z"/>
	<path transform="matrix(0.703837 0 0 0.703837 0.000244141 0)" d="M589.973 343.538C591.501 343.838 592.777 344.592 594.399 344.729C605.137 345.639 618.427 342.779 627.112 351.042C630.87 354.617 632.157 359.599 632.237 364.632C632.395 374.62 626.7 382.496 619.996 389.331C618.739 390.593 617.324 391.688 615.949 392.817C613.392 393.076 610.704 393.178 608.139 393.02C600.227 392.534 592.743 389.267 587.525 383.223Q587.062 382.68 586.627 382.116Q586.192 381.551 585.786 380.965Q585.379 380.379 585.002 379.774Q584.625 379.169 584.278 378.546Q583.931 377.923 583.616 377.284Q583.3 376.645 583.017 375.991Q582.733 375.336 582.482 374.669Q582.232 374.002 582.014 373.323Q581.797 372.644 581.613 371.955Q581.429 371.266 581.28 370.569Q581.13 369.872 581.016 369.168Q580.901 368.464 580.821 367.756Q580.742 367.047 580.697 366.336Q580.653 365.624 580.643 364.911Q580.634 364.198 580.66 363.486Q580.686 362.773 580.747 362.063Q580.795 361.401 580.875 360.742Q580.954 360.084 581.066 359.43Q581.178 358.776 581.322 358.128Q581.465 357.48 581.64 356.84Q581.815 356.2 582.022 355.569Q582.228 354.938 582.464 354.318Q582.701 353.698 582.967 353.091Q583.234 352.483 583.529 351.889Q583.825 351.295 584.15 350.716Q584.474 350.137 584.827 349.575Q585.179 349.012 585.558 348.468Q585.937 347.923 586.343 347.398Q586.748 346.873 587.179 346.368Q587.609 345.863 588.064 345.379Q588.518 344.896 588.996 344.435Q589.474 343.975 589.973 343.538ZM605.439 362.026C605.908 364.974 606.352 372.977 608.768 374.961C609.526 375.583 610.295 375.603 611.217 375.403C612.713 375.08 614.255 373.544 615.311 372.505C616.35 370.639 618.296 366.97 617.603 364.798C617.317 363.902 616.86 363.311 616.031 362.856C613.334 361.374 608.471 361.996 605.439 362.026Z"/>
	<path transform="matrix(0.703837 0 0 0.703837 0.000244141 0)" d="M238.658 362.105C241.789 362.018 244.233 362.609 247.123 363.69C246.77 369.445 246.998 375.323 246.996 381.091L247.024 412.317Q247.148 453.007 248.09 493.686C248.584 511.557 249.562 529.418 250.013 547.286C247.527 548.845 246.701 550.252 245.555 552.896C241.961 553.06 236.702 553.223 233.628 551.163C232.554 550.443 232.49 549.582 232.192 548.427C230.504 542.025 229.69 535.576 229.332 528.972C228.267 509.329 230.115 489.62 229.12 469.956C228.876 465.134 226.001 451.365 227.453 447.645C228.155 445.845 229.71 445.478 231.365 444.854C228.094 438.509 224.531 429.203 226.942 422.074C227.746 419.695 229.983 417.934 230.478 415.526C230.34 415.357 230.199 415.191 230.064 415.02C227.672 411.974 228.111 409.171 228.487 405.585L225.924 402.211C227.688 401.399 229.492 400.879 231.351 400.342C231.101 390.486 227.565 374.99 232.926 366.332C234.369 363.999 236.024 362.769 238.658 362.105Z"/>
	<path transform="matrix(0.703837 0 0 0.703837 0.000244141 0)" d="M451.857 211.941C462.386 211.841 474.084 212.616 482.437 219.838C488.911 225.434 491.77 234.084 492.274 242.417C492.921 253.138 489.542 263.942 482.333 271.987C477.382 277.512 468.371 283.781 460.639 283.052C457.152 282.724 453.948 281.319 450.376 281.433C445.828 281.577 441.438 283.687 436.761 283.92C431.143 284.199 429.508 283.309 425.555 279.772C424.496 280.898 423.567 282.128 422.616 283.344C421.643 282.968 420.622 282.523 419.612 282.265C418.539 281.992 417.984 282.252 417.045 282.738C416.736 283.532 416.552 284.123 415.899 284.693C414.223 284.727 413.138 283.226 411.736 282.5C410.438 281.829 409.456 282.416 408.16 282.811C409.526 281.475 411.123 280.685 412.786 279.782C408.546 279.934 404.873 280.332 400.808 281.584C400.736 281.603 400.666 281.64 400.592 281.639C396.995 281.579 392.745 280.119 389.154 279.479C378.089 277.506 366.496 277.733 356.645 271.492C350.869 267.834 347.21 262.459 345.759 255.8C343.136 243.764 346.883 230.437 353.432 220.26C358.997 217.428 365.769 215.942 371.937 215.258C384.232 213.892 396.496 216.195 408.799 215.753C423.193 215.236 437.43 212.383 451.857 211.941ZM378.647 231.909C374.033 232.199 369.507 233.102 364.877 233.018C364.425 233.01 363.974 233.008 363.523 232.996C359.582 238.558 358.341 244.948 359.451 251.659C360.149 255.884 362.031 260.268 365.616 262.82C365.794 262.946 365.975 263.067 366.155 263.191C375.054 263.901 384.434 263.057 393.398 263.079C414.556 263.133 436.382 264.823 457.215 260.299C460.742 259.509 466.524 259.004 468.642 255.811C469.4 254.668 470.37 243.822 471.529 240.026C468.385 235.972 464.926 234.16 459.806 233.474C443.916 231.344 428.724 238.54 413.175 231.56C409.978 234.417 407.687 235.963 403.183 235.775C398.687 235.587 393.666 233.805 389.201 234.486C387.409 234.759 384.727 237.955 383.161 235.956C381.951 234.412 382.302 232.891 380.053 232.183C379.467 231.998 379.25 231.993 378.647 231.909Z"/>
	<path transform="matrix(0.703837 0 0 0.703837 0.000244141 0)" d="M345.922 322.397C355.754 322.622 361.967 315.927 370.799 313.001C379.622 310.076 389.913 308.856 399.194 308.353C439.685 306.16 478.261 316.233 508.782 343.849C533.018 365.778 551.463 400.269 553.149 433.229C554.097 442.152 554.686 452.141 553.087 461.003C553.181 468.26 551.133 476.13 549.412 483.171C546.023 497.03 540.805 512.306 533.216 524.489C522.809 541.195 502.18 558.335 485.419 568.465C455.012 586.841 421.053 592.444 386.471 583.867C349.294 574.646 327.972 567.805 306.832 532.635Q303.208 531.235 299.559 529.9C299.472 529.788 299.38 529.68 299.296 529.565C295.896 524.891 293.105 518.843 290.523 513.661C276.447 485.405 270.643 454.824 274.862 423.448C276.407 424.644 277.894 425.937 279.403 427.18C273.052 404.316 287.604 382.827 297.963 363.338C299.744 363.598 301.529 364.034 303.304 364.358C303.377 362.645 303.297 359.893 304.092 358.392C306.824 353.23 308.688 355.882 309.19 348.347L309.614 348.163C310.394 349.094 311.082 350.209 312.299 350.55C315.474 348.4 312.974 342.702 316.206 340.253C319.066 338.085 324.064 339.323 327.491 337.603C334.546 334.062 339.922 327.414 345.922 322.397ZM416.011 332.469C384.874 334.346 354.93 343.787 333.562 367.792C310.051 394.204 303.364 430.942 305.282 465.295C304.166 464.601 303.061 463.684 301.703 463.678L301.32 464.254C310.466 478.349 315.821 499.992 325.65 511.317L322.358 515.784C325.501 515.812 329.401 516.257 331.652 518.725C333.185 520.407 333.146 522.422 333.057 524.567C335.858 526.368 341.735 524.679 342.57 528.942C343.049 531.393 342.836 534.294 342.813 536.792C344.834 537.93 347.102 538.268 349.138 539.316C351.698 540.633 357.614 546.674 360.408 545.821C361.202 545.579 361.602 545.151 362.209 544.611C362.956 544.795 363.314 544.818 363.65 545.569C363.713 545.711 363.891 546.714 363.912 546.818C364.235 548.463 364.8 549.478 366.233 550.392C371.866 553.986 379.267 555.727 385.429 558.316C388.828 559.744 391.919 561.775 395.281 563.239C396.298 563.682 397.333 563.83 398.424 563.976Q405.854 564.901 413.341 564.91C446.888 564.606 478.054 552.317 501.731 528.243C524.274 505.321 535.214 475.351 534.885 443.443C534.593 415.077 524.334 389.104 503.897 369.171C489.92 355.538 472.942 346.031 454.941 338.794C449.501 336.607 443.741 334.379 437.982 333.257C432.542 332.197 426.822 332.198 421.295 332.29C419.532 332.319 417.77 332.345 416.011 332.469ZM553.149 433.229C551.149 440.939 551.937 453.131 553.087 461.003C554.686 452.141 554.097 442.152 553.149 433.229Z"/>
	<path transform="matrix(0.703837 0 0 0.703837 0.000244141 0)" d="M553.149 433.229C554.097 442.152 554.686 452.141 553.087 461.003C551.937 453.131 551.149 440.939 553.149 433.229Z"/>
	<path transform="matrix(0.703837 0 0 0.703837 0.000244141 0)" d="M403.061 343.054C432.956 341.297 461.48 349.895 484.149 369.826Q485.104 370.665 486.039 371.528Q486.973 372.39 487.886 373.275Q488.799 374.16 489.69 375.067Q490.581 375.974 491.45 376.903Q492.318 377.831 493.164 378.781Q494.009 379.731 494.831 380.701Q495.654 381.671 496.452 382.661Q497.25 383.65 498.024 384.659Q498.797 385.668 499.546 386.696Q500.295 387.724 501.018 388.769Q501.742 389.815 502.439 390.878Q503.137 391.941 503.808 393.021Q504.48 394.101 505.124 395.197Q505.769 396.293 506.387 397.404Q507.005 398.516 507.595 399.642Q508.185 400.768 508.748 401.908Q509.311 403.049 509.845 404.202Q510.38 405.356 510.886 406.522Q511.392 407.689 511.87 408.867Q512.347 410.046 512.796 411.236Q513.244 412.425 513.663 413.626Q514.083 414.826 514.472 416.037Q514.862 417.247 515.222 418.466Q515.582 419.686 515.912 420.914Q516.242 422.142 516.542 423.377Q516.842 424.613 517.112 425.856Q517.382 427.098 517.621 428.347Q517.86 429.596 518.068 430.85Q518.277 432.105 518.455 433.364Q518.632 434.623 518.779 435.886Q518.926 437.149 519.042 438.415Q519.158 439.681 519.243 440.95Q519.455 444.325 519.461 447.707Q519.467 451.089 519.267 454.465Q519.067 457.841 518.661 461.199Q518.255 464.557 517.646 467.883Q517.036 471.21 516.225 474.493Q515.413 477.776 514.403 481.004Q513.393 484.231 512.188 487.391Q510.983 490.551 509.587 493.632C507.914 497.41 506.11 501.521 503.623 504.848C500.74 508.703 496.142 511.352 493.083 515.193C491.029 517.772 490.174 521.184 487.913 523.604C484.448 527.312 479.671 530.344 475.508 533.24C457.069 546.068 440.146 553.795 417.257 554.269Q414.561 554.225 411.87 554.053Q409.179 553.882 406.499 553.584Q403.819 553.285 401.156 552.861Q398.493 552.436 395.853 551.886Q393.213 551.337 390.602 550.663Q387.992 549.989 385.415 549.193Q382.839 548.396 380.303 547.479Q377.768 546.562 375.278 545.526C364.233 541.054 345.318 530.832 338.832 521.039C336.966 518.221 336.194 514.284 334.854 511.13Q332.126 510.746 329.409 510.291C325.581 506.943 323.063 502.619 320.942 498.044C313.069 481.063 308.017 458.126 308.039 439.341C308.042 436.509 307.899 432.783 308.871 430.102C310.474 429.78 311.316 431.001 312.901 430.674C310.385 412.32 318.37 398.687 327.141 383.219L331.173 384.947C332.716 374.963 336.169 377.17 339.415 371.013C340.185 369.552 340.552 367.671 340.971 366.074C341.856 365.693 344.081 366.287 345.112 366.441C346.441 365.309 347.735 363.848 349.607 363.928C351.143 363.993 351.792 362.605 352.787 361.543C355.429 358.722 359.305 357.907 362.34 355.614C363.396 354.815 363.789 354.173 363.976 352.882L363.003 351.653C365.26 350.363 366.214 353.717 368.319 353.397C371.851 352.858 377.338 348.221 381.003 346.745C387.387 344.173 396.172 343.56 403.061 343.054ZM415.416 362.616C391.913 363.753 368.482 371.975 352.393 389.788C338.067 405.65 332.068 426.269 333.214 447.413C333.453 451.818 333.98 456.262 334.547 460.637L330.25 459.366C337.471 471.347 344.795 484.58 348.338 498.164C353.588 500.795 356.945 504.738 361.278 508.556C362.658 509.772 364.204 510.75 365.611 511.921C363.894 512.554 361.834 513.056 360.48 514.32C360.726 514.995 360.826 514.895 361.475 515.199C365.404 517.034 374.618 517.582 376.215 521.832C376.409 522.346 376.549 522.876 376.7 523.403C376.836 523.876 376.973 524.347 377.102 524.823C380.937 526.499 385.27 526.588 389.159 528.122C392.094 529.279 394.411 531.587 396.977 533.36C400.79 535.994 409.24 535.535 413.843 535.717C439.122 535.515 462.637 527.381 480.547 509.017Q481.305 508.241 482.044 507.447Q482.783 506.653 483.502 505.841Q484.221 505.028 484.92 504.199Q485.618 503.369 486.296 502.522Q486.974 501.675 487.631 500.812Q488.288 499.949 488.923 499.07Q489.559 498.19 490.172 497.296Q490.786 496.401 491.377 495.492Q491.968 494.582 492.536 493.658Q493.105 492.734 493.65 491.797Q494.196 490.859 494.718 489.908Q495.24 488.957 495.738 487.994Q496.237 487.03 496.711 486.055Q497.186 485.079 497.636 484.093Q498.086 483.106 498.512 482.108Q498.937 481.11 499.338 480.102Q499.739 479.094 500.115 478.077Q500.491 477.059 500.842 476.033Q501.192 475.006 501.517 473.971Q501.842 472.936 502.142 471.894Q502.441 470.851 502.715 469.801Q502.989 468.752 503.236 467.696Q503.484 466.64 503.705 465.578Q503.927 464.516 504.122 463.449Q504.317 462.382 504.485 461.31Q504.654 460.238 504.796 459.163Q504.938 458.088 505.054 457.009Q505.169 455.93 505.258 454.849Q505.347 453.768 505.409 452.685Q505.471 451.602 505.506 450.518Q505.541 449.434 505.55 448.349Q505.558 447.265 505.54 446.18Q505.428 440.968 504.674 435.81Q503.919 430.652 502.534 425.626C499.921 416.003 490.353 393.17 483.434 386.48C466.278 369.892 439.975 362.178 416.546 362.577Q415.981 362.589 415.416 362.616Z"/>
	<path transform="matrix(0.703837 0 0 0.703837 0.000244141 0)" d="M383.963 436.291C387.15 436.262 389.971 436.578 393.014 437.514C395.633 452.569 405.162 456.722 407.403 466.77C412.243 469.631 417.268 472.049 422.355 474.427L422.337 483.722C419.355 484.139 416.459 484.446 413.447 484.505C407.005 484.041 401.186 482.911 395.327 480.07C386.68 475.877 379.214 468.606 376.08 459.382C373.545 451.916 374.42 444.272 377.846 437.273C379.874 436.858 381.914 436.576 383.963 436.291Z"/>
	<path transform="matrix(0.703837 0 0 0.703837 0.000244141 0)" d="M413.388 375.608C423.233 375.034 432.471 376.336 441.617 380.128C462.334 388.719 479.705 408.21 488.065 428.794C490.547 434.904 492.697 442.618 489.812 448.953C488.105 452.701 485.425 454.485 481.723 455.895C480.871 455.905 480.015 455.901 479.169 455.792C478.588 455.716 478.002 455.602 477.44 455.434C474.477 454.545 472.087 453.021 470.561 450.276C466.906 443.699 471.098 436.662 468.19 429.217C464.116 418.786 452.55 411.501 445.906 402.617C441.699 402.322 437.684 402.131 434.155 399.477C433.269 398.81 431.934 397.211 430.997 396.801C428.009 395.496 425.288 397.962 421.767 395.212C421.545 394.687 421.297 393.961 420.935 393.523C420.278 392.728 419.393 392.558 418.439 392.338C417.262 392.757 417.015 393.375 416.274 394.358C414.331 393.61 414.221 389.734 409.564 388.025C408.819 387.752 408.875 387.684 408.419 387.089C407.809 384.248 408.728 381.401 409.967 378.847C410.894 376.936 411.423 376.282 413.388 375.608Z"/>
</svg>
