<svg width="20" height="21" viewBox="0 0 20 21" fill="none" xmlns="http://www.w3.org/2000/svg">
<path d="M2.1875 19.9805C2.1875 19.9805 0.625 19.9805 0.625 18.418C0.625 16.8555 2.1875 12.168 10 12.168C17.8125 12.168 19.375 16.8555 19.375 18.418C19.375 19.9805 17.8125 19.9805 17.8125 19.9805H2.1875ZM10 10.6055C11.2432 10.6055 12.4355 10.1116 13.3146 9.23253C14.1936 8.35346 14.6875 7.16117 14.6875 5.91797C14.6875 4.67477 14.1936 3.48248 13.3146 2.60341C12.4355 1.72433 11.2432 1.23047 10 1.23047C8.7568 1.23047 7.56451 1.72433 6.68544 2.60341C5.80636 3.48248 5.3125 4.67477 5.3125 5.91797C5.3125 7.16117 5.80636 8.35346 6.68544 9.23253C7.56451 10.1116 8.7568 10.6055 10 10.6055Z" fill="black"/>
</svg>
