<svg width="22" height="18" viewBox="0 0 22 18" fill="none" xmlns="http://www.w3.org/2000/svg">
<path d="M1 1.29453C1.29539 0.555662 1.70712 0.275463 2.50091 0.275463C8.20346 0.275463 13.9049 0.274137 19.6051 0.271484C20.4126 0.271484 21.004 0.975678 21 1.65884C20.9775 5.7476 20.9775 9.83616 21 13.9245C21.0034 14.5594 20.4018 15.3034 19.6502 15.2687C19.3132 15.2534 18.9744 15.2687 18.6363 15.2687C18.3614 15.2687 18.3614 15.2687 18.4795 15.5063C18.5975 15.7438 18.719 15.9803 18.8359 16.219C19.032 16.6168 18.8359 16.934 18.3825 16.9345C17.1086 16.9376 15.835 16.9376 14.5618 16.9345H3.77486C3.6516 16.9435 3.52769 16.9358 3.40648 16.9118C3.11051 16.8311 2.9765 16.5708 3.10538 16.2934C3.23882 16.0053 3.38252 15.7217 3.53136 15.4409C3.60435 15.3028 3.57755 15.2613 3.42244 15.2647C3.08029 15.2715 2.733 15.2613 2.38857 15.2681C1.74703 15.2801 1.32048 14.9697 1.05703 14.4048L1 14.282V1.29453ZM10.9675 14.386H19.6068C20.038 14.386 20.1092 14.3167 20.1092 13.8955V2.19423C20.1092 1.96689 20.1092 1.73955 20.1092 1.51221C20.1092 1.31271 20.0106 1.19563 19.8127 1.16778C19.7293 1.15679 19.6453 1.15147 19.5612 1.15187C16.9088 1.15187 14.2565 1.15187 11.6045 1.15187H2.39827C1.95061 1.15187 1.86622 1.23712 1.86622 1.68555C1.86622 5.75461 1.86622 9.82347 1.86622 13.8921C1.86622 14.3156 1.93807 14.3849 2.3669 14.3849L10.9675 14.386ZM10.9897 16.057H17.5402C17.7655 16.057 17.7655 16.057 17.6628 15.8496C17.6024 15.7274 17.5311 15.6097 17.4832 15.483C17.4182 15.3125 17.3093 15.2636 17.1268 15.2636C13.163 15.2687 9.20026 15.2778 5.23528 15.2539C4.74829 15.2511 4.46088 15.3642 4.31318 15.8336C4.23962 16.0667 4.20939 16.057 4.45917 16.057H10.9897Z" fill="black" stroke="black" stroke-width="0.4"/>
<path d="M10.6042 10.582C10.6042 10.9941 10.6042 11.3999 10.6042 11.8057C10.6042 12.2115 10.4388 12.374 10.0339 12.3831C9.45491 12.391 8.87955 12.4761 8.32317 12.6361C7.85385 12.7742 7.61605 12.4843 7.61719 12.0933C7.62632 9.17079 7.62175 6.2483 7.62175 3.32581C7.62175 2.94729 7.80081 2.76712 8.1846 2.76541C8.80845 2.76314 9.43269 2.76314 10.0573 2.76541C10.3504 2.76541 10.493 2.86942 10.6048 3.14394C10.8454 3.7356 11.0872 4.32669 11.3358 4.9354C11.386 4.85469 11.366 4.7899 11.366 4.72908C11.366 4.25621 11.366 3.78334 11.366 3.30819C11.366 2.94217 11.5371 2.76712 11.9015 2.76484C12.5383 2.76068 13.1755 2.76068 13.813 2.76484C14.1654 2.76484 14.3462 2.96093 14.3462 3.31615C14.3462 5.86921 14.3462 8.42226 14.3462 10.9753V12.2013C14.3462 12.6559 14.0799 12.8719 13.6351 12.7509C13.2091 12.6372 12.7877 12.5019 12.3469 12.4502C12.1473 12.4269 11.9477 12.3934 11.747 12.3934C11.4932 12.3894 11.3335 12.2751 11.2406 12.045C11.0575 11.5948 10.8705 11.1458 10.6829 10.698C10.6709 10.6587 10.676 10.6036 10.6042 10.582ZM13.1259 11.6897C13.1283 11.6198 13.1103 11.5507 13.074 11.4908C12.62 10.3818 12.1654 9.27328 11.7099 8.16537C11.1176 6.72136 10.5253 5.27717 9.933 3.83279C9.8811 3.70491 9.82408 3.62875 9.6684 3.63784C9.4403 3.65034 9.21219 3.64068 8.98409 3.64068C8.72463 3.64068 8.72463 3.64068 8.82271 3.87825L10.3008 7.45094C10.8353 8.74414 11.3693 10.0373 11.9027 11.3305C11.95 11.4442 12.0013 11.5397 12.1444 11.5448C12.4723 11.5567 12.7883 11.6386 13.1259 11.6897ZM13.4406 10.0472L13.4703 10.0404V9.48452C13.4703 7.61273 13.4716 5.74114 13.4743 3.86973C13.4743 3.69411 13.4292 3.62704 13.2462 3.63727C12.9865 3.6512 12.7263 3.6512 12.4666 3.63727C12.2916 3.62875 12.246 3.69411 12.2477 3.86064C12.2539 4.82684 12.2562 5.79305 12.2477 6.75527C12.242 7.01986 12.2944 7.28249 12.4011 7.52483C12.6001 7.9744 12.7751 8.4342 12.9622 8.88888C13.1203 9.27574 13.2798 9.66185 13.4406 10.0472ZM8.53644 5.49239L8.50223 5.49636V8.79681C8.50223 9.69083 8.50223 10.5849 8.50223 11.4789C8.50223 11.6022 8.51934 11.6812 8.6733 11.6545C8.95387 11.6056 9.23557 11.5556 9.51899 11.5278C9.69007 11.5107 9.72827 11.4391 9.72656 11.28C9.71972 10.3598 9.72314 9.44019 9.72314 8.52002C9.72824 8.43589 9.71621 8.3516 9.68779 8.27222C9.30458 7.34693 8.92136 6.42051 8.53815 5.49295L8.53644 5.49239Z" fill="black" stroke="black" stroke-width="0.4"/>
</svg>
