<svg width="19" height="20" viewBox="0 0 19 20" fill="none" xmlns="http://www.w3.org/2000/svg">
<path d="M16.9643 0.0664062H2.03571C0.91183 0.0664062 0 0.978237 0 2.10212V17.0307C0 18.1546 0.91183 19.0664 2.03571 19.0664H16.9643C18.0882 19.0664 19 18.1546 19 17.0307V2.10212C19 0.978237 18.0882 0.0664062 16.9643 0.0664062ZM10.1786 12.2807H8.14286V14.3164C8.14286 14.6896 7.8375 14.995 7.46429 14.995H6.10714C5.73393 14.995 5.42857 14.6896 5.42857 14.3164V4.81641C5.42857 4.44319 5.73393 4.13784 6.10714 4.13784H10.1786C12.4221 4.13784 14.25 5.96574 14.25 8.20926C14.25 10.4528 12.4221 12.2807 10.1786 12.2807ZM10.1786 6.85212H8.14286V9.56641H10.1786C10.925 9.56641 11.5357 8.95569 11.5357 8.20926C11.5357 7.46283 10.925 6.85212 10.1786 6.85212Z" fill="black"/>
</svg>
