<?xml version="1.0" encoding="utf-8" ?>
<svg xmlns="http://www.w3.org/2000/svg" xmlns:xlink="http://www.w3.org/1999/xlink" width="512" height="512">
	<path d="M0 0L241.322 0L270.459 0L512 0L512 242.389L512 269.698L512 512L270.923 512L241.397 512L0 512L0 270.88L0 240.903L0 0ZM247.988 41.6096Q244.417 41.7297 240.852 41.9697Q237.287 42.2098 233.733 42.5694Q230.178 42.9291 226.637 43.408Q223.096 43.887 219.574 44.4846Q216.051 45.0822 212.551 45.7978Q209.05 46.5135 205.576 47.3464Q202.101 48.1792 198.657 49.1284Q195.212 50.0775 191.801 51.1419Q188.39 52.2062 185.017 53.3846Q181.644 54.5629 178.313 55.8539Q174.981 57.145 171.695 58.5472Q168.409 59.9494 165.171 61.4613Q161.934 62.9732 158.749 64.593Q155.565 66.2127 152.436 67.9386Q149.308 69.6645 146.239 71.4946Q143.17 73.3246 140.165 75.2567C133.088 79.7956 125.666 84.7279 119.507 90.4739C129.914 100.159 139.766 110.61 149.827 120.671L207.49 178.336L382.236 353.085C395.372 366.224 408.338 379.601 421.747 392.458C428.168 384.149 434.389 375.82 439.831 366.82Q440.997 364.892 442.122 362.94Q443.247 360.988 444.331 359.012Q445.414 357.037 446.456 355.039Q447.498 353.041 448.498 351.022Q449.497 349.003 450.454 346.963Q451.411 344.923 452.325 342.863Q453.238 340.804 454.108 338.725Q454.979 336.647 455.805 334.551Q456.631 332.455 457.413 330.342Q458.195 328.229 458.932 326.099Q459.669 323.97 460.362 321.826Q461.054 319.682 461.701 317.524Q462.348 315.365 462.949 313.194Q463.551 311.023 464.106 308.839Q464.662 306.656 465.172 304.461Q465.681 302.266 466.144 300.061Q466.607 297.856 467.024 295.642Q467.441 293.427 467.811 291.205Q468.181 288.982 468.504 286.752Q468.827 284.523 469.103 282.286Q469.379 280.05 469.608 277.809Q469.837 275.567 470.019 273.322Q470.201 271.076 470.335 268.827Q470.47 266.577 470.557 264.326Q470.644 262.075 470.683 259.822Q470.723 257.569 470.715 255.316Q470.707 253.063 470.652 250.81Q470.597 248.558 470.494 246.307Q470.392 244.056 470.242 241.808Q470.092 239.56 469.895 237.315Q469.697 235.071 469.453 232.831Q469.209 230.591 468.917 228.357Q468.576 225.741 468.171 223.135Q467.766 220.528 467.296 217.932Q466.827 215.336 466.294 212.753Q465.762 210.169 465.166 207.6Q464.57 205.03 463.911 202.476Q463.252 199.921 462.53 197.384Q461.808 194.847 461.025 192.328Q460.241 189.809 459.396 187.31Q458.55 184.812 457.644 182.334Q456.737 179.857 455.77 177.403Q454.803 174.949 453.776 172.519Q452.749 170.089 451.663 167.685Q450.576 165.281 449.431 162.905Q448.286 160.529 447.083 158.181Q445.88 155.834 444.619 153.516Q443.359 151.199 442.041 148.914Q440.724 146.628 439.352 144.375Q437.979 142.123 436.551 139.905Q435.123 137.687 433.642 135.504Q432.16 133.322 430.625 131.177Q429.09 129.031 427.503 126.924Q425.915 124.817 424.277 122.75Q422.638 120.683 420.95 118.656Q419.261 116.63 417.523 114.645Q415.785 112.661 413.999 110.72Q412.212 108.779 410.379 106.882Q408.545 104.986 406.666 103.135Q404.786 101.284 402.862 99.4793Q400.938 97.6751 398.97 95.9187Q397.002 94.1622 394.991 92.4547Q392.98 90.7471 390.928 89.0895Q388.876 87.4318 386.784 85.8251Q384.946 84.4034 383.078 83.0223Q381.21 81.6412 379.312 80.3013Q377.414 78.9614 375.487 77.6633Q373.56 76.3653 371.605 75.1097Q369.65 73.8541 367.669 72.6415Q365.687 71.429 363.679 70.2601Q361.671 69.0912 359.638 67.9665Q357.605 66.8419 355.548 65.7619Q353.491 64.682 351.411 63.6473Q349.331 62.6126 347.228 61.6237Q345.126 60.6348 343.002 59.6921Q340.879 58.7495 338.735 57.8534Q336.592 56.9575 334.429 56.1086Q332.266 55.2597 330.086 54.4583Q327.905 53.6569 325.707 52.9035Q323.509 52.15 321.296 51.4448Q319.082 50.7396 316.853 50.083Q314.625 49.4263 312.382 48.8186Q310.14 48.2109 307.885 47.6525Q305.629 47.094 303.363 46.5849Q301.096 46.0759 298.818 45.6166Q296.541 45.1573 294.254 44.7479Q291.967 44.3386 289.671 43.9793Q287.376 43.6201 285.073 43.3111Q282.771 43.0022 280.462 42.7437Q278.153 42.4852 275.839 42.2773Q273.525 42.0694 271.207 41.9122Q268.889 41.7549 266.568 41.6485Q264.247 41.542 261.924 41.4863Q259.602 41.4306 257.278 41.4257Q254.955 41.4209 252.632 41.4669Q250.309 41.5128 247.988 41.6096ZM90.0608 119.915Q88.3864 121.945 86.7625 124.017Q85.1385 126.088 83.5661 128.198Q81.9937 130.308 80.4737 132.457Q78.9538 134.605 77.4872 136.791Q76.0206 138.976 74.6082 141.197Q73.1959 143.418 71.8386 145.672Q70.4814 147.927 69.1801 150.215Q67.8788 152.502 66.6342 154.821Q65.3896 157.14 64.2026 159.489Q63.0155 161.838 61.8866 164.215Q60.7577 166.593 59.6877 168.997Q58.6177 171.402 57.6072 173.832Q56.5967 176.262 55.6464 178.716Q54.6961 181.17 53.8065 183.647Q52.9169 186.124 52.0886 188.622Q51.2602 191.12 50.4936 193.638Q49.7271 196.156 49.0227 198.692Q48.3184 201.227 47.6767 203.78Q47.035 206.332 46.4564 208.899Q45.8778 211.467 45.3625 214.048Q44.8473 216.629 44.3958 219.221Q43.9442 221.814 43.5567 224.417Q43.1692 227.02 42.8458 229.632Q42.5225 232.244 42.2636 234.863Q42.0047 237.482 41.8104 240.107Q41.616 242.732 41.4864 245.36Q41.3567 247.989 41.2919 250.62Q41.227 253.251 41.2269 255.883Q41.2268 258.514 41.2916 261.145Q41.3563 263.776 41.4858 266.405Q41.6153 269.034 41.8095 271.658Q42.0037 274.283 42.2625 276.902Q42.52 279.514 42.8413 282.119Q43.1625 284.724 43.5474 287.32Q43.9322 289.916 44.3804 292.502Q44.8285 295.088 45.3397 297.662Q45.851 300.237 46.4249 302.798Q46.9989 305.359 47.6353 307.905Q48.2717 310.451 48.9702 312.981Q49.6686 315.511 50.4286 318.023Q51.1887 320.535 52.0099 323.028Q52.8311 325.521 53.713 327.993Q54.5949 330.465 55.5369 332.915Q56.479 335.364 57.4806 337.79Q58.4822 340.216 59.5428 342.617Q60.6035 345.018 61.7224 347.392Q62.8414 349.766 64.018 352.112Q65.1947 354.458 66.4283 356.774Q67.6619 359.091 68.9518 361.377Q70.2417 363.662 71.587 365.916Q72.9324 368.169 74.3324 370.389Q75.7324 372.609 77.1863 374.795Q78.6401 376.98 80.1469 379.129Q81.6538 381.277 83.2126 383.389Q84.7715 385.5 86.3815 387.573Q87.9916 389.646 89.6518 391.679Q91.312 393.711 93.0213 395.703Q94.7307 397.695 96.4882 399.644Q98.2458 401.593 100.05 403.499Q101.855 405.404 103.706 407.265Q105.556 409.126 107.452 410.942Q109.348 412.757 111.287 414.525Q113.226 416.294 115.208 418.014Q117.191 419.735 119.214 421.406Q121.25 423.094 123.326 424.732Q125.403 426.37 127.52 427.955Q129.636 429.541 131.791 431.074Q133.946 432.607 136.139 434.087Q138.331 435.566 140.559 436.991Q142.787 438.415 145.05 439.785Q147.313 441.154 149.609 442.467Q151.905 443.78 154.232 445.035Q156.56 446.291 158.918 447.489Q161.275 448.687 163.662 449.826Q166.049 450.965 168.463 452.045Q170.877 453.125 173.317 454.145Q175.758 455.165 178.222 456.125Q180.687 457.084 183.174 457.982Q185.662 458.881 188.171 459.717Q190.68 460.554 193.208 461.328Q195.737 462.102 198.285 462.814Q200.832 463.525 203.396 464.174Q205.96 464.822 208.539 465.407Q211.118 465.992 213.711 466.513Q216.304 467.034 218.909 467.491Q221.514 467.947 224.13 468.34Q226.745 468.732 229.369 469.059Q231.994 469.387 234.625 469.65Q237.257 469.912 239.894 470.11Q242.532 470.307 245.173 470.439Q247.815 470.572 250.458 470.639Q253.102 470.706 255.747 470.707Q258.392 470.709 261.036 470.645Q263.68 470.582 266.321 470.453Q268.963 470.324 271.6 470.129Q274.238 469.935 276.87 469.676Q287.231 468.694 297.445 466.695Q307.658 464.696 317.625 461.7C321.925 460.431 326.454 459.089 330.58 457.339Q337.22 454.859 343.682 451.948Q350.145 449.036 356.401 445.706Q362.658 442.375 368.682 438.64Q374.706 434.905 380.471 430.782C384.486 427.937 388.85 424.886 392.449 421.527C385.901 415.615 379.811 409.049 373.57 402.804L338.752 367.967L174.413 203.623L119.564 148.774C110.306 139.516 101.216 130.002 91.7355 120.98C91.1194 120.393 90.8907 120.098 90.0608 119.915ZM512 269.698C511.976 269.781 511.951 269.863 511.928 269.946C511.281 272.327 511.227 275.044 511.012 277.502Q510.53 283.362 509.859 289.203C508.59 299.749 506.405 310.358 503.709 320.627Q502.912 323.65 502.042 326.652Q501.172 329.654 500.229 332.634Q499.286 335.615 498.271 338.571Q497.257 341.528 496.17 344.458Q495.084 347.389 493.926 350.293Q492.769 353.197 491.541 356.071Q490.314 358.946 489.017 361.79Q487.72 364.634 486.354 367.446Q484.988 370.257 483.554 373.035Q482.12 375.813 480.62 378.555Q479.119 381.297 477.552 384.001Q475.985 386.706 474.353 389.372Q472.72 392.038 471.024 394.663Q469.327 397.288 467.567 399.872Q465.808 402.455 463.985 404.995Q462.163 407.535 460.28 410.029Q458.397 412.524 456.453 414.973Q454.51 417.421 452.508 419.821Q450.506 422.222 448.446 424.573Q446.385 426.923 444.269 429.224Q442.152 431.524 439.981 433.772Q437.809 436.02 435.583 438.215Q433.357 440.41 431.079 442.549Q428.8 444.689 426.47 446.773Q424.141 448.857 421.761 450.884Q419.381 452.911 416.953 454.879Q414.525 456.847 412.049 458.756Q409.574 460.665 407.053 462.513Q404.532 464.361 401.966 466.147Q399.401 467.933 396.793 469.656Q394.185 471.38 391.536 473.039Q388.888 474.698 386.199 476.293Q381.305 479.208 376.285 481.901Q371.265 484.594 366.13 487.061Q360.996 489.528 355.756 491.763Q350.516 493.998 345.182 495.996Q339.847 497.995 334.429 499.754Q329.011 501.513 323.52 503.029Q318.028 504.544 312.475 505.813Q306.922 507.081 301.317 508.101C297.389 508.804 293.415 509.536 289.446 509.961C285.373 510.397 273.976 510.884 270.923 512L512 512L512 269.698ZM270.459 0C270.541 0.0248627 270.622 0.0512564 270.704 0.0745882C274.939 1.27934 282.407 1.20469 287.173 1.8264Q304.68 3.99337 321.722 8.54937Q324.783 9.37151 327.822 10.2687Q330.861 11.166 333.878 12.1377Q336.894 13.1095 339.885 14.1552Q342.877 15.2009 345.842 16.3199Q348.807 17.4389 351.743 18.6306Q354.68 19.8222 357.586 21.0858Q360.492 22.3493 363.366 23.684Q366.241 25.0188 369.081 26.4238Q371.922 27.8288 374.727 29.3034Q377.532 30.7779 380.3 32.321Q383.068 33.8642 385.797 35.475Q388.526 37.0858 391.215 38.7632Q393.903 40.4407 396.55 42.1838Q399.196 43.927 401.799 45.7347Q404.402 47.5425 406.96 49.4137Q409.517 51.285 412.028 53.2186Q414.539 55.1523 417.001 57.1471Q419.464 59.142 421.876 61.1968Q424.289 63.2517 426.65 65.3653Q429.011 67.4789 431.319 69.65Q433.628 71.8211 435.882 74.0483Q438.137 76.2756 440.336 78.5577Q442.534 80.8397 444.676 83.1752Q446.818 85.5107 448.902 87.8982Q450.986 90.2857 453.011 92.7237Q455.035 95.1618 456.999 97.649Q458.963 100.136 460.865 102.671Q462.767 105.206 464.606 107.786Q466.445 110.367 468.22 112.992Q469.995 115.618 471.705 118.286Q473.415 120.954 475.059 123.663Q476.703 126.373 478.279 129.122Q481.072 133.992 483.647 138.982Q486.222 143.971 488.574 149.069Q490.927 154.167 493.051 159.364Q495.176 164.561 497.069 169.847Q498.962 175.132 500.619 180.497Q502.277 185.861 503.696 191.293Q505.114 196.725 506.292 202.215Q507.469 207.705 508.403 213.241Q509.846 221.438 510.613 229.725C510.994 233.482 510.844 238.981 512 242.389L512 0L270.459 0ZM0 270.88L0 512L241.397 512C238.362 510.915 234.164 511.076 230.942 510.762C225.705 510.251 220.538 509.671 215.351 508.785C188.649 504.222 163.242 496.14 139.122 483.739Q136.194 482.228 133.306 480.642Q130.418 479.057 127.571 477.398Q124.724 475.739 121.921 474.008Q119.118 472.277 116.359 470.474Q113.601 468.672 110.89 466.8Q108.179 464.928 105.517 462.987Q102.854 461.046 100.243 459.037Q97.6307 457.029 95.0711 454.954Q92.5115 452.879 90.0058 450.74Q87.5001 448.601 85.0499 446.398Q82.5998 444.195 80.2068 441.93Q77.8138 439.665 75.4795 437.34Q73.1453 435.015 70.8712 432.631Q68.5972 430.246 66.3849 427.805Q64.1726 425.363 62.0235 422.866Q59.8744 420.369 57.7898 417.817Q55.7053 415.265 53.6867 412.661Q51.6681 410.057 49.7168 407.403Q47.7655 404.748 45.8828 402.044Q44 399.34 42.187 396.589Q40.3741 393.838 38.6321 391.041Q36.89 388.245 35.2201 385.404Q33.5503 382.564 31.9536 379.682Q30.3569 376.8 28.8344 373.878Q27.312 370.956 25.8648 367.996Q24.4176 365.036 23.0465 362.04Q21.6755 359.044 20.3816 356.014Q19.0877 352.984 17.8717 349.922Q16.6557 346.86 15.5184 343.767Q14.3811 340.675 13.3234 337.555Q12.2656 334.434 11.2879 331.288Q10.3103 328.141 9.41351 324.971Q4.83271 308.583 2.45723 291.733Q1.72705 286.427 1.26572 281.09C0.996461 277.999 1.06359 274.017 0.0726169 271.08C0.0498941 271.013 0.0242056 270.947 0 270.88ZM0 0L0 240.903C1.22165 237.978 1.3711 229.066 1.80989 225.323Q2.65082 218.366 3.86858 211.464Q4.79861 206.182 5.95069 200.943Q7.10277 195.705 8.47484 190.52Q9.84692 185.334 11.4365 180.212Q13.0262 175.089 14.8305 170.038Q16.6349 164.987 18.6507 160.017Q20.6666 155.046 22.8904 150.165Q25.1142 145.285 27.5419 140.502Q29.9696 135.719 32.597 131.043Q34.1531 128.264 35.7778 125.524Q37.4025 122.785 39.0946 120.086Q40.7868 117.388 42.5455 114.733Q44.3041 112.077 46.1282 109.466Q47.9522 106.855 49.8406 104.29Q51.7289 101.725 53.6803 99.2079Q55.6317 96.6906 57.645 94.2226Q59.6584 91.7546 61.7323 89.3373Q63.8063 86.92 65.9397 84.5549Q68.073 82.1899 70.2645 79.8786Q72.4559 77.5672 74.704 75.311Q76.9521 73.0548 79.2556 70.8551Q81.5591 68.6553 83.9165 66.5135Q86.2738 64.3717 88.6837 62.289Q91.0935 60.2064 93.5543 58.1842Q96.0151 56.1621 98.5253 54.2016Q101.036 52.2412 103.594 50.3437Q106.152 48.4462 108.756 46.6127Q111.361 44.7793 114.01 43.0112Q116.659 41.243 119.351 39.5411Q122.044 37.8393 124.777 36.2048Q127.511 34.5703 130.285 33.0042Q133.058 31.4381 135.869 29.9413Q138.681 28.4446 141.529 27.0181Q144.376 25.5916 147.259 24.2362Q150.141 22.8809 153.056 21.5975Q155.971 20.3141 158.917 19.1036Q161.863 17.893 164.838 16.7559Q167.814 15.6188 170.816 14.556Q173.819 13.4931 176.847 12.5052Q179.875 11.5172 182.926 10.6047Q185.978 9.69224 189.051 8.85581Q206.315 4.22508 224.039 1.91688C228.519 1.32207 237.416 1.16657 241.091 0.073651C241.169 0.0506478 241.245 0.0245503 241.322 0L0 0Z"/>
</svg>
