<svg width="17" height="17" viewBox="0 0 17 17" fill="none" xmlns="http://www.w3.org/2000/svg">
<path fill-rule="evenodd" clip-rule="evenodd" d="M1.48516 0.617386H15.6059C16.1155 0.617386 16.5286 1.03047 16.5286 1.54003V13.9069C16.5286 14.4164 16.1155 14.8295 15.6059 14.8295H14.6919L15.1839 16.3359H1.90711L2.39907 14.8295H1.48516C0.975584 14.8295 0.5625 14.4164 0.5625 13.9069V1.54003C0.5625 1.03047 0.975591 0.617386 1.48516 0.617386ZM15.786 1.54003C15.786 1.44076 15.7052 1.35999 15.6059 1.35999H1.48516C1.38588 1.35999 1.30511 1.44076 1.30511 1.54003V13.9069C1.30511 14.0061 1.38588 14.0869 1.48516 14.0869H15.6059C15.7052 14.0869 15.786 14.0061 15.786 13.9069V1.54003ZM3.18028 14.8295L2.93084 15.5933H14.1601L13.9107 14.8295H3.18028Z" fill="black"/>
<path fill-rule="evenodd" clip-rule="evenodd" d="M5.91888 3.80287V12.199C5.91888 12.3745 6.06112 12.5163 6.23615 12.5163H7.81177C7.98723 12.5163 8.12905 12.374 8.12905 12.199V10.1527L8.81652 12.1278C8.8398 12.1869 8.89441 12.2712 8.95881 12.3445C9.02147 12.4475 9.13478 12.5163 9.26414 12.5163H10.7601C10.8319 12.5163 10.8987 12.4951 10.9547 12.4587C11.1166 12.3758 11.2369 12.1798 11.1681 12.0041L11.1172 11.8619V3.70376C11.1172 3.5065 10.9573 3.34665 10.7601 3.34665H9.26414C9.06688 3.34665 8.90703 3.50657 8.90703 3.70376V5.6919L8.19767 3.7116C8.18688 3.68402 8.17709 3.6581 8.16792 3.6338C8.09088 3.42978 8.05708 3.34028 7.83109 3.34028L7.82638 3.34031L6.21757 3.34562C6.0007 3.3468 5.85245 3.58162 5.91888 3.80287ZM7.63127 3.96549L10.4664 11.8803H9.38561L6.6307 3.96549H7.63127ZM9.49016 7.31979L10.4984 10.1343V3.96549H9.52588V7.31979H9.49016ZM7.5238 8.41388L6.53772 5.58092V11.8975H7.5102V8.41388H7.5238Z" fill="black"/>
</svg>
