<svg width="15" height="16" viewBox="0 0 15 16" fill="none" xmlns="http://www.w3.org/2000/svg">
<path d="M3.875 13.0833C3.875 12.9728 3.91451 12.8668 3.98484 12.7887C4.05516 12.7106 4.15054 12.6667 4.25 12.6667H11.75C11.8495 12.6667 11.9448 12.7106 12.0152 12.7887C12.0855 12.8668 12.125 12.9728 12.125 13.0833C12.125 13.1938 12.0855 13.2998 12.0152 13.378C11.9448 13.4561 11.8495 13.5 11.75 13.5H4.25C4.15054 13.5 4.05516 13.4561 3.98484 13.378C3.91451 13.2998 3.875 13.1938 3.875 13.0833ZM12.4932 4.33333L12.5113 4.33417C12.6514 4.34477 12.7884 4.38522 12.9148 4.45333C13.0058 4.5004 13.0839 4.57344 13.1412 4.665C13.1915 4.74833 13.25 4.89583 13.25 5.16667V10.1592L13.2492 10.1792C13.2396 10.3349 13.2032 10.4871 13.142 10.6275C13.0996 10.7286 13.0339 10.8154 12.9515 10.8792C12.8765 10.935 12.7437 11 12.5 11H3.50675L3.48875 10.9992C3.34863 10.9885 3.21165 10.948 3.08525 10.88C2.99426 10.8329 2.91611 10.7599 2.85875 10.6683C2.8085 10.585 2.75 10.4375 2.75 10.1667V5.17417L2.75075 5.15417C2.76029 4.99846 2.7967 4.84625 2.858 4.70583C2.90039 4.60473 2.96612 4.5179 3.0485 4.45417C3.1235 4.39833 3.25625 4.33333 3.5 4.33333H12.4932ZM12.5 3.5H3.5C2 3.5 2 5.16667 2 5.16667V10.1667C2 11.8333 3.5 11.8333 3.5 11.8333H12.5C14 11.8333 14 10.1667 14 10.1667V5.16667C14 3.5 12.5 3.5 12.5 3.5Z" fill="#14202B"/>
</svg>
