<svg width="177" height="65" viewBox="0 0 177 65" fill="none" xmlns="http://www.w3.org/2000/svg">
<path d="M32.0917 0.00521943C48.7794 -0.279083 64.1258 13.4996 64.0457 32.1774C64.0371 36.4651 63.1659 40.7072 61.484 44.6512C59.8021 48.5953 57.3439 52.1606 54.2556 55.1349C51.1673 58.1092 47.5121 60.4318 43.5077 61.9643C39.5033 63.4968 35.2314 64.2079 30.9465 64.0554C13.6841 63.5268 -0.689201 49.0434 0.0255595 30.6378C0.692269 13.4375 15.1797 -0.307113 32.0917 0.00521943ZM31.0906 3.63508C15.8364 4.03951 2.80251 17.0714 3.73951 33.7151C4.59242 48.7731 17.4921 61.4085 34.0357 60.3114C41.3709 59.8102 48.2227 56.4723 53.1386 51.0051C58.0545 45.5379 60.6481 38.3712 60.3698 31.0242C59.7891 14.803 46.1486 3.02443 31.0906 3.64109V3.63508Z" fill="#1D3967"/>
<path d="M73.192 34.9848C73.1613 34.8268 73.1412 34.667 73.1319 34.5063C73.1319 30.1016 73.1019 25.6969 73.1419 21.3062C73.1619 18.9978 74.5754 17.6444 76.8599 17.6804C78.5537 17.7084 80.2815 17.6283 81.9293 17.9427C82.5474 18.0563 83.1338 18.302 83.6483 18.663C84.1628 19.0241 84.5932 19.4919 84.9103 20.0346C85.2274 20.5773 85.4235 21.1821 85.4854 21.8075C85.5473 22.433 85.4734 23.0645 85.2688 23.6588C84.9925 24.4596 84.3238 25.1123 83.7752 25.9192C83.7112 25.8251 83.7452 25.9412 83.8173 25.9712C85.7093 26.7721 86.42 28.2516 86.2899 30.2117C86.1598 32.1718 85.1827 33.6033 83.4169 34.4462C82.858 34.7398 82.2446 34.9149 81.6149 34.9608C78.82 35.0148 76.031 34.9848 73.192 34.9848ZM76.5696 32.0797C78.0551 32.0797 79.4186 32.1398 80.774 32.0637C82.1295 31.9876 82.8663 31.0887 82.8923 29.7452C82.9163 28.5439 82.2196 27.645 80.9482 27.4908C79.6938 27.3609 78.4333 27.3001 77.1722 27.3086C76.972 27.3086 76.6016 27.5989 76.5976 27.7651C76.5495 29.1846 76.5696 30.6081 76.5696 32.0797ZM76.5936 24.4616C77.921 24.4616 79.1483 24.5257 80.3656 24.4436C80.8226 24.4354 81.2587 24.2508 81.5826 23.9284C81.9065 23.6059 82.0932 23.1707 82.1034 22.7137C82.1655 21.6947 81.689 20.9579 80.6199 20.8057C79.4994 20.6708 78.3692 20.634 77.2423 20.6956C77.018 20.6956 76.6416 21.1561 76.6236 21.4264C76.5495 22.4114 76.5936 23.4065 76.5936 24.4616Z" fill="#1D3967"/>
<path d="M139.842 41.3452C142.085 42.7227 142.803 44.2363 142.245 46.5368C141.692 48.7912 139.878 50.3408 137.418 50.477C134.957 50.6131 132.494 50.5831 130.034 50.6512C129.457 50.6672 129.291 50.4409 129.293 49.8863C129.309 45.3535 129.279 40.8207 129.315 36.2879C129.329 34.504 130.729 33.1686 132.647 33.1165C134.21 33.06 135.775 33.1088 137.332 33.2627C140.407 33.601 142.313 36.4661 141.314 39.237C141.037 39.9978 140.365 40.6145 139.842 41.3452ZM132.635 47.7521C134.248 47.66 135.74 47.6279 137.215 47.4698C138.253 47.3597 138.853 46.5668 138.945 45.4676C139.041 44.2944 138.581 43.2933 137.556 43.1231C135.954 42.8569 134.304 42.8368 132.635 42.7087V47.7521ZM134.575 40.1039C135.263 40.0339 135.96 40.0038 136.641 39.8857C137.66 39.7095 138.16 39.0969 138.174 38.1198C138.188 37.0767 137.774 36.434 136.761 36.2779C135.748 36.1217 134.717 36.1697 133.696 36.1037C132.917 36.0516 132.613 36.4621 132.58 37.1668C132.568 37.4651 132.58 37.7674 132.58 38.0638C132.582 40.0479 132.582 40.0479 134.579 40.1079L134.575 40.1039Z" fill="#1D3967"/>
<path d="M162.995 50.6747C162.995 45.6474 162.959 40.8543 163.017 36.0592C163.035 34.4374 164.545 33.1581 166.365 33.118C167.894 33.0605 169.425 33.1053 170.948 33.2522C174.372 33.6366 176.173 36.842 174.81 39.7171C174.53 40.3177 173.925 40.7482 173.409 41.3188C173.39 41.2487 173.388 41.3488 173.423 41.3648C176.079 42.52 176.226 44.2479 175.985 46.1979C175.723 48.2702 174.43 49.6576 172.425 50.2022C169.368 51.0491 166.231 50.4965 162.995 50.6747ZM166.343 47.7576C167.879 47.6755 169.308 47.6655 170.72 47.5053C171.997 47.3592 172.598 46.5623 172.636 45.2449C172.672 44.0437 172.047 43.1167 170.85 42.9645C169.384 42.7763 167.893 42.7923 166.343 42.7162V47.7576ZM166.297 40.1495C167.797 40.0534 169.182 40.0334 170.547 39.8532C171.448 39.7351 171.877 39.0523 171.889 38.1374C171.901 37.2224 171.557 36.4376 170.58 36.3074C169.399 36.1683 168.21 36.1161 167.022 36.1513C166.777 36.1513 166.349 36.5717 166.331 36.822C166.251 37.8631 166.297 38.9182 166.297 40.1435V40.1495Z" fill="#1D3967"/>
<path d="M155.468 43.6618C155.524 43.2434 155.578 42.8249 155.642 42.3504H158.569C158.331 43.5517 158.151 44.753 157.845 45.9062C157.692 46.4888 157.74 46.8913 158.141 47.3498C159.017 48.3557 159.829 49.4163 160.571 50.5251C158.87 50.393 156.934 51.4741 155.72 49.2558C155.346 49.49 155.052 49.6882 154.745 49.8564C152.343 51.2119 149.9 51.318 147.538 49.8564C144.438 47.9424 144.334 43.5397 147.257 41.1652C147.564 40.9149 147.88 40.6767 148.284 40.3643C147.179 38.9288 146.482 37.3431 147.257 35.6333C147.664 34.7367 148.316 33.9732 149.137 33.4309C151.093 32.2297 153.832 32.8183 154.977 34.4981C156.463 36.6744 155.902 38.6705 153.031 41.0671L155.196 43.78L155.468 43.6618ZM153.85 47.0534L150.232 42.6347C148.935 43.2934 147.966 44.1183 148.002 45.6119C148.028 46.649 148.551 47.4919 149.554 47.8463C151.061 48.3688 152.467 48.0865 153.85 47.0534ZM150.122 37.4432C150.361 37.7215 150.723 38.4022 151.284 38.7226C151.758 38.9909 152.885 37.6655 152.875 36.9627C152.875 36.1278 152.213 35.4411 151.454 35.4631C150.695 35.4851 150.088 36.1679 150.122 37.4432Z" fill="#1D3967"/>
<path d="M115.576 29.8517C116.153 32.7148 118.91 33.4175 123.312 31.8538C123.312 32.8189 123.328 33.7218 123.292 34.6248C123.292 34.7509 123.04 34.9491 122.892 34.9792C120.005 35.5137 117.086 35.8641 114.533 34.0001C112.213 32.3143 111.83 29.8377 112.259 27.1929C112.643 24.8203 113.77 22.8663 116.191 22.1155C119.358 21.1344 123.224 22.0454 123.921 27.0527C124.043 27.9277 123.939 28.8326 123.939 29.8557H115.576V29.8517ZM120.668 27.1969C120.788 25.6632 119.847 24.5781 118.369 24.49C116.892 24.4019 115.728 25.5451 115.622 27.1969H120.668Z" fill="#1D3967"/>
<path d="M97.9373 22.1094H101.109V23.2146C101.109 25.5831 101.109 27.9536 101.109 30.3221C101.109 31.8858 101.86 32.6146 103.417 32.4664C104.132 32.3983 104.831 32.112 105.521 31.8818C106.088 31.6936 106.322 31.2951 106.304 30.6585C106.268 28.1558 106.288 25.6531 106.288 23.1505V22.1214H109.311V35.1072C108.252 34.8509 107.081 35.5657 106.074 34.5766C105.229 34.8109 104.288 35.1492 103.317 35.3254C100.612 35.818 98.1115 34.016 97.9794 31.2731C97.8172 28.2519 97.9373 25.2167 97.9373 22.1094Z" fill="#1D3967"/>
<path d="M82.1721 45.3099H77.0607C77.0607 46.6894 76.9846 48.0489 77.0867 49.3963C77.1648 50.4454 76.8024 50.7978 75.8053 50.6536C75.4513 50.6313 75.0962 50.6313 74.7422 50.6536V38.3465H77.0286V43.0195H82.1741V38.3125H84.3764C84.4203 38.5663 84.4504 38.8223 84.4665 39.0793C84.4665 42.6171 84.4345 46.1548 84.4926 49.6906C84.5106 50.6917 83.99 50.6456 83.3073 50.6596C82.5925 50.6737 82.09 50.6496 82.1481 49.6786C82.2342 48.2571 82.1721 46.8276 82.1721 45.3099Z" fill="#1D3967"/>
<path d="M89.5522 16.9297H92.6996V30.0256C92.6996 32.5023 93.6186 33.1369 95.931 32.262C96.1413 32.1819 96.3595 32.1319 96.7179 32.0258C96.7179 32.9087 96.7479 33.6975 96.6958 34.4824C96.6675 34.5994 96.6101 34.7074 96.5289 34.7963C96.4477 34.8852 96.3453 34.9521 96.2314 34.9909C94.8559 35.059 93.4083 35.3453 92.115 35.0289C90.1969 34.5604 89.6003 32.8266 89.5763 31.0247C89.5102 26.3697 89.5522 21.7048 89.5522 16.9297Z" fill="#1D3967"/>
<path d="M124.019 46.8744H118.067C118.375 48.9005 120.243 49.399 123.256 48.376C123.981 49.7534 123.635 50.5903 122.185 50.6744C121.029 50.7688 119.866 50.7109 118.725 50.5022C117.016 50.1358 115.998 48.9506 115.642 47.2167C115.378 45.8988 115.573 44.5303 116.195 43.3386C117.014 41.7009 118.705 40.9801 120.782 41.2884C122.213 41.5006 123.384 42.6739 123.725 44.3156C123.881 45.0885 123.911 45.8873 124.019 46.8744ZM121.498 44.9924C121.568 43.8551 120.984 43.1664 119.943 43.1204C118.846 43.0743 118.157 43.737 118.071 44.9924H121.498Z" fill="#1D3967"/>
<path d="M86.8906 45.2561C86.901 44.513 87.1201 43.7877 87.523 43.1632C87.9259 42.5387 88.4963 42.0401 89.1691 41.7243C90.7027 40.9615 92.3384 40.9595 93.814 41.9766C95.7681 43.32 96.2986 46.6035 94.9732 48.8279C93.852 50.7119 91.2673 51.3886 89.167 50.3014C87.4172 49.3845 86.8906 47.7988 86.8906 45.2561ZM93.4977 46.137C93.2974 45.4623 93.1913 44.7535 92.871 44.1649C92.1963 42.9156 90.7407 42.8235 89.8117 43.8946C88.8827 44.9658 88.9268 47.2302 89.8838 48.2453C90.7227 49.1342 92.1582 49.0681 92.7949 48.027C93.1253 47.4724 93.2514 46.8017 93.4977 46.127V46.137Z" fill="#1D3967"/>
<path d="M97.4276 41.4688H99.5999C99.5999 42.5739 99.5999 43.6551 99.5999 44.7382C99.5999 45.6372 99.5659 46.5401 99.646 47.4331C99.7361 48.4342 100.357 48.8646 101.37 48.7265C103.068 48.4922 103.304 48.2219 103.304 46.5241V41.4928H105.488V49.2811C105.488 50.5844 104.783 51.139 103.652 50.5404C103.076 50.2361 102.691 50.3502 102.195 50.5064C100.975 50.8868 99.692 51.063 98.701 50.126C98.1183 49.5754 97.5738 48.7245 97.4997 47.9516C97.3215 46.1377 97.4336 44.2918 97.4296 42.4598C97.4256 42.1635 97.4276 41.8692 97.4276 41.4688Z" fill="#1D3967"/>
<path d="M107.499 48.4337C108.482 48.6019 109.301 48.7761 110.117 48.8642C110.514 48.9151 110.917 48.8612 111.287 48.708C111.44 48.6313 111.575 48.5234 111.684 48.3914C111.793 48.2593 111.873 48.106 111.919 47.9412C111.953 47.741 111.621 47.3686 111.369 47.2464C110.714 46.9281 110.007 46.7159 109.329 46.4456C107.817 45.8289 107.15 44.7438 107.411 43.3543C107.645 42.099 108.78 41.2761 110.312 41.2701C111.322 41.1949 112.338 41.3313 113.293 41.6705V43.5625C112.706 43.4424 112.144 43.3022 111.573 43.2182C111.184 43.1374 110.784 43.1272 110.392 43.1881C110.081 43.2582 109.817 43.5325 109.533 43.7167C109.759 43.9369 109.949 44.2352 110.22 44.3574C110.856 44.6417 111.541 44.8159 112.186 45.0821C113.601 45.6608 114.188 46.5237 114.138 47.8851C114.092 49.1164 113.389 50.2036 112.011 50.4498C110.708 50.6821 109.325 50.5099 107.979 50.4498C107.811 50.4498 107.559 50.0694 107.519 49.8372C107.476 49.3706 107.469 48.9014 107.499 48.4337Z" fill="#1D3967"/>
<path d="M56.3089 30.3894C55.9525 31.2703 55.6182 32.0932 55.2818 32.9201H54.2467V41.0187H55.8044V44.2221C53.568 44.3262 51.3156 44.4223 49.0632 44.5364C44.5444 44.7747 40.0296 45.1251 35.5088 45.2432C31.6907 45.3453 27.8626 45.2332 24.0426 45.1271C21.1155 45.047 18.1923 44.8347 15.2692 44.6686C13.215 44.5504 11.1629 44.4103 9.08265 44.2782V41.2009L10.7664 41.0928V30.5736L8.17969 28.8357L12.8006 23.1276C14.7106 20.7751 16.6347 18.4246 18.5187 16.0501C18.9451 15.5115 19.3636 15.3414 20.0423 15.4875C22.8453 16.0882 25.6483 16.6548 28.4633 17.2094C28.9266 17.2827 29.3959 17.3115 29.8648 17.2954C33.1683 17.2954 36.4718 17.2514 39.7733 17.3275C40.7744 17.3495 41.7894 17.6358 42.7545 17.9281C43.7195 18.2204 44.6465 18.765 45.6215 19.1014C46.3243 19.3436 46.5825 19.7541 46.4564 20.4428C46.1801 21.9684 46.8568 22.9154 48.0761 23.8244C50.8751 25.9206 53.55 28.177 56.3089 30.3894ZM19.5518 19.1114C17.5977 21.4999 15.7477 23.7583 13.9018 26.0367C13.75 26.2513 13.6707 26.5088 13.6755 26.7715C13.6615 31.4045 13.6755 36.0394 13.6575 40.6723C13.6575 41.2229 13.8577 41.4371 14.4143 41.4612C16.6727 41.5553 18.9291 41.6754 21.1855 41.8035C23.542 41.9357 25.8985 42.0658 28.251 42.242C28.9618 42.296 29.184 42.0758 29.18 41.3671C29.156 37.1626 29.18 32.9581 29.142 28.7677C29.0963 28.324 28.8957 27.9107 28.5754 27.6004C27.4762 26.4872 26.321 25.4301 25.1718 24.361C23.3378 22.6291 21.4898 20.9173 19.5518 19.1114ZM31.9009 35.9753C31.9009 37.7772 31.9209 39.5792 31.9009 41.3811C31.9009 42.0218 32.0491 42.25 32.7558 42.1999C35.4407 41.9997 38.1316 41.8816 40.8204 41.7455C44.1119 41.5793 47.4034 41.4111 50.6949 41.285C51.3276 41.2609 51.4798 41.0287 51.4737 40.4461C51.4497 38.1096 51.4337 35.7751 51.4737 33.4386C51.4878 32.7239 51.2735 32.4596 50.5568 32.3675C44.5811 31.6027 38.6074 30.8125 32.6357 29.997C31.981 29.9069 31.8869 30.1411 31.8889 30.6717C31.9089 32.4396 31.9009 34.2074 31.9009 35.9753ZM39.6031 27.9207V20.4268C34.3856 20.0624 29.118 21.0274 23.9585 19.4517C24.0549 19.7777 24.2334 20.0735 24.477 20.3107C26.0527 21.7922 27.7145 23.1917 29.196 24.7614C30.5515 26.1969 31.987 27.1639 34.0572 27.228C35.8711 27.2841 37.6731 27.6665 39.6031 27.9207ZM44.6885 28.5855C44.6885 26.305 44.6885 24.1808 44.6885 22.0565C44.689 21.9759 44.6713 21.8962 44.6366 21.8233C44.6019 21.7505 44.5512 21.6865 44.4883 21.6361C43.5133 21.1936 42.5242 20.7852 41.4851 20.3447V28.179L44.6885 28.5855ZM50.1904 29.3443L50.3005 29.0399L46.4504 25.9627C46.4504 26.9838 46.4184 27.6705 46.4704 28.3532C46.4918 28.4685 46.5414 28.5768 46.6147 28.6683C46.6881 28.7599 46.783 28.8318 46.8909 28.8778C47.98 29.068 49.0872 29.1961 50.1904 29.3443Z" fill="#1D3967"/>
</svg>
