<?xml version="1.0" encoding="utf-8" ?>
<svg xmlns="http://www.w3.org/2000/svg" xmlns:xlink="http://www.w3.org/1999/xlink" width="200" height="203">
	<path fill="#ADAFAD" fill-opacity="0.94901961" transform="scale(0.39604 0.396484)" d="M12.6323 432.956C20.6754 432.245 29.7352 432.727 37.8892 432.708L84.2755 432.55L239.015 432.51L413.468 432.639L465.081 432.771L482.077 432.791C485.472 432.797 488.958 432.685 492.34 432.935Q304.228 434.544 116.107 434.198L12.6323 432.956Z"/>
	<path transform="scale(0.39604 0.396484)" d="M1.74193 234.77L503.905 234.721C503.663 242.734 503.828 250.829 503.884 258.85C503.917 263.686 504.234 268.651 503.499 273.443C503.476 273.472 503.455 273.505 503.429 273.531C502.616 274.338 500.276 274.03 499.148 274.026L160.198 273.989L55.8565 273.979L21.4963 273.981C14.9778 273.98 8.38919 274.163 1.87996 273.848C1.39145 267.638 1.86443 261.271 1.86029 255.039C1.85581 248.303 1.38823 241.493 1.74193 234.77Z"/>
	<path transform="scale(0.39604 0.396484)" d="M2.23444 393.028C8.11637 392.106 14.3525 392.5 20.2995 392.504L48.124 392.522L149.364 392.549L495.286 392.52C497.188 392.53 501.427 392.283 502.972 393.394C503.635 394.5 503.77 395.823 503.853 397.09C504.15 401.607 503.691 406.188 503.688 410.711C503.684 415.402 504.586 426.895 503.534 430.869C503.367 431.502 503.187 432.092 502.577 432.42C500.912 433.313 494.41 433.082 492.34 432.935C488.958 432.685 485.472 432.797 482.077 432.791L465.081 432.771L413.468 432.639L239.015 432.51L84.2755 432.55L37.8892 432.708C29.7352 432.727 20.6754 432.245 12.6323 432.956C8.98171 433.106 5.4522 433.028 1.85565 432.35C1.33336 425.896 1.82422 419.416 1.80879 412.947C1.79604 407.599 1.30499 402.16 1.57994 396.826Q1.6735 394.887 2.23444 393.028Z"/>
	<path transform="scale(0.39604 0.396484)" d="M7.08002 76.356C11.9641 76.1604 16.8847 76.2801 21.7744 76.2772L47.2193 76.2637L125.1 76.2505L360.139 76.2521L461.349 76.2493L485.583 76.2478C490.656 76.2483 497.98 75.6127 502.747 76.8836C502.988 77.1115 503.185 77.3272 503.323 77.6348C503.82 78.7431 503.905 80.1568 503.953 81.3632C504.142 86.0644 503.73 90.8145 503.741 95.5242C503.753 100.928 504.205 106.442 503.91 111.831C503.84 113.118 503.73 114.368 503.24 115.573C502.196 116.648 500.585 116.529 499.188 116.607C492.347 117.249 483.35 116.762 476.325 116.757L432.118 116.759L288.698 116.729L78.5394 116.725L30.7575 116.695C23.6102 116.693 8.19755 117.377 2.0865 115.791C1.44998 109.538 1.89587 103.09 1.86622 96.7987C1.8356 90.3038 1.02194 83.2809 2.15315 76.8785C3.77375 76.5299 5.43016 76.4664 7.08002 76.356Z"/>
</svg>
