<?xml version="1.0" encoding="utf-8" ?>
<svg xmlns="http://www.w3.org/2000/svg" xmlns:xlink="http://www.w3.org/1999/xlink" width="200" height="200">
	<path transform="scale(0.390625 0.390625)" d="M0 0L202.368 0L228.414 0L512 0L512 492.564L512 498.745L512 512L498.959 512L491.809 512L0 512L0 225.184L0 198.874L0 0ZM193.671 390.15C197.12 390.393 200.585 390.335 204.023 390.589C209.332 390.981 214.272 391.735 219.633 391.289C221.768 391.195 223.895 390.747 226.036 390.598C228.894 390.401 231.776 390.556 234.629 390.273C252.115 388.536 268.309 383.739 284.711 377.697C293.161 374.584 301.525 369.879 309.24 365.264C317.602 360.263 326.351 354.441 333.75 348.111C335.784 346.37 337.615 344.386 339.595 342.583C341.152 341.164 342.885 339.941 344.381 338.456C346.068 336.782 347.449 334.811 349.071 333.074C350.957 331.054 353.006 329.183 354.828 327.101C366.527 313.728 375.513 298.123 382.905 282.032C386.406 274.41 388.958 266.12 391.128 258.032Q392.029 254.798 392.803 251.532Q393.578 248.265 394.225 244.971Q394.872 241.677 395.391 238.361Q395.909 235.044 396.299 231.71Q396.688 228.376 396.948 225.029Q397.207 221.682 397.337 218.327Q397.466 214.973 397.465 211.616Q397.464 208.259 397.332 204.905Q397.201 201.55 396.939 198.204Q396.677 194.857 396.286 191.523Q395.894 188.189 395.374 184.873Q394.853 181.556 394.204 178.263Q393.555 174.969 392.778 171.703Q392.002 168.437 391.099 165.204Q390.196 161.971 389.168 158.775Q388.14 155.579 386.989 152.426Q385.78 149.056 384.438 145.738Q383.096 142.419 381.623 139.156Q380.149 135.893 378.547 132.692Q376.945 129.49 375.217 126.355Q373.489 123.22 371.637 120.157Q369.785 117.093 367.813 114.105Q365.84 111.118 363.75 108.211Q361.661 105.304 359.457 102.483Q357.253 99.6623 354.938 96.9313Q352.624 94.2003 350.202 91.5636Q347.781 88.927 345.256 86.3889Q342.731 83.8507 340.108 81.4152Q337.484 78.9797 334.765 76.6506Q332.046 74.3215 329.237 72.1026Q326.428 69.8836 323.532 67.7783Q320.637 65.6731 317.66 63.6848C308.618 57.6721 298.623 52.4636 288.761 47.9388C285.288 46.3453 281.569 45.2233 277.988 43.8905C264.186 38.7531 249.217 35.0796 234.517 33.7604C231.931 33.5283 229.331 33.5648 226.74 33.4193C223.054 33.2123 219.437 32.5605 215.725 32.5286C211.985 32.4965 208.428 33.1525 204.723 33.404C202.007 33.5884 199.276 33.4569 196.564 33.725C179.978 35.3648 164.066 39.6921 148.489 45.4567C143.906 47.1526 139.751 49.2394 135.342 51.3173Q133.545 52.1741 131.768 53.0703Q129.99 53.9665 128.233 54.9017Q126.476 55.8368 124.74 56.8105Q123.004 57.7841 121.289 58.7958Q119.575 59.8075 117.883 60.8567Q116.192 61.9059 114.524 62.9921Q112.856 64.0783 111.212 65.201Q109.568 66.3237 107.95 67.4824Q106.331 68.6411 104.738 69.8351Q103.146 71.0291 101.58 72.258Q100.014 73.4868 98.4751 74.7499Q96.9366 76.013 95.4263 77.3096Q93.916 78.6062 92.4346 79.9359Q90.9532 81.2655 89.5015 82.6274Q88.0498 83.9893 86.6284 85.3829Q85.2071 86.7765 83.8168 88.2011Q82.4265 89.6257 81.0679 91.0805Q79.7093 92.5354 78.3831 94.0199Q77.0569 95.5043 75.7638 97.0176Q74.4706 98.5309 73.2111 100.072Q71.9516 101.614 70.7264 103.183Q69.5012 104.751 68.3108 106.347Q67.1204 107.942 65.9655 109.564Q64.8106 111.185 63.6917 112.831Q62.5728 114.477 61.4904 116.148Q60.4081 117.819 59.3628 119.513Q58.3175 121.207 57.3098 122.923Q56.3021 124.64 55.3324 126.378Q54.3628 128.117 53.4317 129.876Q52.5006 131.636 51.6085 133.415Q50.7164 135.195 49.8637 136.993Q49.011 138.792 48.1982 140.609C46.6262 144.068 45.4424 147.687 44.183 151.267C43.1935 154.08 41.9729 156.832 41.0534 159.664C39.9731 162.99 39.2455 166.514 38.4013 169.909Q37.675 172.779 37.0468 175.672Q36.4186 178.565 35.8891 181.478Q35.3596 184.39 34.9295 187.319Q34.4993 190.248 34.1691 193.19Q33.8388 196.132 33.6087 199.084Q33.3787 202.035 33.2491 204.993Q33.1196 207.95 33.0907 210.91Q33.0618 213.871 33.1336 216.83Q33.2054 219.79 33.3778 222.745Q33.5502 225.701 33.823 228.648Q34.0957 231.596 34.4686 234.533Q34.8415 237.47 35.314 240.392Q35.7866 243.315 36.3582 246.22Q36.9299 249.124 37.5999 252.008Q38.27 254.891 39.0378 257.751Q39.8056 260.61 40.6701 263.441C42.2322 268.686 44.3535 273.947 46.2899 279.067C49.5192 287.606 54.2253 295.975 58.9757 303.748C82.1965 341.746 116.426 368.112 158.502 382.208Q170.046 386.02 182.009 388.181C183.856 388.502 192.451 389.462 193.477 390.015C193.546 390.053 193.606 390.105 193.671 390.15ZM0 225.184L0 512L491.809 512C489.949 510.721 487.562 510.357 485.719 508.954C481.616 505.83 477.986 501.691 474.331 498.046C467.007 490.74 459.781 483.286 452.32 476.121L379.846 405.41L361.522 387.14C358.175 383.802 354.852 380.032 351.094 377.159C346.009 380.017 341.778 383.947 336.919 387.095C323.825 395.577 311.288 402.442 296.776 408.272C293.615 409.542 290.439 410.938 287.205 412.006C269.705 417.788 251.406 421.898 233.014 423.435C228.016 423.853 222.793 423.598 217.761 423.64C211.484 423.692 204.994 423.889 198.736 423.46Q193.646 423.088 188.58 422.473Q183.514 421.858 178.483 421.001Q173.452 420.144 168.468 419.048Q163.484 417.951 158.558 416.617Q153.632 415.284 148.775 413.715Q143.919 412.147 139.143 410.349Q134.367 408.55 129.682 406.525Q124.998 404.5 120.416 402.253Q114.805 399.521 109.355 396.48Q103.905 393.439 98.634 390.099Q93.3626 386.758 88.2859 383.128Q83.2093 379.499 78.3433 375.591Q75.2052 373.043 72.1655 370.379Q69.1259 367.715 66.1889 364.937Q63.252 362.16 60.422 359.274Q57.592 356.388 54.873 353.397Q52.154 350.406 49.5499 347.315Q46.9457 344.223 44.4601 341.036Q41.9745 337.848 39.611 334.569Q37.2475 331.29 35.0095 327.924Q32.7715 324.558 30.6621 321.11Q28.5528 317.662 26.5751 314.137Q24.5974 310.611 22.7542 307.014Q20.911 303.417 19.2049 299.752Q17.4989 296.088 15.9324 292.362Q14.3658 288.635 12.9411 284.853Q11.5164 281.07 10.2355 277.236Q8.95454 273.402 7.81927 269.523Q4.00401 255.896 2.01864 241.885C1.39125 237.331 1.43903 229.264 0.0725145 225.377C0.0497921 225.312 0.0241715 225.249 0 225.184ZM228.414 0C228.485 0.0243754 228.556 0.0501692 228.628 0.0731261C232.732 1.38305 239.33 1.32198 243.74 1.84829C252.18 2.8555 260.87 4.34292 269.085 6.54878C297.407 14.1542 320.796 25.0048 344.399 42.4341C347.178 44.486 350.09 46.3787 352.758 48.5754C355.489 50.8235 357.987 53.3201 360.608 55.6901C363.044 57.8934 365.639 59.9147 367.969 62.2345C370.829 65.0816 373.385 68.1804 376.094 71.1642C377.844 73.0913 379.702 74.9298 381.389 76.912C389.964 86.9848 398.311 98.933 404.53 110.601C418.007 135.885 426.46 161.157 429.301 189.752C429.548 192.243 429.931 194.732 430.087 197.23C430.427 202.691 430.306 208.254 430.277 213.725Q430.31 221.179 429.791 228.615Q429.272 236.052 428.204 243.429Q427.135 250.806 425.523 258.084Q423.912 265.362 421.765 272.501C413.827 298.67 400.148 324.706 382.318 345.491C380.045 348.14 377.584 351.881 374.724 353.856C377.704 356.881 380.659 359.949 383.747 362.863C386.766 365.71 389.883 368.406 392.836 371.331L467.906 445.33L489.579 466.826C491.941 469.167 496.971 473.576 498.79 476.053C504.569 481.611 508.777 485.02 512 492.564L512 0L228.414 0ZM0 0L0 198.874C1.32849 195.897 1.34898 187.464 1.7718 183.878C2.22867 180.004 2.97145 176.118 3.63193 172.272C5.68404 160.322 9.6194 146.973 14.079 135.721C15.2724 132.71 16.6773 129.825 17.9763 126.864C19.4794 123.438 20.8911 120 22.6113 116.671Q23.7115 114.566 24.8572 112.486Q26.0028 110.406 27.1934 108.351Q28.3839 106.296 29.6188 104.267Q30.8537 102.239 32.1324 100.238Q33.4111 98.2363 34.7329 96.2632Q36.0547 94.2902 37.4191 92.3463Q38.7834 90.4025 40.1897 88.4887Q41.5959 86.5749 43.0434 84.6921Q44.4909 82.8093 45.9789 80.9584Q47.467 79.1075 48.9948 77.2894Q50.5227 75.4712 52.0897 73.6867Q53.6567 71.9021 55.2621 70.152Q56.8675 68.4019 58.5105 66.6871Q60.1535 64.9723 61.8333 63.2935Q63.5132 61.6148 65.2291 59.9729Q66.945 58.3311 68.6962 56.7269Q70.4474 55.1227 72.233 53.5569Q74.0186 51.9911 75.8377 50.4644Q77.6569 48.9378 79.5088 47.451Q81.3607 45.9642 83.2445 44.518Q85.1282 43.0717 87.043 41.6668Q88.9577 40.2618 90.9025 38.8987Q92.8472 37.5357 94.8211 36.2152Q96.7951 34.8947 98.7972 33.6173Q100.799 32.34 102.829 31.1065Q104.858 29.8729 106.914 28.6837Q108.97 27.4946 111.051 26.3503Q113.132 25.206 115.237 24.1073Q117.342 23.0085 119.471 21.9556Q121.6 20.9028 123.751 19.8965Q125.902 18.8902 128.075 17.9308Q130.247 16.9714 132.44 16.0594C141.39 12.3794 150.856 9.50318 160.18 6.94528Q172.965 3.51061 186.112 1.96069C190.048 1.48144 198.955 1.1501 202.167 0.0722731C202.235 0.049688 202.301 0.024091 202.368 0L0 0ZM512 498.745C511.098 500.775 510.36 503.153 509.145 505C507.004 507.831 504.874 509.364 501.637 510.746C500.769 511.117 499.703 511.417 498.959 512L512 512L512 498.745ZM498.79 476.053C498.823 476.383 498.799 476.944 498.908 477.24C499.369 478.493 506.964 485.425 508.549 487.833C509.5 489.278 508.887 490.745 509.611 492.136C510.003 492.302 510.374 492.441 510.786 492.548C512.036 497.524 508.885 500.306 509.145 505C510.36 503.153 511.098 500.775 512 498.745L512 492.564C508.777 485.02 504.569 481.611 498.79 476.053ZM193.671 390.15C194.036 390.829 194.133 391.054 194.89 391.268C200.414 392.826 213.052 392.181 218.855 391.783L219.633 391.289C214.272 391.735 209.332 390.981 204.023 390.589C200.585 390.335 197.12 390.393 193.671 390.15Z"/>
	<path transform="scale(0.390625 0.390625)" d="M193.671 390.15C197.12 390.393 200.585 390.335 204.023 390.589C209.332 390.981 214.272 391.735 219.633 391.289L218.855 391.783C213.052 392.181 200.414 392.826 194.89 391.268C194.133 391.054 194.036 390.829 193.671 390.15Z"/>
	<path transform="scale(0.390625 0.390625)" d="M498.79 476.053C504.569 481.611 508.777 485.02 512 492.564L512 498.745C511.098 500.775 510.36 503.153 509.145 505C508.885 500.306 512.036 497.524 510.786 492.548C510.374 492.441 510.003 492.302 509.611 492.136C508.887 490.745 509.5 489.278 508.549 487.833C506.964 485.425 499.369 478.493 498.908 477.24C498.799 476.944 498.823 476.383 498.79 476.053Z"/>
</svg>
