<svg width="15" height="16" viewBox="0 0 15 16" fill="none" xmlns="http://www.w3.org/2000/svg">
<path d="M9.71889 8.5C9.5636 8.5 9.43778 8.36427 9.43778 8.19676C9.43778 7.04422 8.56845 6.10647 7.5 6.10647C6.43155 6.10647 5.56222 7.04422 5.56222 8.19676C5.56222 8.36427 5.4364 8.5 5.28111 8.5C5.12583 8.5 5 8.36427 5 8.19676C5 6.70979 6.12152 5.5 7.5 5.5C8.87848 5.5 10 6.70979 10 8.19676C10 8.36427 9.87418 8.5 9.71889 8.5Z" fill="#14202B"/>
<path d="M1.24355 8.5C1.10989 8.5 1.00104 8.31166 1.00001 8.07776C0.999056 7.84275 1.10727 7.65095 1.24173 7.64915L12.7546 7.5H12.7564C12.8901 7.5 12.999 7.68834 13 7.92224C13.0009 8.15725 12.8927 8.34905 12.7583 8.35085L1.24538 8.5H1.24355Z" fill="#14202B"/>
<path d="M5.73944 10.5H1.26055C1.11662 10.5 1 10.2762 1 10C1 9.7238 1.11662 9.5 1.26055 9.5H5.73944C5.88338 9.5 6 9.7238 6 10C6 10.2762 5.88338 10.5 5.73944 10.5Z" fill="#14202B"/>
<path d="M8.75946 10.5H7.24054C7.10767 10.5 7 10.2762 7 10C7 9.7238 7.10767 9.5 7.24054 9.5H8.75946C8.89233 9.5 9 9.7238 9 10C9 10.2762 8.89233 10.5 8.75946 10.5Z" fill="#14202B"/>
<path d="M13.7296 10.5H9.27044C9.12105 10.5 9 10.2762 9 10C9 9.7238 9.12105 9.5 9.27044 9.5H13.7296C13.879 9.5 14 9.7238 14 10C14 10.2762 13.879 10.5 13.7296 10.5Z" fill="#14202B"/>
<path d="M4.70205 11.5H2.29795C2.13336 11.5 2 11.2762 2 11C2 10.7238 2.13336 10.5 2.29795 10.5H4.70205C4.86664 10.5 5 10.7238 5 11C5 11.2762 4.86664 11.5 4.70205 11.5Z" fill="#14202B"/>
<path d="M6.74887 11.5H5.25113C5.11241 11.5 5 11.2762 5 11C5 10.7238 5.11241 10.5 5.25113 10.5H6.74887C6.88759 10.5 7 10.7238 7 11C7 11.2762 6.88759 11.5 6.74887 11.5Z" fill="#14202B"/>
<path d="M11.7128 11.5H8.2872C8.12855 11.5 8 11.2762 8 11C8 10.7238 8.12855 10.5 8.2872 10.5H11.7128C11.8714 10.5 12 10.7238 12 11C12 11.2762 11.8714 11.5 11.7128 11.5Z" fill="#14202B"/>
<path d="M5.72145 12.5H3.27855C3.12468 12.5 3 12.2762 3 12C3 11.7238 3.12468 11.5 3.27855 11.5H5.72145C5.87532 11.5 6 11.7238 6 12C6 12.2762 5.87532 12.5 5.72145 12.5Z" fill="#14202B"/>
<path d="M8.75356 12.5H6.24644C6.1103 12.5 6 12.2762 6 12C6 11.7238 6.1103 11.5 6.24644 11.5H8.75356C8.8897 11.5 9 11.7238 9 12C9 12.2762 8.8897 12.5 8.75356 12.5Z" fill="#14202B"/>
<path d="M12.7732 12.5H10.2268C10.1015 12.5 10 12.2762 10 12C10 11.7238 10.1015 11.5 10.2268 11.5H12.7732C12.8985 11.5 13 11.7238 13 12C13 12.2762 12.8985 12.5 12.7732 12.5Z" fill="#14202B"/>
<path d="M7.5 5.5C7.2238 5.5 7 5.37048 7 5.21063V3.78937C7 3.62952 7.2238 3.5 7.5 3.5C7.7762 3.5 8 3.62952 8 3.78937V5.21063C8 5.37048 7.7762 5.5 7.5 5.5Z" fill="#14202B"/>
<path d="M9.25904 5.5C9.22632 5.5 9.19318 5.49264 9.16105 5.47712C9.02858 5.41327 8.96516 5.23485 9.01939 5.0787L9.50114 3.68988C9.55528 3.53354 9.70673 3.45904 9.83895 3.52279C9.97142 3.58665 10.0348 3.76507 9.98061 3.92122L9.49886 5.31003C9.45788 5.42839 9.36107 5.5 9.25904 5.5Z" fill="#14202B"/>
<path d="M9.17853 5.5C9.13054 5.5 9.08273 5.47981 9.04752 5.43993C8.98054 5.36406 8.9849 5.24549 9.05723 5.17516L9.70028 4.54989C9.77267 4.47957 9.88549 4.48414 9.95248 4.56008C10.0195 4.63595 10.0151 4.75452 9.94277 4.82484L9.29972 5.45011C9.26538 5.48347 9.22187 5.5 9.17853 5.5H9.17853Z" fill="#14202B"/>
<path d="M10.3052 7.5C10.1844 7.5 10.07 7.43819 10.0221 7.33646C9.95927 7.20282 10.0349 7.05083 10.1912 6.99708L11.581 6.51888C11.7373 6.46522 11.9149 6.52983 11.9779 6.66348C12.0407 6.79713 11.9651 6.94911 11.8088 7.00286L10.419 7.48107C10.3817 7.49389 10.3431 7.5 10.3052 7.5Z" fill="#14202B"/>
<path d="M6.74094 5.5C6.63889 5.5 6.54208 5.4284 6.50109 5.31005L6.01938 3.92134C5.96515 3.76521 6.02865 3.58679 6.16106 3.52295C6.29372 3.4588 6.44485 3.53379 6.4989 3.69002L6.98062 5.07873C7.03485 5.23487 6.97135 5.41328 6.83894 5.47713C6.80681 5.49264 6.77358 5.5 6.74094 5.5Z" fill="#14202B"/>
<path d="M4.82148 5.5C4.77809 5.5 4.73463 5.48347 4.7003 5.45011L4.05722 4.82484C3.9849 4.75451 3.98054 4.63595 4.04752 4.56007C4.11439 4.48408 4.22738 4.47963 4.2997 4.54989L4.94278 5.17516C5.0151 5.24549 5.01946 5.36405 4.95248 5.43993C4.91733 5.47981 4.86946 5.5 4.82148 5.5H4.82148Z" fill="#14202B"/>
<path d="M4.6948 7.5C4.65687 7.5 4.61834 7.49388 4.58101 7.48107L3.19122 7.00284C3.03493 6.94909 2.95927 6.79709 3.02212 6.66344C3.08507 6.52987 3.2628 6.46526 3.41899 6.51883L4.80878 6.99706C4.96507 7.05081 5.04073 7.20281 4.97788 7.33646C4.93002 7.43818 4.81564 7.5 4.6948 7.5Z" fill="#14202B"/>
</svg>
