<svg width="15" height="15" viewBox="0 0 15 15" fill="none" xmlns="http://www.w3.org/2000/svg">
<path d="M7.5 13C4.46731 13 2 10.5327 2 7.50002C2 4.46732 4.46731 2 7.5 2C10.5327 2 13 4.46732 13 7.50002C13 10.5327 10.5327 13 7.5 13V13ZM7.5 2.49251C4.73886 2.49251 2.49252 4.73886 2.49252 7.50001C2.49252 10.2612 4.73886 12.5075 7.5 12.5075C10.2611 12.5075 12.5075 10.2611 12.5075 7.50001C12.5075 4.7389 10.2611 2.49252 7.5 2.49252V2.49251Z" fill="#14202B"/>
<path d="M7.92602 4C7.64036 3.86134 7.33884 3.83804 7.0496 3.93113L7 3.06394C7.33019 2.95746 7.67386 2.98417 8 3.14264L7.92602 4H7.92602Z" fill="#14202B"/>
<path d="M4.82052 11C3.69758 10.3071 3 8.9044 3 7.33914C3 6.0125 3.5186 4.76421 4.38721 4L4.62063 4.41504C3.85989 5.08435 3.40571 6.17749 3.40571 7.33914C3.40571 8.70976 4.01662 9.93812 5 10.5449L4.82052 11V11Z" fill="#14202B"/>
<path d="M6.90593 12C6.59906 12 6.29426 11.9342 6 11.8044L6.1124 11.0809C6.6834 11.3327 7.30215 11.3047 7.86405 11L8 11.712C7.64759 11.9031 7.27947 12 6.90593 12L6.90593 12Z" fill="#14202B"/>
<path d="M9.24035 11L9 10.5957C9.96499 9.98214 10.5411 8.91732 10.5411 7.74737C10.5411 6.83167 10.19 5.97734 9.55237 5.34173L9.87084 5C10.599 5.72591 11 6.70159 11 7.74737C11 9.08348 10.3422 10.2994 9.24035 11Z" fill="#14202B"/>
<path d="M9.52672 12C9.4485 12 9.33645 11.9806 9.23303 11.8919C8.76753 11.4926 8.85057 9.80377 8.99669 7.80278C9.03187 7.32108 9.06811 6.82467 9.05621 6.65869C8.51133 6.39429 8 6.05988 8 5.30629C8 4.3762 8.48637 3 9.53029 3C10.4849 3 11 4.1369 11 5.20658C11 6.0071 10.5097 6.37006 10.0057 6.6094C9.99588 6.77442 10.0316 7.25314 10.0662 7.71778C10.2176 9.74832 10.3045 11.4633 9.83304 11.8835C9.72754 11.9776 9.61217 11.9987 9.53395 11.9999C9.53159 12 9.52918 12 9.52672 12V12ZM9.53028 3.32489C8.8804 3.32489 8.3948 4.37097 8.3948 5.30629C8.3948 5.92227 8.79827 6.1622 9.32575 6.41186C9.48059 6.48515 9.48363 6.55106 9.39081 7.82229C9.33573 8.57613 9.26725 9.51429 9.27765 10.2988C9.29457 11.5699 9.52103 11.6721 9.53067 11.6758C9.53544 11.6721 9.77096 11.5816 9.78966 10.2757C9.80118 9.46893 9.72966 8.50902 9.67217 7.73769C9.57862 6.48285 9.58108 6.43133 9.73824 6.36042C10.2586 6.1256 10.6052 5.83954 10.6052 5.20658C10.6052 4.30165 10.1942 3.32489 9.53028 3.32489H9.53028Z" fill="#14202B"/>
<path d="M6.0021 12C5.90472 12 5.8148 11.9615 5.74089 11.888C5.33009 11.4791 5.40539 9.83741 5.53676 7.89436C5.56845 7.42534 5.60117 6.94162 5.58929 6.79538C5.44925 6.66976 5 6.21654 5 5.57212C5 5.30991 5.08693 3.18543 5.12158 3.02655L5.4495 3.09613C5.42751 3.22463 5.33545 5.21661 5.33545 5.57212C5.33545 6.11339 5.76161 6.50437 5.83131 6.56466C5.9517 6.63505 5.95059 6.74569 5.87148 7.91639C5.79683 9.02077 5.64147 11.3188 5.97913 11.655C5.99379 11.6696 6.00002 11.6691 6.00411 11.6689C6.00743 11.6661 6.19092 11.5611 6.21074 10.3359C6.22298 9.57824 6.17208 8.67124 6.13113 7.94245C6.06418 6.75022 6.06344 6.62543 6.18097 6.55678C6.26569 6.48033 6.45991 6.28702 6.53444 6.13311C6.6509 5.89244 6.65713 5.64175 6.66085 5.49199L6.66134 5.47171C6.68935 4.40587 6.51933 3.05475 6.51761 3.04122L6.85044 3C6.85761 3.05621 7.02537 4.38966 6.99671 5.48031L6.99618 5.50007C6.99212 5.66473 6.98451 5.97127 6.83713 6.27578C6.73452 6.4878 6.51257 6.70435 6.42416 6.78573C6.4104 6.93285 6.43866 7.43621 6.4661 7.92414C6.6197 10.6594 6.59263 11.9669 6.02352 11.9994C6.01635 11.9998 6.00919 12 6.0021 12L6.0021 12Z" fill="#14202B"/>
<path d="M6.33764 3H6V6H6.33764V3Z" fill="#14202B"/>
</svg>
