<svg width="15" height="16" viewBox="0 0 15 16" fill="none" xmlns="http://www.w3.org/2000/svg">
<path d="M2.46236 12.5C2.34539 12.5001 2.24625 12.4637 2.163 12.391C2.05621 12.2978 1.99992 12.1691 2 12.0186C2.00081 11.2187 3.85018 9.54554 6.08436 7.60289C6.61344 7.14287 7.15889 6.66855 7.30991 6.4998C7.29305 6.22797 7.29672 5.40427 7.88127 4.80858C8.04182 4.64494 8.60837 4.0699 9.15659 3.53981C9.47314 3.23376 9.7295 2.99518 9.9184 2.83073C10.1957 2.58955 10.4348 2.38088 10.6375 2.5789C10.8351 2.77212 10.6435 3.00924 10.4009 3.30952C10.2415 3.50681 10.0124 3.77287 9.72005 4.10047C9.58971 4.24655 9.45742 4.39278 9.33181 4.53065C9.45172 4.42058 9.57798 4.30548 9.70441 4.19134C10.0406 3.88789 10.3134 3.64988 10.5153 3.4838C10.8338 3.22189 11.0639 3.03297 11.2596 3.22433C11.4689 3.42885 11.2689 3.66597 10.8307 4.18557C10.5473 4.52162 10.1753 4.93977 9.87636 5.27582C9.72159 5.44986 9.55354 5.63869 9.44251 5.76689C9.44675 5.77111 9.45115 5.77542 9.45554 5.77981C9.66213 5.5713 10.024 5.20843 10.3882 4.85393C10.7149 4.53592 10.9803 4.2862 11.1768 4.11175C11.4898 3.83391 11.7161 3.63288 11.9182 3.8305C11.9712 3.88228 12.0002 3.953 12 4.02965C11.9989 4.43854 10.4317 6.08578 9.89176 6.60741L9.87359 6.62498C9.71727 6.7765 9.42638 7.05865 9.001 7.20855C8.71264 7.31024 8.31341 7.30976 8.14528 7.30382C7.97438 7.44649 7.46607 7.996 6.97324 8.52893C4.52605 11.1748 3.16878 12.5 2.46237 12.5L2.46236 12.5ZM7.81243 6.50696C7.86864 6.70392 7.76079 6.80765 6.41313 7.97943C5.59129 8.69404 4.56849 9.58342 3.75944 10.3894C2.63286 11.5116 2.50839 11.8979 2.50008 12.0005C2.60948 11.9839 3.00618 11.8374 4.14099 10.7524C4.96006 9.96922 5.8724 8.98278 6.60546 8.19013C6.9616 7.80515 7.2691 7.47267 7.4989 7.2362C7.82222 6.90357 7.95858 6.77367 8.1228 6.80309C8.26796 6.81009 8.62687 6.81074 8.83426 6.73765C9.07465 6.65295 9.26412 6.50679 9.40211 6.38258L9.34631 6.35437C9.3178 6.33996 9.23221 6.26216 9.08955 6.12099C9.0353 6.06726 8.97853 6.01109 8.93234 5.96606C8.79027 5.8273 8.85145 5.6987 8.97918 5.54051C8.95563 5.56262 8.93226 5.58473 8.90896 5.60676L8.74083 5.76568L8.56903 5.61075C8.29704 5.36541 8.21713 5.286 8.19367 5.20649C7.76332 5.69268 7.80185 6.38494 7.81244 6.50696H7.81243Z" fill="#14202B"/>
<path d="M5.98036 8.5C5.61502 8.1381 5.45796 7.998 5.39238 7.94877C5.22844 7.93201 4.66901 7.86935 4.3628 7.76825C3.93146 7.6257 3.45196 7.40087 2.75458 6.37639C1.87773 5.08809 1.9021 3.79598 2.14699 3.57179L2.22429 3.50103L2.33938 3.5C2.49186 3.50159 2.62351 3.50302 5.76239 6.50799C6.09401 6.8255 6.44278 7.12331 6.79894 7.39301C6.86078 7.43994 6.92797 7.49132 7 7.54707L6.66737 7.92303C6.59669 7.86839 6.53086 7.81796 6.4703 7.77206C6.09859 7.49052 5.7347 7.17993 5.38899 6.84884C3.83972 5.36565 2.94018 4.54258 2.51649 4.18298C2.52371 4.59261 2.65996 5.32848 3.19493 6.11447C3.80353 7.00855 4.17686 7.1893 4.53659 7.30811C4.76457 7.38347 5.23787 7.44232 5.44836 7.46368C5.60933 7.44367 5.75856 7.56931 6.35987 8.16517L5.98035 8.49999L5.98036 8.5ZM2.54936 3.87278C2.54936 3.87278 2.54936 3.87287 2.54936 3.87278V3.87278Z" fill="#14202B"/>
<path d="M11.5064 13.5C10.8082 13.5 9.38021 12.125 7 9.5975L7.38673 9.24355C8.07671 9.97617 9.02156 10.9794 9.84907 11.7567C10.9569 12.7971 11.3562 12.955 11.4709 12.9768C11.4775 12.8773 11.4126 12.4929 10.4305 11.4175C9.55742 10.4614 8.38631 9.42492 7.76582 8.89222L8.11253 8.5C8.74195 9.04041 9.93111 10.0929 10.8229 11.0694C11.8818 12.2291 12.2067 12.9267 11.8763 13.3317C11.7906 13.4366 11.6689 13.4947 11.5244 13.4997C11.5185 13.4999 11.5125 13.5 11.5064 13.5H11.5064Z" fill="#14202B"/>
</svg>
