<svg width="15" height="16" viewBox="0 0 15 16" fill="none" xmlns="http://www.w3.org/2000/svg">
<path d="M7.5 13.5C4.46728 13.5 2 11.0327 2 8C2 4.96728 4.46728 2.5 7.5 2.5C10.5327 2.5 13 4.96728 13 8C13 11.0327 10.5327 13.5 7.5 13.5ZM7.5 3.0259C4.75728 3.0259 2.5259 5.25728 2.5259 8C2.5259 10.7427 4.75728 12.9741 7.5 12.9741C10.2427 12.9741 12.4741 10.7427 12.4741 8C12.4741 5.25728 10.2427 3.0259 7.5 3.0259Z" fill="#14202B"/>
<path d="M9.40221 5.98966C9.80065 6.3161 10 6.77253 10 7.35896C10 7.69642 9.92653 8.01184 9.77976 8.30497C9.63281 8.59826 9.39615 8.83612 9.06961 9.01871C8.74298 9.20122 8.33102 9.29255 7.83365 9.29255H6.87184V11.5H6V5.5H7.74376C8.45084 5.5 9.00359 5.66322 9.4022 5.98966H9.40221ZM8.59323 8.32985C8.78793 8.20828 8.92723 8.06014 9.01124 7.8859C9.09507 7.71165 9.13703 7.54147 9.13703 7.37549C9.13703 7.08795 9.03512 6.83193 8.83147 6.60785C8.62764 6.38385 8.31005 6.27177 7.87861 6.27177H6.87185V8.51244H7.83366C8.1452 8.51244 8.39844 8.45166 8.59323 8.32985Z" fill="#14202B"/>
</svg>
