<svg width="15" height="16" viewBox="0 0 15 16" fill="none" xmlns="http://www.w3.org/2000/svg">
<path d="M5.32627 6.5C4.68304 6.5 3.9531 6.22495 3.14798 5.67799C2.99889 5.57683 2.95566 5.38042 3.04955 5.23093L4.12199 3.52292C4.18156 3.42783 4.28643 3.36709 4.40235 3.3605C4.5167 3.35384 4.62801 3.40197 4.69839 3.48882C4.78914 3.6009 4.93568 3.73056 5.12273 3.71121C5.27908 3.69512 5.97915 3.42657 6.54169 3.21081C8.41041 2.49398 8.77204 2.39818 8.97625 2.57972C9.14151 2.68892 10.3386 3.18633 11.3022 3.58666C13.114 4.33945 13.6584 4.57508 13.7746 4.68617C13.9608 4.86413 14.1032 5.32873 13.9025 5.65168C13.7812 5.84695 13.513 6.04232 12.9218 5.90643C12.8242 6.02731 12.6869 6.11672 12.5251 6.16292C12.1988 6.25631 11.7755 6.17762 11.2661 5.9291C11.1433 6.0454 10.9448 6.176 10.6625 6.19296C10.2771 6.21559 9.8613 6.01685 9.42583 5.60067C9.3231 5.5025 8.98705 5.36409 8.76065 5.28891H8.75735C8.46345 5.28891 7.92113 5.4844 7.50983 5.65219C6.94168 5.88396 6.65472 6.04867 6.44515 6.16891C6.25835 6.2761 6.11083 6.36078 5.88616 6.42429C5.7077 6.47479 5.52098 6.49994 5.32626 6.49998L5.32627 6.5ZM3.55895 5.36115C4.4233 5.92383 5.15729 6.12509 5.74227 5.95983C5.90514 5.91374 6.01017 5.85347 6.18419 5.75361C6.40638 5.62615 6.71058 5.45155 7.31083 5.20665C8.25043 4.8233 8.62386 4.79452 8.82245 4.80639C9.09753 4.82243 9.2939 4.88657 9.45165 4.9381C9.63491 4.99798 9.75594 5.03733 9.95652 5.00086C10.2679 4.94405 10.5235 4.75952 10.5478 4.6789C10.5299 4.64397 10.4189 4.51127 9.73622 4.32807C8.88425 4.09961 7.92914 4.16202 6.89697 4.51359L6.72667 4.05731C7.85966 3.67136 8.91816 3.60544 9.87302 3.86161C10.4466 4.01552 11.0354 4.23022 11.0554 4.65595C11.0755 5.08728 10.4682 5.40069 10.0516 5.4767C10.0489 5.47717 10.0462 5.47769 10.0436 5.47816C10.2641 5.64031 10.4663 5.71939 10.6306 5.7095C10.7983 5.69944 10.906 5.59607 10.9553 5.53533C11.0609 5.4057 11.2481 5.36959 11.4005 5.44911C11.9706 5.74683 12.2589 5.73347 12.3799 5.69881C12.455 5.67737 12.5095 5.63688 12.5421 5.5785C12.6208 5.43783 12.7939 5.36849 12.9537 5.41319C13.2178 5.48747 13.4135 5.48499 13.465 5.40693C13.5288 5.3103 13.4694 5.09738 13.4209 5.03458C13.2377 4.91907 12.0544 4.42742 11.1001 4.03095C9.53556 3.3809 8.91617 3.11649 8.7014 2.9849C8.42542 3.01025 7.37113 3.41465 6.73046 3.66037C5.88269 3.98561 5.39251 4.17066 5.17701 4.1929C4.91496 4.21998 4.66232 4.13238 4.44879 3.94398L3.55895 5.36116L3.55895 5.36115ZM8.62806 2.93178C8.63103 2.93462 8.63408 2.9373 8.63706 2.93986C8.63384 2.9371 8.63078 2.93442 8.62806 2.93178ZM8.6279 2.93162C8.62798 2.9317 8.62798 2.93174 8.62806 2.93178C8.62798 2.93174 8.62798 2.9317 8.6279 2.93162ZM8.9812 2.58427C8.98284 2.58576 8.9845 2.58734 8.98614 2.58892C8.98466 2.5875 8.98309 2.58592 8.9812 2.58427Z" fill="#14202B"/>
<path d="M11.7298 13.5H4.27023C4.16057 13.5 4.06266 13.446 4.02067 13.3624C3.97876 13.2789 4.00171 13.1836 4.07926 13.1196L4.75118 12.5653C4.80217 12.5232 4.87008 12.5 4.94222 12.5H11.0578C11.1296 12.5 11.1996 12.5242 11.25 12.5663L11.9207 13.1196C11.9983 13.1836 12.0212 13.2789 11.9793 13.3624C11.9373 13.446 11.8394 13.5 11.7298 13.5H11.7298ZM4.78 13.103H11.22L10.9703 12.897H5.02964L4.78 13.103ZM10.9085 12.846C10.9091 12.8466 10.9098 12.8471 10.9104 12.8477L10.9085 12.846Z" fill="#14202B"/>
<path d="M10.7987 12.5H5.21481L5.17324 12.4809C5.08949 12.4422 5.02943 12.3607 5.00845 12.2573C4.96534 12.045 5.08392 11.8384 5.43951 11.3627C5.44547 11.3548 5.45112 11.3472 5.45646 11.3401C5.5029 9.76471 6.59544 8.5 7.9318 8.5C9.26343 8.5 10.353 9.75565 10.4067 11.3232C10.4171 11.3346 10.4286 11.347 10.4407 11.3603C10.8972 11.8566 11.0254 12.0329 10.996 12.2445C10.9818 12.3474 10.925 12.434 10.8444 12.4762L10.7987 12.5L10.7987 12.5ZM5.65144 11.9346H10.2627C10.2043 11.8694 10.1512 11.8115 10.1197 11.7774C9.97647 11.6215 9.9332 11.5745 9.9332 11.4445C9.9332 10.1326 9.03541 9.06535 7.9318 9.06535C6.82827 9.06535 5.93047 10.1326 5.93047 11.4445C5.93047 11.5571 5.89355 11.6065 5.79494 11.7383C5.74037 11.8113 5.69253 11.8768 5.65144 11.9346Z" fill="#14202B"/>
<path d="M7.99999 8.5H7.63952C7.63952 8.2244 7.54916 8.05572 7.5 8.05572C7.45083 8.05572 7.36048 8.2244 7.36048 8.5H7C7 7.93926 7.21961 7.5 7.5 7.5C7.78039 7.5 8 7.93926 8 8.5H7.99999Z" fill="#14202B"/>
<path d="M8 6.5H7V7.5H8V6.5Z" fill="#14202B"/>
<path d="M8.48126 6.5H8V7.5H8.48126V6.5Z" fill="#14202B"/>
<path d="M2.47802 5.5L1 5.35921L3.38234 2.5L4 3.4099L3.49889 3.63785L3.33252 3.39278L2.00781 4.98268L2.54428 5.03378L2.47802 5.5Z" fill="#14202B"/>
<path d="M12.7623 6.5L10.7416 5.30716L10.6957 5.38143L11.2299 6.04719L10.8431 6.48588L10 5.43501L10.5762 4.5L13 5.93076L12.7623 6.5Z" fill="#14202B"/>
</svg>
