<svg width="15" height="16" viewBox="0 0 15 16" fill="none" xmlns="http://www.w3.org/2000/svg">
<path d="M11 8.5H6L6.11887 8.21984C6.77232 6.67949 9.52996 6.51643 9.64702 6.51024L9.84141 6.5L11 8.5H11ZM6.81041 8.07224H10.1424L9.4947 6.95388C8.95666 7.01132 7.42805 7.2442 6.81041 8.07224Z" fill="#14202B"/>
<path d="M10.2059 10.5H1L1.01776 10.2463C1.02055 10.2062 1.09901 9.25265 2.19384 8.19263C3.61659 6.8151 6.01454 5.91674 9.32108 5.52243L9.50938 5.5L11 9.1886L10.2059 10.5V10.5ZM1.56299 10.0248H9.92596L10.4574 9.147L9.19268 6.01721C5.37636 6.50101 3.4889 7.62747 2.57553 8.49443C1.91449 9.12201 1.65952 9.70489 1.56298 10.0248H1.56299Z" fill="#14202B"/>
<path d="M0.243921 11.5C0.110252 11.5 0.00128371 11.3127 9.76088e-06 11.0797C-0.00118247 10.8456 0.106993 10.6539 0.241777 10.6517L9.75378 10.5H9.75608C9.88975 10.5 9.99872 10.6874 9.99999 10.9203C10.0012 11.1544 9.89301 11.3461 9.75822 11.3483L0.246224 11.5H0.243921Z" fill="#14202B"/>
<path d="M10.866 4.99994L10 5.5L10.5001 6.36599L11.3661 5.86593L10.866 4.99994Z" fill="#14202B"/>
<path d="M13.7622 8.5H13.7586C13.7026 8.49909 12.3813 8.46958 11.8568 7.69145C11.6236 7.34554 11.582 6.92031 11.7331 6.42759C11.9065 5.86212 11.9226 5.42603 11.7784 5.19957C11.6761 5.03911 11.5156 5.02579 11.5088 5.0253L11.484 5.02448L11.4638 5.01839C11.1006 4.92435 10.5611 5.35665 10.4005 5.51547C10.3043 5.61041 10.1537 5.60499 10.0642 5.50322C9.9745 5.40137 9.97938 5.2419 10.0752 5.14663C10.1567 5.06566 10.8838 4.36636 11.5562 4.52271C11.6541 4.53258 11.9555 4.58831 12.1638 4.9029C12.4076 5.27116 12.415 5.83663 12.1858 6.58377C12.0827 6.9199 12.1016 7.18591 12.2436 7.39709C12.5623 7.8709 13.4505 7.98935 13.7659 7.99494C13.8972 7.99733 14.0021 8.11208 14 8.2515C13.9979 8.38952 13.8919 8.5 13.7622 8.5L13.7622 8.5Z" fill="#14202B"/>
</svg>
