<svg width="15" height="16" viewBox="0 0 15 16" fill="none" xmlns="http://www.w3.org/2000/svg">
<path d="M11.5541 7.24032H11.0476V5.61322C11.0476 5.06757 10.6037 4.62364 10.0581 4.62364H4.94681C4.40116 4.62364 3.95723 5.06757 3.95723 5.61322V7.24032H3.45077V5.61322C3.45077 4.7883 4.12188 4.11719 4.94681 4.11719H10.0581C10.8829 4.11719 11.5541 4.7883 11.5541 5.61322V7.24032Z" fill="#14202B"/>
<path d="M3.01817 9.85701H2.51172V11.8828H3.01817V9.85701Z" fill="#14202B"/>
<path d="M12.4931 10.8699H2.51172V8.25414C2.51172 7.60203 3.04224 7.0715 3.69436 7.0715H11.3105C11.9626 7.0715 12.4931 7.60203 12.4931 8.25414L12.4931 10.8699ZM3.01817 10.3635H11.9867V8.25414C11.9867 7.88131 11.6833 7.57796 11.3105 7.57796H3.69436C3.32152 7.57796 3.01818 7.88131 3.01818 8.25414L3.01817 10.3635Z" fill="#14202B"/>
<path d="M12.4931 9.85701H11.9867V11.8828H12.4931V9.85701Z" fill="#14202B"/>
<path d="M5.30867 6.64948H6.39719C6.63255 6.64948 6.82363 6.84056 6.82363 7.07592V7.15593H4.88223V7.07592C4.88223 6.84056 5.0733 6.64948 5.30867 6.64948Z" fill="#14202B"/>
<path d="M7.07686 7.40914H4.62899V7.01854C4.62899 6.67538 4.90815 6.39623 5.25131 6.39623H6.45455C6.79771 6.39623 7.07686 6.67538 7.07686 7.01854V7.40914Z" fill="#14202B"/>
<path d="M8.60063 6.64948H9.68915C9.92451 6.64948 10.1156 6.84056 10.1156 7.07592V7.15593H8.17418V7.07592C8.17418 6.84056 8.36527 6.64948 8.60063 6.64948Z" fill="#14202B"/>
<path d="M10.3688 7.40914H7.92095V7.01854C7.92095 6.67538 8.2001 6.39623 8.54326 6.39623H9.74651C10.0897 6.39623 10.3688 6.67538 10.3688 7.01854V7.40914Z" fill="#14202B"/>
</svg>
