<?xml version="1.0" encoding="utf-8" ?>
<svg xmlns="http://www.w3.org/2000/svg" xmlns:xlink="http://www.w3.org/1999/xlink" width="512" height="512">
	<path d="M247.881 6.85638C260.114 6.26182 272.575 6.89086 284.738 8.25866C336.082 14.0329 382.493 35.652 421.155 69.6444Q423.384 71.6382 425.564 73.6857Q427.745 75.7331 429.874 77.8331Q432.004 79.933 434.081 82.0842Q436.159 84.2353 438.184 86.4364Q440.209 88.6376 442.18 90.8873Q444.15 93.1371 446.066 95.4342Q447.981 97.7313 449.84 100.074Q451.698 102.417 453.5 104.805Q455.301 107.193 457.043 109.623Q458.786 112.054 460.469 114.526Q462.152 116.999 463.774 119.512Q465.396 122.024 466.956 124.576Q468.517 127.127 470.015 129.716Q471.513 132.304 472.947 134.929Q474.381 137.553 475.752 140.212Q477.122 142.87 478.427 145.561Q479.732 148.252 480.971 150.975Q482.21 153.697 483.382 156.448Q484.555 159.199 485.66 161.979Q486.765 164.758 487.802 167.563Q488.839 170.368 489.807 173.198Q490.776 176.028 491.675 178.88Q492.574 181.732 493.404 184.606Q494.234 187.479 494.993 190.372Q495.752 193.265 496.441 196.175Q497.13 199.086 497.747 202.012Q498.365 204.938 498.911 207.879Q499.457 210.819 499.932 213.772Q500.406 216.725 500.809 219.689Q501.211 222.652 501.541 225.625Q501.872 228.598 502.129 231.577Q502.387 234.557 502.572 237.542Q502.76 240.571 502.873 243.603Q502.987 246.635 503.025 249.669Q503.063 252.704 503.026 255.738Q502.989 258.772 502.877 261.804Q502.765 264.837 502.578 267.865Q502.392 270.894 502.13 273.917Q501.868 276.94 501.531 279.956Q501.195 282.972 500.784 285.978Q500.373 288.984 499.887 291.98Q499.402 294.975 498.843 297.958Q498.283 300.94 497.651 303.908Q497.018 306.875 496.311 309.826Q495.605 312.778 494.826 315.71Q494.047 318.643 493.196 321.556Q492.345 324.468 491.422 327.359Q490.499 330.249 489.504 333.116Q488.51 335.983 487.445 338.825Q486.38 341.666 485.245 344.48Q484.11 347.294 482.906 350.08Q481.702 352.865 480.429 355.619Q479.156 358.374 477.816 361.096Q476.475 363.818 475.068 366.507Q473.66 369.195 472.187 371.848Q470.713 374.5 469.174 377.116Q467.636 379.731 466.033 382.307Q464.43 384.884 462.763 387.42Q461.097 389.956 459.369 392.45Q457.64 394.944 455.851 397.394Q454.061 399.845 452.211 402.25Q450.361 404.656 448.453 407.014Q446.544 409.373 444.578 411.684Q442.611 413.995 440.588 416.257Q438.947 418.099 437.27 419.908Q435.593 421.716 433.88 423.491Q432.167 425.266 430.419 427.006Q428.671 428.747 426.889 430.452Q425.106 432.157 423.29 433.826Q421.474 435.495 419.625 437.128Q417.776 438.761 415.895 440.356Q414.014 441.951 412.101 443.509Q410.189 445.067 408.245 446.586Q406.302 448.105 404.329 449.585Q402.355 451.065 400.353 452.505Q398.35 453.945 396.32 455.345Q394.289 456.745 392.23 458.105Q390.172 459.464 388.087 460.782Q386.002 462.1 383.891 463.376Q381.78 464.652 379.644 465.886Q377.508 467.119 375.348 468.31Q373.188 469.501 371.005 470.648Q368.821 471.796 366.615 472.899Q364.409 474.003 362.182 475.062Q359.954 476.122 357.706 477.136Q355.458 478.151 353.19 479.121Q350.921 480.091 348.635 481.015Q346.348 481.939 344.043 482.817Q341.738 483.696 339.416 484.528Q337.094 485.36 334.756 486.146Q332.417 486.932 330.064 487.671Q327.711 488.409 325.343 489.101Q322.975 489.793 320.594 490.438Q318.214 491.082 315.82 491.679Q313.427 492.275 311.022 492.824Q308.617 493.373 306.202 493.874C293.078 496.564 279.957 497.884 266.612 498.715Q263.633 498.823 260.651 498.859Q257.67 498.896 254.689 498.86Q251.708 498.824 248.728 498.716Q245.749 498.608 242.773 498.428Q239.797 498.249 236.826 497.997Q233.855 497.745 230.891 497.422Q227.928 497.098 224.972 496.704Q222.017 496.309 219.073 495.842Q216.128 495.376 213.195 494.839Q210.263 494.302 207.344 493.694Q204.425 493.086 201.522 492.408Q198.618 491.73 195.732 490.982Q192.846 490.234 189.979 489.416Q187.112 488.598 184.266 487.711Q181.419 486.825 178.595 485.87Q175.771 484.914 172.97 483.891Q170.17 482.868 167.395 481.777Q164.62 480.687 161.873 479.53Q159.125 478.372 156.406 477.149Q153.687 475.926 150.999 474.637Q148.31 473.349 145.654 471.995Q142.997 470.642 140.374 469.225Q137.751 467.808 135.162 466.328Q132.574 464.848 130.023 463.306Q127.471 461.764 124.957 460.161Q122.444 458.557 119.97 456.894Q117.495 455.23 115.062 453.508Q112.629 451.785 110.238 450.004Q107.847 448.223 105.5 446.384Q103.153 444.546 100.851 442.651Q98.5485 440.757 96.2928 438.807Q94.0372 436.858 91.8293 434.854Q89.6104 432.844 87.4411 430.78Q85.2719 428.716 83.1535 426.6Q81.0351 424.484 78.9688 422.317Q76.9026 420.15 74.8897 417.934Q72.8768 415.717 70.9185 413.452Q68.9601 411.187 67.0575 408.875Q65.1549 406.563 63.3091 404.206Q61.4634 401.848 59.6755 399.447Q57.8877 397.045 56.1589 394.6Q54.43 392.156 52.7612 389.67Q51.0924 387.184 49.4846 384.658Q47.8768 382.132 46.331 379.568Q44.7851 377.003 43.3022 374.402Q41.8192 371.801 40.4 369.165Q38.9808 366.528 37.6262 363.858Q36.2717 361.188 34.9825 358.486Q33.6933 355.783 32.4703 353.05Q31.2472 350.317 30.0911 347.555Q28.935 344.793 27.8464 342.004Q26.7579 339.215 25.7375 336.4Q24.7172 333.585 23.7657 330.746Q22.8142 327.907 21.9321 325.046Q21.05 322.184 20.2378 319.303Q19.4256 316.421 18.6838 313.52Q17.942 310.619 17.2711 307.701Q16.6001 304.783 16.0004 301.85Q15.4007 298.916 14.8725 295.969Q14.3444 293.022 13.8882 290.063Q13.4319 287.103 13.0479 284.134Q12.6638 281.164 12.3522 278.187Q12.0405 275.209 11.8014 272.224Q11.5623 269.24 11.396 266.25C7.77968 199.416 31.1259 136.203 75.677 86.5862Q77.3391 84.7716 79.0371 82.9906Q80.735 81.2096 82.4683 79.4628Q84.2015 77.716 85.9692 76.0043Q87.737 74.2925 89.5386 72.6163Q91.3402 70.9402 93.1749 69.3004Q95.0097 67.6606 96.8768 66.0577Q98.7439 64.4549 100.643 62.8897Q102.541 61.3244 104.471 59.7974Q106.401 58.2704 108.36 56.7823Q110.32 55.2942 112.309 53.8455Q114.298 52.3968 116.316 50.9881Q118.334 49.5794 120.379 48.2113Q122.424 46.8432 124.497 45.5162Q126.569 44.1892 128.667 42.9039Q130.766 41.6186 132.889 40.3754Q135.013 39.1323 137.161 37.9318Q139.309 36.7313 141.48 35.574Q143.652 34.4166 145.846 33.3029Q148.041 32.1892 150.257 31.1195Q152.473 30.0498 154.71 29.0246Q156.947 27.9994 159.204 27.0191Q161.461 26.0387 163.737 25.1037Q166.013 24.1686 168.307 23.2793Q170.602 22.3899 172.914 21.5465Q175.225 20.7031 177.553 19.906Q179.881 19.109 182.225 18.3586Q184.568 17.6082 186.926 16.9048Q189.285 16.2014 191.656 15.5452Q194.028 14.889 196.412 14.2803Q198.796 13.6716 201.192 13.1107Q203.588 12.5497 205.995 12.0368Q208.402 11.5238 210.818 11.059C223.113 8.69077 235.399 7.51936 247.881 6.85638ZM250.026 56.3557C242.962 56.7802 235.965 57.245 228.954 58.2771C195.896 63.144 162.63 76.3075 136.531 97.4489C140.927 101.211 144.935 105.682 149.028 109.786L171.051 131.803L242.576 203.324L264.119 224.879C267.346 228.108 270.807 232.215 274.387 234.972L274.793 235.014C278.887 235.422 283.135 235.204 287.249 235.2L308.56 235.187L378.396 235.193L396.971 235.179C400.789 235.168 404.844 234.895 408.626 235.454Q408.905 235.496 409.179 235.564Q409.453 235.632 409.719 235.726Q409.985 235.82 410.241 235.939Q410.497 236.058 410.74 236.201Q410.983 236.344 411.212 236.51Q411.44 236.675 411.652 236.862Q411.864 237.049 412.057 237.255Q412.25 237.461 412.422 237.684C413.222 238.726 413.448 240.168 413.56 241.442C414.102 247.619 413.559 254.712 413.573 260.987L413.619 275.041C413.625 277.983 413.851 281.138 413.351 284.036C413.05 285.775 412.309 287.068 410.789 288.048C409.683 288.761 408.493 288.909 407.209 288.999C403.747 289.243 400.213 289.102 396.74 289.096L379.072 289.079C362.125 289.096 345.155 289.284 328.21 289.029Q331.218 291.868 334.114 294.823L386.247 346.994L403.165 363.917C406.226 366.977 409.261 370.374 412.62 373.101C414.705 369.815 417.178 366.769 419.382 363.559Q425.375 354.825 430.369 345.483Q431.393 343.567 432.374 341.629Q433.355 339.691 434.293 337.732Q435.231 335.773 436.126 333.793Q437.021 331.814 437.872 329.815Q438.723 327.816 439.529 325.799Q440.336 323.782 441.098 321.748Q441.859 319.714 442.576 317.663Q443.293 315.613 443.965 313.547Q444.636 311.481 445.262 309.401Q445.887 307.32 446.467 305.227Q447.047 303.134 447.58 301.028Q448.114 298.922 448.6 296.805Q449.087 294.688 449.527 292.561Q449.967 290.433 450.36 288.297Q450.753 286.161 451.099 284.016Q451.444 281.871 451.743 279.72Q452.041 277.568 452.292 275.41Q452.543 273.253 452.746 271.09Q452.949 268.927 453.105 266.76Q453.26 264.594 453.368 262.424Q453.475 260.255 453.535 258.083Q453.595 255.912 453.607 253.739Q453.618 251.567 453.582 249.395Q453.546 247.223 453.462 245.053Q453.378 242.882 453.246 240.714Q453.114 238.545 452.935 236.381Q452.755 234.216 452.528 232.055Q452.3 229.895 452.026 227.74Q451.751 225.586 451.428 223.437Q451.106 221.289 450.736 219.149Q450.366 217.008 449.95 214.876Q449.533 212.744 449.069 210.622Q448.542 208.239 447.957 205.869Q447.371 203.5 446.727 201.146Q446.083 198.792 445.381 196.454Q444.679 194.116 443.92 191.797Q443.16 189.478 442.343 187.178Q441.526 184.878 440.652 182.599Q439.779 180.32 438.849 178.063Q437.919 175.806 436.934 173.573Q435.949 171.341 434.908 169.133Q433.868 166.925 432.773 164.743Q431.679 162.562 430.53 160.408Q429.382 158.255 428.181 156.13Q426.979 154.005 425.726 151.911Q424.472 149.817 423.167 147.755Q421.862 145.692 420.507 143.662Q419.151 141.633 417.745 139.638Q416.34 137.642 414.885 135.682Q413.431 133.722 411.928 131.799Q410.426 129.876 408.876 127.99Q407.326 126.104 405.731 124.258Q404.135 122.411 402.493 120.605Q400.852 118.798 399.167 117.033Q397.482 115.267 395.753 113.544Q394.024 111.821 392.254 110.141Q390.483 108.462 388.671 106.826Q386.86 105.191 385.008 103.601Q383.156 102.011 381.266 100.467Q379.375 98.9232 377.447 97.4268Q375.519 95.9303 373.555 94.4821Q371.59 93.0338 369.59 91.6347Q367.59 90.2355 365.556 88.8863Q363.523 87.5371 361.456 86.2386Q358.835 84.5818 356.161 83.0098Q353.488 81.4378 350.766 79.9523Q348.044 78.4668 345.276 77.0693Q342.507 75.6718 339.696 74.3638Q336.884 73.0557 334.032 71.8385Q331.18 70.6212 328.29 69.496Q325.4 68.3708 322.476 67.3387Q319.552 66.3067 316.596 65.3689Q313.64 64.4311 310.655 63.5885Q307.671 62.746 304.661 61.9995Q301.651 61.253 298.619 60.6033Q295.587 59.9537 292.535 59.4016Q289.484 58.8495 286.416 58.3954Q283.348 57.9414 280.268 57.5859Q277.187 57.2304 274.097 56.9738Q271.006 56.7172 267.909 56.5598C261.997 56.2487 255.94 55.9209 250.026 56.3557ZM101.488 132.393C96.2579 139.484 91.2477 146.618 86.8463 154.265Q85.8103 156.062 84.8123 157.88Q83.8143 159.698 82.8548 161.537Q81.8952 163.376 80.9745 165.234Q80.0538 167.093 79.1724 168.97Q78.2909 170.847 77.4492 172.743Q76.6074 174.639 75.8056 176.551Q75.0038 178.464 74.2425 180.393Q73.4811 182.323 72.7604 184.268Q72.0397 186.212 71.3601 188.172Q70.6805 190.131 70.0422 192.105Q69.4039 194.078 68.8072 196.065Q68.2105 198.051 67.6557 200.049Q67.1009 202.048 66.5882 204.058Q66.0755 206.067 65.6052 208.087Q65.1349 210.107 64.7071 212.137Q64.2794 214.166 63.8943 216.204Q63.5093 218.242 63.1672 220.288Q62.8251 222.334 62.5261 224.386Q62.227 226.438 61.9712 228.497Q61.7154 230.555 61.5028 232.618Q61.2903 234.681 61.1212 236.748Q60.9521 238.815 60.8265 240.886Q60.7008 242.956 60.6187 245.028Q60.5366 247.101 60.4981 249.174Q60.4596 251.248 60.4647 253.322Q60.4697 255.396 60.5184 257.47Q60.5671 259.543 60.6593 261.615Q60.7515 263.687 60.8873 265.757Q61.023 267.826 61.2023 269.893Q61.3815 271.959 61.6041 274.021Q61.8267 276.083 62.0926 278.14Q62.3585 280.197 62.6676 282.248Q63.0329 284.63 63.4564 287.003Q63.8799 289.375 64.3613 291.737Q64.8427 294.098 65.3817 296.447Q65.9208 298.796 66.5172 301.131Q67.1135 303.466 67.7669 305.786Q68.4202 308.105 69.1301 310.408Q69.84 312.711 70.6061 314.996Q71.3721 317.281 72.1938 319.547Q73.0156 321.813 73.8925 324.057Q74.7694 326.302 75.701 328.525Q76.6326 330.747 77.6183 332.947Q78.604 335.146 79.6432 337.32Q80.6824 339.495 81.7746 341.643Q82.8667 343.791 84.011 345.912Q85.1554 348.033 86.3513 350.126Q87.5472 352.218 88.794 354.28Q90.0408 356.343 91.3376 358.374Q92.6345 360.405 93.9807 362.404Q95.3268 364.403 96.7215 366.369Q98.1162 368.334 99.5586 370.265Q101.001 372.196 102.49 374.09Q103.979 375.985 105.514 377.843Q107.049 379.701 108.63 381.521Q110.21 383.34 111.834 385.121Q113.458 386.901 115.125 388.641Q116.792 390.382 118.502 392.081Q120.211 393.78 121.961 395.436Q123.712 397.093 125.502 398.706Q127.293 400.319 129.122 401.888Q130.951 403.457 132.819 404.981Q134.686 406.504 136.59 407.982Q138.493 409.459 140.433 410.89Q142.385 412.334 144.373 413.729Q146.361 415.124 148.382 416.47Q150.404 417.815 152.458 419.11Q154.512 420.405 156.598 421.649Q158.684 422.892 160.8 424.084Q162.916 425.276 165.06 426.414Q167.205 427.553 169.378 428.638Q171.55 429.724 173.748 430.755Q175.947 431.786 178.171 432.762Q180.394 433.739 182.641 434.659Q184.888 435.58 187.157 436.445Q189.426 437.31 191.716 438.119Q194.006 438.927 196.315 439.678Q198.624 440.43 200.951 441.124Q203.278 441.818 205.622 442.454Q207.966 443.09 210.324 443.668Q212.683 444.246 215.055 444.765Q217.427 445.284 219.812 445.744Q222.196 446.205 224.591 446.606Q226.986 447.007 229.39 447.348Q231.795 447.69 234.206 447.972Q236.618 448.253 239.037 448.475Q241.455 448.697 243.878 448.859Q246.301 449.021 248.727 449.123Q251.153 449.225 253.581 449.267Q256.009 449.309 258.438 449.29Q260.866 449.272 263.293 449.193Q265.72 449.114 268.144 448.976Q270.569 448.837 272.989 448.638Q275.409 448.439 277.824 448.181Q280.238 447.922 282.646 447.603Q285.053 447.285 287.452 446.907Q292.144 446.174 296.794 445.215Q301.445 444.256 306.043 443.072Q310.642 441.888 315.178 440.483Q319.714 439.077 324.176 437.454Q328.638 435.83 333.016 433.992Q337.395 432.153 341.679 430.105Q345.963 428.057 350.142 425.803Q354.322 423.549 358.387 421.095Q364.363 417.521 370.04 413.491C372.483 411.766 374.885 409.705 377.501 408.264C373.904 404.11 369.743 400.308 365.856 396.418L292.057 322.634L270.035 300.61C266.494 297.064 262.989 292.897 259.043 289.84C257.922 288.971 255.19 289.061 253.781 289.059L152.144 289.08L122.212 289.095C117.024 289.107 111.466 289.51 106.312 288.992C104.409 288.801 103.015 288.126 101.662 286.777C101.511 286.627 101.369 286.468 101.225 286.311C99.9877 281.811 100.447 276.794 100.447 272.152L100.454 256.436C100.458 251.381 99.9956 245.845 100.582 240.848C100.705 239.8 100.963 238.838 101.514 237.929C102.375 236.509 103.412 235.825 105.021 235.479C108.38 234.757 112.538 235.167 115.991 235.168L136.254 235.183L180.267 235.182C188.427 235.181 196.611 235.047 204.768 235.249C195.21 226.21 186.062 216.645 176.757 207.339L126.184 156.792L109.643 140.198C107.328 137.876 104.203 134.061 101.488 132.393ZM287.161 247.096L287.08 247.233L287.28 247.384L287.059 247.58C288.331 249.289 290.08 250.806 291.588 252.327L300.33 261.089L310.323 271.075C312.243 272.992 314.143 275.125 316.269 276.813C323.217 277.465 330.573 277.001 337.568 276.995C347.032 276.986 356.59 277.265 366.044 276.957C366.125 267.093 365.846 257.174 366.151 247.32C349.722 247.544 333.236 247.247 316.801 247.249L298.062 247.253C294.452 247.253 290.758 247.413 287.161 247.096ZM207.142 247.161L207.222 266.297C207.24 269.803 207.403 273.366 207.218 276.865C215.866 277.116 224.533 277.009 233.184 277.014C237.365 277.016 242.044 277.439 246.182 276.874C244.175 274.107 240.145 270.73 237.601 268.185L217.14 247.692C213.791 246.955 210.423 247.813 207.142 247.161Z"/>
	<path d="M269.045 109.803C270.258 109.734 271.473 109.871 272.596 110.352C274.113 111.002 275.26 112.382 275.673 113.975C276.498 117.157 276.051 121.279 276.045 124.577L276.011 147.456C276.006 152.003 275.731 156.784 276.283 161.301Q276.49 163.004 276.937 164.66Q277.384 166.316 278.062 167.891C282.445 178.185 292.34 184.791 303.253 186.271C309.068 187.059 315.183 186.702 321.051 186.697L345.091 186.668C351.335 186.661 357.632 186.302 363.542 188.694C369.297 191.022 374.044 195.366 376.412 201.151Q377.411 203.646 377.795 206.307C378.297 209.736 378.695 221.622 377.417 224.456C376.508 226.473 375.152 227.28 373.137 228.015C371.679 228.027 370.306 227.926 369.012 227.181C363.865 224.217 367.033 212.239 365.522 206.79C364.555 203.305 362.044 200.809 358.621 199.706C354.068 198.238 348.553 198.814 343.802 198.828L319.027 198.856C313.247 198.857 307.266 199.157 301.544 198.274Q299.467 197.973 297.426 197.487Q295.385 197.001 293.396 196.333Q291.406 195.666 289.485 194.822Q287.564 193.979 285.726 192.966C276.107 187.622 268.426 178.884 265.448 168.178C264.693 165.463 264.295 162.692 264.125 159.882C263.568 150.717 264.017 141.267 264.029 132.067C264.035 127.231 263.581 120.426 264.043 115.788C264.163 114.58 264.426 113.412 265.059 112.363C265.995 110.812 267.338 110.202 269.045 109.803Z"/>
	<path d="M304.855 107.808C306.027 107.842 307.115 107.908 308.191 108.418C309.741 109.152 310.762 110.59 311.211 112.218C311.841 114.501 311.595 117.15 311.583 119.501C311.554 125.212 310.747 140.976 312.246 145.275C313.418 148.632 316.132 150.972 319.498 151.969C323.996 153.302 329.504 152.706 334.167 152.683L357.178 152.675C363.829 152.671 370.63 152.368 377.212 153.454Q380.685 154.03 384.03 155.126Q387.375 156.223 390.515 157.814C400.365 162.79 408.335 171.362 411.717 181.959Q413.061 186.194 413.423 190.623C413.888 196.165 413.6 201.897 413.611 207.466C413.62 212.159 413.924 217.039 413.55 221.704C413.458 222.848 413.273 224.07 412.701 225.082C411.753 226.76 410.182 227.512 408.4 228.018C408.3 228.017 408.199 228.019 408.099 228.016C405.393 227.938 404.045 227.031 402.25 225.119C401.313 221.672 401.501 218.07 401.512 214.534C401.532 207.599 402.269 194.494 400.94 188.172C399.872 183.084 397.247 178.478 393.642 174.759Q392.874 173.976 392.055 173.247Q391.236 172.519 390.37 171.847Q389.504 171.175 388.594 170.563Q387.684 169.952 386.735 169.403Q385.785 168.854 384.801 168.371Q383.817 167.888 382.803 167.473Q381.788 167.057 380.748 166.711Q379.707 166.366 378.646 166.091C371.396 164.192 363.405 164.824 355.957 164.831L332.897 164.86C324.642 164.871 316.984 165.315 309.766 160.573C304.927 157.393 301.245 152.457 300.07 146.743C298.802 140.572 299.566 133.597 299.52 127.305C299.488 122.971 299.026 118.211 299.523 113.92C299.683 112.535 300.054 111.238 300.857 110.083C301.885 108.605 303.147 108.141 304.855 107.808Z"/>
</svg>
