<svg width="15" height="16" viewBox="0 0 15 16" fill="none" xmlns="http://www.w3.org/2000/svg">
<path d="M4.89382 7.54366C4.3642 7.54366 3.93329 7.11275 3.93329 6.58309C3.93329 6.05347 4.3642 5.62256 4.89382 5.62256C5.42348 5.62256 5.85439 6.05347 5.85439 6.58309C5.85439 7.11275 5.42348 7.54366 4.89382 7.54366ZM4.89382 6.12902C4.64344 6.12902 4.43975 6.33271 4.43975 6.58309C4.43975 6.83347 4.64344 7.0372 4.89382 7.0372C5.1442 7.0372 5.34793 6.83347 5.34793 6.58309C5.34793 6.33271 5.1442 6.12902 4.89382 6.12902Z" fill="#14202B"/>
<path d="M9.71722 7.54403C9.1876 7.54403 8.7567 7.11312 8.7567 6.58351C8.7567 6.05385 9.18761 5.62294 9.71722 5.62294C10.2469 5.62294 10.6778 6.05385 10.6778 6.58351C10.6778 7.11313 10.2469 7.54403 9.71722 7.54403ZM9.71722 6.12939C9.46684 6.12939 9.26315 6.33312 9.26315 6.5835C9.26315 6.83389 9.46684 7.03757 9.71722 7.03757C9.9676 7.03757 10.1713 6.83389 10.1713 6.5835C10.1713 6.33312 9.9676 6.12939 9.71722 6.12939Z" fill="#14202B"/>
<path d="M7.6175 2.94544L7.11104 2.94671L7.1366 13.1744L7.64305 13.1732L7.6175 2.94544Z" fill="#14202B"/>
<path fill-rule="evenodd" clip-rule="evenodd" d="M10.1551 3.09219C10.9807 3.19806 11.5834 3.64304 11.5834 4.19148C11.5834 4.44282 11.3352 4.44804 11.2018 4.45085C11.1159 4.45262 10.9931 4.45411 10.8459 4.4553C10.5535 4.45765 10.1638 4.45884 9.774 4.45884C9.38426 4.45884 8.99449 4.45764 8.70215 4.4553C8.55493 4.4541 8.43227 4.45262 8.34638 4.45085C8.21298 4.44804 7.96468 4.44282 7.96468 4.19148C7.96468 3.64281 8.56775 3.1977 9.39385 3.09207V2.82617H10.1551V3.09219ZM10.9554 3.94822C10.3652 3.95416 9.18305 3.95416 8.5926 3.94822C8.79575 3.74433 9.23576 3.57469 9.774 3.57469C10.3122 3.57469 10.7523 3.74433 10.9554 3.94822Z" fill="#14202B"/>
<path d="M10.7999 4.47951C10.8195 4.47951 10.8353 4.41618 10.8353 4.33805C10.8353 4.25992 10.8195 4.19659 10.7999 4.19659C10.7804 4.19659 10.7646 4.25992 10.7646 4.33805C10.7646 4.41618 10.7804 4.47951 10.7999 4.47951Z" fill="#14202B"/>
<path d="M10.7999 4.73273C10.7517 4.73273 10.5113 4.71369 10.5113 4.33804C10.5113 3.9624 10.7517 3.94336 10.7999 3.94336C10.8481 3.94336 11.0885 3.9624 11.0885 4.33804C11.0885 4.71369 10.8481 4.73273 10.7999 4.73273ZM10.5962 4.33804C10.6276 4.38895 10.698 4.44982 10.7999 4.44982C10.9018 4.44982 10.9722 4.38895 11.0036 4.33804C10.9722 4.28714 10.9018 4.22627 10.7999 4.22627C10.698 4.22627 10.6276 4.28714 10.5962 4.33804Z" fill="#14202B"/>
<path d="M10.0926 5.10008C10.1121 5.10008 10.128 5.05258 10.128 4.99398C10.128 4.93538 10.1121 4.88788 10.0926 4.88788C10.0731 4.88788 10.0572 4.93538 10.0572 4.99398C10.0572 5.05258 10.0731 5.10008 10.0926 5.10008Z" fill="#14202B"/>
<path d="M10.0926 5.35331C9.94897 5.35331 9.80402 5.24219 9.80402 4.99399C9.80402 4.74579 9.94897 4.63467 10.0926 4.63467C10.2362 4.63467 10.3812 4.74579 10.3812 4.99399C10.3812 5.24219 10.2362 5.35331 10.0926 5.35331ZM9.87561 4.99399C9.88711 5.04081 9.96059 5.14113 10.0926 5.14113C10.2246 5.14113 10.2981 5.04081 10.3096 4.99399C10.2981 4.94717 10.2246 4.84685 10.0926 4.84685C9.96059 4.84685 9.88715 4.94717 9.87561 4.99399Z" fill="#14202B"/>
<path d="M8.78482 5.15125C8.80435 5.15125 8.82019 5.10374 8.82019 5.04515C8.82019 4.98655 8.80435 4.93905 8.78482 4.93905C8.76529 4.93905 8.74946 4.98655 8.74946 5.04515C8.74946 5.10374 8.76529 5.15125 8.78482 5.15125Z" fill="#14202B"/>
<path d="M8.7848 5.40445C8.64117 5.40445 8.49621 5.29333 8.49621 5.04514C8.49621 4.79694 8.64117 4.68582 8.7848 4.68582C8.92848 4.68582 9.07343 4.79694 9.07343 5.04514C9.07343 5.29333 8.92848 5.40445 8.7848 5.40445ZM8.56784 5.04514C8.5793 5.09192 8.65275 5.19227 8.7848 5.19227C8.91686 5.19227 8.99035 5.09191 9.0018 5.04514C8.99035 4.99836 8.91686 4.898 8.7848 4.898C8.65275 4.898 8.57931 4.99836 8.56784 5.04514Z" fill="#14202B"/>
<path d="M9.45602 4.47951C9.47555 4.47951 9.49139 4.41618 9.49139 4.33805C9.49139 4.25992 9.47555 4.19659 9.45602 4.19659C9.43649 4.19659 9.42066 4.25992 9.42066 4.33805C9.42066 4.41618 9.43649 4.47951 9.45602 4.47951Z" fill="#14202B"/>
<path d="M9.45604 4.73273C9.40785 4.73273 9.16745 4.71369 9.16745 4.33804C9.16745 3.9624 9.40785 3.94336 9.45604 3.94336C9.50422 3.94336 9.74463 3.9624 9.74463 4.33804C9.74463 4.71369 9.50422 4.73273 9.45604 4.73273ZM9.25235 4.33804C9.28376 4.38899 9.35411 4.44982 9.45604 4.44982C9.55796 4.44982 9.62832 4.38899 9.65972 4.33804C9.62832 4.2871 9.55796 4.22627 9.45604 4.22627C9.35411 4.22627 9.28376 4.2871 9.25235 4.33804Z" fill="#14202B"/>
<path d="M5.94634 13.1738H5.43988V11.1602C5.43988 10.9968 5.54333 10.8524 5.69731 10.8009C5.94634 10.7177 5.94634 10.5496 5.94634 10.4944V8.36249H3.92052V10.4727C3.92052 10.5328 3.92052 10.7159 4.17181 10.8013C4.32447 10.8532 4.42697 10.9971 4.42697 11.1595V13.1738H3.92052V11.2463C3.60155 11.1043 3.41406 10.8212 3.41406 10.4727V8.33644C3.41406 8.07154 3.62958 7.85603 3.89447 7.85603H5.97239C6.23728 7.85603 6.4528 8.07154 6.4528 8.33644V10.4944C6.4528 10.8324 6.26535 11.1081 5.94635 11.2473L5.94634 13.1738Z" fill="#14202B"/>
<path d="M10.7577 13.1738H10.2512V11.1602C10.2512 10.9968 10.3547 10.8524 10.5086 10.8009C10.7577 10.7177 10.7577 10.5496 10.7577 10.4944V8.36249H8.73184V10.4727C8.73184 10.5328 8.73185 10.7159 8.98314 10.8013C9.1358 10.8532 9.2383 10.9971 9.2383 11.1595V13.1738H8.73184V11.2463C8.41288 11.1043 8.22539 10.8212 8.22539 10.4727V8.33644C8.22539 8.07154 8.44091 7.85603 8.7058 7.85603H10.7837C11.0486 7.85603 11.2641 8.07154 11.2641 8.33644V10.4944C11.2641 10.8324 11.0767 11.1081 10.7577 11.2473L10.7577 13.1738Z" fill="#14202B"/>
<path d="M9.87944 5.03566C9.87944 4.86391 9.97527 4.74323 10.1095 4.74323C10.2437 4.74323 10.3357 4.86391 10.3357 5.03566C10.3357 5.20279 10.2475 5.32812 10.1056 5.32812C9.97143 5.32812 9.87944 5.20279 9.87944 5.03566Z" fill="#14202B"/>
<path d="M8.53351 5.03871C8.53351 4.86697 8.64615 4.74629 8.80384 4.74629C8.96153 4.74629 9.06964 4.86697 9.06964 5.03871C9.06964 5.20584 8.96603 5.33117 8.79935 5.33117C8.64166 5.33117 8.53351 5.20584 8.53351 5.03871Z" fill="#14202B"/>
</svg>
